<svg  viewBox="0 0 394 492" fill="none" xmlns="http://www.w3.org/2000/svg">
<path d="M339.167 103.874C370.81 124.207 385.197 171.406 388.976 216.971C392.755 262.536 386.017 306.472 369.689 354.281C353.361 402.09 327.534 453.887 286.898 471.572C246.172 489.346 190.655 473.001 148.91 446.026C107.285 419.056 79.3187 381.359 53.1905 340.488C27.0622 299.618 2.66985 255.489 0.222772 205.833C-2.32677 156.184 17.063 100.929 55.5411 81.8034C94.1157 62.7014 151.785 79.8606 205.162 85.0735C258.54 90.2864 307.53 83.541 339.167 103.874Z" fill="#F0F0F0"/>
<path d="M241.041 492C258.042 449.157 291.187 427.189 293 374.587C293.06 370.692 228.958 329.313 199.051 330.009C169.144 330.704 130 492 130 492H241.041Z" fill="white"/>
<path d="M302 31H111V372H302V31Z" fill="#EAEFFF"/>
<path d="M283 180H130V240H283V180Z" fill="white"/>
<path fill-rule="evenodd" clip-rule="evenodd" d="M191 197.5C191 196.672 191.646 196 192.442 196H262.558C263.354 196 264 196.672 264 197.5C264 198.328 263.354 199 262.558 199H192.442C191.646 199 191 198.328 191 197.5Z" fill="#B0C3FA"/>
<path fill-rule="evenodd" clip-rule="evenodd" d="M191 215.5C191 214.672 191.638 214 192.425 214H220.575C221.362 214 222 214.672 222 215.5C222 216.328 221.362 217 220.575 217H192.425C191.638 217 191 216.328 191 215.5Z" fill="#B0C3FA"/>
<path d="M160.5 226C169.613 226 177 218.837 177 210C177 201.163 169.613 194 160.5 194C151.387 194 144 201.163 144 210C144 218.837 151.387 226 160.5 226Z" fill="#ECC953"/>
<path fill-rule="evenodd" clip-rule="evenodd" d="M289.613 370.001C290.406 370.028 291.027 370.696 290.999 371.492C289.945 402.134 278.384 422.499 265.644 442.339C265.214 443.008 264.325 443.201 263.658 442.77C262.992 442.338 262.799 441.446 263.229 440.776C275.892 421.057 287.101 401.235 288.128 371.392C288.155 370.596 288.82 369.973 289.613 370.001Z" fill="#1B3C87"/>
<path fill-rule="evenodd" clip-rule="evenodd" d="M251.306 462.21C251.992 462.621 252.205 463.494 251.784 464.161C246.758 472.116 242.417 480.463 238.807 489.115C238.504 489.841 237.654 490.19 236.909 489.895C236.163 489.601 235.805 488.773 236.107 488.048C239.779 479.25 244.192 470.764 249.302 462.675C249.724 462.008 250.621 461.8 251.306 462.21Z" fill="#1B3C87"/>
<path d="M283 93H130V153H283V93Z" fill="white"/>
<path d="M302 31H111V66H302V31Z" fill="#D6DFFF"/>
<path d="M302 337H111V372H302V337Z" fill="#D6DFFF"/>
<path fill-rule="evenodd" clip-rule="evenodd" d="M191 48.5C191 47.6716 191.638 47 192.425 47H220.575C221.362 47 222 47.6716 222 48.5C222 49.3284 221.362 50 220.575 50H192.425C191.638 50 191 49.3284 191 48.5Z" fill="#1B3C87"/>
<path d="M206.5 363C211.194 363 215 359.194 215 354.5C215 349.806 211.194 346 206.5 346C201.806 346 198 349.806 198 354.5C198 359.194 201.806 363 206.5 363Z" fill="#B0C3FA"/>
<path d="M83 492C92.0346 457.644 93.8415 326.247 83 296.11C98.66 284.658 163.107 235.836 172.744 228C181.778 234.027 177.562 284.055 148.049 305.753V320.822C163.709 320.822 187.199 373.26 173.948 428.712C166.293 453.003 190 492 190 492H83Z" fill="white"/>
<path fill-rule="evenodd" clip-rule="evenodd" d="M158.699 329.211C159.386 328.797 160.283 329.011 160.702 329.69C172.548 348.867 181.514 386.663 172.012 425.895C171.825 426.668 171.038 427.145 170.255 426.96C169.472 426.775 168.989 425.999 169.177 425.226C178.508 386.7 169.641 349.687 158.213 331.188C157.794 330.51 158.012 329.624 158.699 329.211Z" fill="#1B3C87"/>
<path fill-rule="evenodd" clip-rule="evenodd" d="M168.384 224.32C168.876 223.925 169.572 223.892 170.1 224.24C171.62 225.241 172.686 227.018 173.425 229.115C174.177 231.245 174.657 233.896 174.871 236.895C175.299 242.898 174.674 250.488 172.831 258.532C169.199 274.381 160.761 292.301 145.897 303.395V313.569C145.897 314.359 145.248 315 144.448 315C143.649 315 143 314.359 143 313.569V302.677C143 302.221 143.219 301.793 143.591 301.523C158.056 291.023 166.413 273.578 170.005 257.9C171.799 250.075 172.386 242.77 171.981 237.096C171.778 234.257 171.33 231.874 170.69 230.056C170.251 228.814 169.752 227.916 169.243 227.31C167.424 228.742 164.559 230.944 160.958 233.69C160.324 234.173 159.415 234.057 158.926 233.431C158.437 232.806 158.554 231.907 159.188 231.424C163.518 228.122 166.752 225.63 168.384 224.32Z" fill="#1B3C87"/>
<path fill-rule="evenodd" clip-rule="evenodd" d="M143.704 244.577C144.189 245.22 144.065 246.137 143.427 246.625C125.391 260.425 103.032 277.419 89.3213 287.71C88.6782 288.193 87.768 288.059 87.2883 287.412C86.8087 286.765 86.9411 285.849 87.5842 285.366C101.285 275.083 123.636 258.095 141.668 244.298C142.307 243.81 143.218 243.934 143.704 244.577Z" fill="#1B3C87"/>
<path fill-rule="evenodd" clip-rule="evenodd" d="M84.9666 322.006C85.8085 321.935 86.552 322.521 86.627 323.314C89.0295 348.702 89.5281 383.268 88.4815 414.865C87.4366 446.413 84.8464 475.194 81.0111 488.925C80.796 489.695 79.9589 490.155 79.1414 489.952C78.3239 489.749 77.8356 488.961 78.0508 488.19C81.7851 474.821 84.3759 446.355 85.4219 414.775C86.4662 383.246 85.9658 348.804 83.578 323.57C83.5029 322.777 84.1246 322.077 84.9666 322.006Z" fill="#1B3C87"/>
<path fill-rule="evenodd" clip-rule="evenodd" d="M247 110.5C247 109.672 247.679 109 248.517 109H262.483C263.321 109 264 109.672 264 110.5C264 111.328 263.321 112 262.483 112H248.517C247.679 112 247 111.328 247 110.5Z" fill="#B0C3FA"/>
<path fill-rule="evenodd" clip-rule="evenodd" d="M191 110.5C191 109.672 191.64 109 192.429 109H235.571C236.36 109 237 109.672 237 110.5C237 111.328 236.36 112 235.571 112H192.429C191.64 112 191 111.328 191 110.5Z" fill="#B0C3FA"/>
<path fill-rule="evenodd" clip-rule="evenodd" d="M191 128.5C191 127.672 191.638 127 192.425 127H220.575C221.362 127 222 127.672 222 128.5C222 129.328 221.362 130 220.575 130H192.425C191.638 130 191 129.328 191 128.5Z" fill="#B0C3FA"/>
<path d="M160.5 139C169.613 139 177 131.837 177 123C177 114.163 169.613 107 160.5 107C151.387 107 144 114.163 144 123C144 131.837 151.387 139 160.5 139Z" fill="#FB5D64"/>
<path d="M321.871 284C365.931 313.51 294.598 369.527 275.549 385C270.62 381.459 267.2 333.403 321.871 284Z" fill="white"/>
<path fill-rule="evenodd" clip-rule="evenodd" d="M287.701 319.231C288.366 319.664 288.559 320.562 288.131 321.236C278.468 336.469 273.077 350.878 270.946 361.887C269.88 367.399 269.642 371.998 270.058 375.394C270.393 378.123 271.113 379.809 271.92 380.699C272.228 380.446 272.548 380.185 272.878 379.914C276.463 376.977 281.282 373.028 286.63 368.336C287.228 367.812 288.133 367.878 288.65 368.484C289.168 369.089 289.103 370.006 288.505 370.531C283.118 375.257 278.257 379.239 274.673 382.176C274.02 382.711 273.409 383.212 272.846 383.675C272.396 384.046 271.77 384.105 271.26 383.825C268.888 382.522 267.668 379.438 267.215 375.751C266.749 371.952 267.032 367.026 268.135 361.328C270.344 349.918 275.887 335.17 285.721 319.667C286.149 318.993 287.035 318.797 287.701 319.231Z" fill="#1B3C87"/>
<path fill-rule="evenodd" clip-rule="evenodd" d="M318.137 279.644C318.578 278.979 319.47 278.8 320.13 279.244C326.383 283.457 330.485 288.25 332.769 293.473C335.054 298.699 335.471 304.245 334.531 309.881C332.663 321.085 325.412 332.764 316.54 343.48C316.031 344.094 315.125 344.176 314.516 343.663C313.907 343.151 313.825 342.237 314.334 341.623C323.116 331.016 329.959 319.826 331.698 309.401C332.561 304.222 332.16 299.263 330.14 294.642C328.118 290.019 324.427 285.623 318.534 281.653C317.874 281.209 317.697 280.309 318.137 279.644Z" fill="#1B3C87"/>
<path fill-rule="evenodd" clip-rule="evenodd" d="M341.5 59.9053C337.858 59.9053 334.905 62.8579 334.905 66.5C334.905 70.1421 337.858 73.0947 341.5 73.0947C345.142 73.0947 348.095 70.1421 348.095 66.5C348.095 62.8579 345.142 59.9053 341.5 59.9053ZM332 66.5C332 61.2533 336.253 57 341.5 57C346.747 57 351 61.2533 351 66.5C351 71.7467 346.747 76 341.5 76C336.253 76 332 71.7467 332 66.5Z" fill="#B0C3FA"/>
<path fill-rule="evenodd" clip-rule="evenodd" d="M340.254 4.33412C336.87 2.82721 333.079 2.4953 329.485 3.39121C325.89 4.28712 322.699 6.35937 320.418 9.27824C318.138 12.1971 316.899 15.7949 316.898 19.4991C316.898 19.4991 316.898 19.4991 316.898 19.4991V20.257C316.898 21.0574 316.25 21.7062 315.449 21.7062C314.649 21.7062 314 21.0574 314 20.257V19.4991C314 15.1482 315.456 10.9222 318.134 7.49373C320.813 4.06528 324.562 1.63125 328.784 0.578937C333.006 -0.47338 337.458 -0.0835289 341.433 1.68646C345.407 3.45644 348.676 6.50488 350.718 10.3467C352.761 14.1886 353.459 18.6031 352.703 22.8879C351.947 27.1727 349.78 31.0816 346.547 33.9926C343.313 36.9036 339.199 38.6496 334.858 38.9526C330.518 39.2557 326.201 38.0984 322.594 35.665C321.93 35.2173 321.755 34.3166 322.203 33.6532C322.651 32.9897 323.551 32.8147 324.215 33.2623C327.286 35.3341 330.961 36.3194 334.656 36.0613C338.352 35.8033 341.854 34.3169 344.607 31.8385C347.361 29.3602 349.206 26.0323 349.849 22.3843C350.493 18.7364 349.898 14.978 348.159 11.7072C346.42 8.43637 343.638 5.84103 340.254 4.33412Z" fill="#B0C3FA"/>
<path fill-rule="evenodd" clip-rule="evenodd" d="M383.373 21.4494C381.119 20.7197 378.697 20.7398 376.456 21.5066C374.214 22.2735 372.27 23.7474 370.905 25.715C369.54 27.6827 368.825 30.0421 368.862 32.4517C368.9 34.8614 369.689 37.1963 371.115 39.1187C372.54 41.0411 374.529 42.4512 376.793 43.1449C377.55 43.3767 377.979 44.1899 377.752 44.9612C377.524 45.7324 376.726 46.1697 375.97 45.9379C373.124 45.0659 370.624 43.2937 368.832 40.8775C367.04 38.4614 366.049 35.5267 366.002 32.4981C365.954 29.4696 366.854 26.5042 368.569 24.0311C370.285 21.5581 372.728 19.7056 375.545 18.7418C378.362 17.778 381.407 17.7528 384.239 18.6698C387.071 19.5869 389.543 21.3987 391.298 23.8431C393.053 26.2874 393.999 29.2375 394 32.2665C394.001 35.2954 393.056 38.2461 391.303 40.6916C390.837 41.3418 389.942 41.4837 389.304 41.0085C388.666 40.5333 388.527 39.621 388.993 38.9708C390.388 37.025 391.14 34.6773 391.139 32.2674C391.138 29.8574 390.385 27.5102 388.989 25.5654C387.593 23.6206 385.626 22.1791 383.373 21.4494Z" fill="#B0C3FA"/>
<path d="M306.079 257.143C259.391 285.3 254.004 346.406 259.99 350C276.749 343.41 339 274.516 339 242.765C339 235.576 318.182 221.977 313.399 220.03C310.718 218.982 313.573 214.567 304.026 223.403C304.086 232.18 303.403 248.564 306.079 257.143Z" fill="white"/>
<path fill-rule="evenodd" clip-rule="evenodd" d="M309.108 215.905C309.411 215.163 310.261 214.806 311.007 215.107C313.632 216.169 320.279 220.203 326.228 224.834C329.218 227.162 332.1 229.693 334.25 232.136C335.324 233.358 336.244 234.59 336.902 235.793C337.553 236.983 338 238.241 338 239.486C338 247.761 334.008 258.241 327.947 269.246C327.56 269.949 326.674 270.206 325.968 269.821C325.262 269.436 325.003 268.554 325.39 267.852C331.404 256.933 335.085 246.994 335.085 239.486C335.085 238.911 334.869 238.145 334.341 237.18C333.82 236.227 333.046 235.172 332.056 234.047C330.077 231.797 327.353 229.393 324.432 227.12C318.558 222.547 312.163 218.706 309.909 217.795C309.164 217.494 308.805 216.647 309.108 215.905Z" fill="#1B3C87"/>
<path fill-rule="evenodd" clip-rule="evenodd" d="M304.79 252.702C305.207 253.389 304.984 254.28 304.293 254.694C280.85 268.729 267.733 291.006 261.237 310.294C257.99 319.934 256.414 328.782 256.021 335.407C255.824 338.726 255.927 341.441 256.246 343.399C256.405 344.38 256.611 345.121 256.832 345.636C256.856 345.69 256.878 345.74 256.901 345.786C258.747 344.9 261.147 343.33 263.995 341.126C267.329 338.547 271.188 335.17 275.358 331.185C283.698 323.216 293.231 312.865 302.223 301.717C302.727 301.092 303.646 300.992 304.276 301.493C304.905 301.994 305.006 302.907 304.502 303.532C295.438 314.768 285.822 325.213 277.383 333.277C273.164 337.308 269.227 340.757 265.79 343.416C262.38 346.054 259.371 347.988 257.024 348.9C256.602 349.064 256.128 349.025 255.74 348.793C254.971 348.335 254.478 347.548 254.146 346.775C253.8 345.969 253.544 344.978 253.362 343.862C252.998 341.624 252.901 338.681 253.105 335.237C253.514 328.336 255.145 319.236 258.467 309.374C265.108 289.657 278.57 266.706 302.786 252.208C303.477 251.795 304.374 252.016 304.79 252.702Z" fill="#1B3C87"/>
<path d="M305 180.651C314.698 173.428 348.64 140.924 352.277 136.108C360.156 133.701 374.097 171.622 305 227" fill="white"/>
<path fill-rule="evenodd" clip-rule="evenodd" d="M330.534 197.371C331.117 197.9 331.159 198.797 330.626 199.376C322.213 208.517 313.083 216.982 303.321 224.691C302.703 225.179 301.803 225.078 301.311 224.465C300.819 223.852 300.922 222.959 301.54 222.471C311.183 214.855 320.203 206.493 328.513 197.462C329.046 196.883 329.951 196.843 330.534 197.371Z" fill="#1B3C87"/>
<path fill-rule="evenodd" clip-rule="evenodd" d="M349.726 133.925C350.244 133.958 351.053 134.349 351.951 135.773C353.036 137.492 353.954 140.366 354.121 144.361C354.455 152.321 351.79 164.45 342.077 179.753C341.649 180.428 341.837 181.329 342.498 181.766C343.159 182.203 344.042 182.01 344.47 181.336C354.413 165.671 357.336 152.952 356.97 144.236C356.788 139.894 355.785 136.473 354.349 134.197C352.966 132.005 350.842 130.457 348.539 131.18C348.251 131.27 347.999 131.452 347.818 131.698C346.997 132.815 344.323 135.701 340.509 139.612C336.735 143.483 331.934 148.269 326.945 153.134C316.935 162.892 306.262 172.873 301.57 176.464C300.94 176.946 300.813 177.858 301.285 178.501C301.758 179.144 302.651 179.274 303.281 178.792C308.135 175.077 318.938 164.964 328.914 155.238C333.917 150.361 338.736 145.557 342.531 141.665C345.885 138.224 348.512 135.423 349.726 133.925Z" fill="#1B3C87"/>
</svg>
