<svg  viewBox="0 0 532 458" fill="none" xmlns="http://www.w3.org/2000/svg">
<g clip-path="url(#clip0)">
<path d="M415.211 91.2374C458.461 141.096 491.88 193.849 495.117 249.717C498.245 305.586 471.089 364.681 427.839 404.189C384.701 443.698 325.359 463.622 274.511 455.273C223.772 446.815 181.305 410.088 127.437 370.579C73.6797 331.071 8.41464 288.78 10.4257 248.604C12.3256 208.316 81.5033 170.031 135.371 120.062C189.237 70.2034 227.682 8.77021 273.391 1.53626C319.099 -5.6977 372.073 41.3784 415.211 91.2374Z" fill="white"/>
<path fill-rule="evenodd" clip-rule="evenodd" d="M118.828 112.043C118.979 112.077 119.101 112.189 119.147 112.336L145.826 198.085C145.872 198.233 145.835 198.393 145.73 198.507C145.624 198.62 145.466 198.669 145.315 198.635L101.358 188.703L57.4066 178.767C57.2552 178.733 57.1337 178.621 57.0878 178.473C57.0419 178.325 57.0785 178.165 57.1839 178.051L118.413 112.171C118.518 112.057 118.677 112.008 118.828 112.043ZM118.54 113.308L58.3325 178.089L101.55 187.859L144.773 197.625L118.54 113.308Z" fill="#2A67B7"/>
<path fill-rule="evenodd" clip-rule="evenodd" d="M455.101 107.522C455.263 107.491 455.429 107.554 455.529 107.685L494.719 158.935C494.81 159.054 494.833 159.211 494.779 159.351C494.726 159.491 494.604 159.593 494.456 159.622L438.137 170.49C437.99 170.518 437.838 170.469 437.736 170.359C437.634 170.249 437.596 170.095 437.636 169.951L454.765 107.832C454.809 107.674 454.939 107.553 455.101 107.522ZM455.37 108.904L438.659 169.508L493.604 158.905L455.37 108.904Z" fill="#2A67B7"/>
<path d="M125.403 96.5849L260.579 137.97L217.316 278.88L82.1403 237.496L125.403 96.5849Z" stroke="#FB8E9B" stroke-width="2"/>
<path d="M327.629 148.364C327.629 129.212 343.222 113.679 362.464 113.679C381.705 113.679 397.299 129.212 397.299 148.364C397.299 167.517 381.706 183.05 362.464 183.05C343.221 183.05 327.629 167.517 327.629 148.364Z" stroke="#D7E0FF" stroke-width="2"/>
<path fill-rule="evenodd" clip-rule="evenodd" d="M300.328 288.544C280.362 288.544 264.176 304.663 264.176 324.545C264.176 344.427 280.364 360.545 300.329 360.545C320.294 360.545 336.479 344.427 336.479 324.545C336.479 304.663 320.294 288.544 300.328 288.544ZM263.308 324.545C263.308 304.185 279.883 287.679 300.328 287.679C320.773 287.679 337.348 304.185 337.348 324.545C337.348 344.905 320.773 361.41 300.329 361.41C279.884 361.41 263.308 344.905 263.308 324.545Z" fill="#2A67B7"/>
<path d="M376.579 79.8519V107.47H376.753V136.954L356.067 114.928H296.587V79.8519H376.579Z" fill="#F9B8B8"/>
<path d="M195.514 127.054V154.672H195.34V184.156L216.027 162.131H275.509V127.054H195.514Z" fill="#B0F0C2"/>
<path d="M414.865 197.445C414.865 217.198 423.486 220.78 423.486 224.362C423.486 227.944 419.577 247.591 418.461 250.172C421.371 254.228 441.893 256.335 445.808 255.281C446.125 251.436 451.044 226.416 452.155 224.731C453.266 223.045 465.696 213.138 465.696 204.925C465.696 186.542 464.48 162.103 452.208 162.103C437.292 162.101 414.865 169.319 414.865 197.445Z" fill="white"/>
<path d="M476.784 256.217C467.188 256.454 446.454 260.156 446.454 260.156C446.335 270.243 449.097 377.158 449.514 393.242H508.728L529.705 271.932C529.705 269.868 529.297 267.824 528.504 265.918C527.711 264.011 526.548 262.279 525.083 260.82C523.618 259.36 521.878 258.203 519.963 257.413C518.049 256.623 515.997 256.217 513.924 256.217C513.924 256.217 488.439 256.585 478.543 256.217C478.012 256.2 477.423 256.201 476.784 256.217Z" fill="#E5E5E5"/>
<path d="M165.504 347.047C168.88 345.193 201.514 321.143 203.298 318.894C205.083 316.645 211.488 303.794 212.026 302.956C212.565 302.117 215.991 300.55 216.419 300.911C219.048 303.134 214.835 310.7 214.334 311.857C216.782 309.632 232.264 297.577 234.161 298.17C247.8 302.434 242.696 320.559 234.125 324.976C231.779 326.187 218.937 331.068 217.706 332.137C216.475 333.206 162.455 377.994 161.245 378.852C160.57 375.765 162.121 348.898 165.504 347.047Z" fill="white"/>
<path d="M361.061 284.211C358.737 287.637 352.857 296.186 350.532 299.523C325.52 266.752 299.625 247.775 292.827 215.435C286.246 211.265 286.623 226.149 291.567 237.291C283.849 242.208 276.538 247.14 278.784 250.787C287.384 264.729 289.972 260.343 293.185 260.63C296.397 260.917 322.133 313.453 329.548 321.716C335.012 327.807 339.257 334.929 356.148 342.165C357.963 326.772 369.346 290.323 371.67 287.556C369.582 286.068 363.386 280.785 361.061 284.211Z" fill="white"/>
<path d="M369.363 291.263C361.618 285.38 356.383 280.75 356.245 278.576C355.918 273.435 386.861 229.622 407.917 243.516C416.85 249.98 384.681 302.641 369.363 291.263Z" fill="#DB468E"/>
<path fill-rule="evenodd" clip-rule="evenodd" d="M405.639 242.227C399.964 238.482 393.451 239.186 386.851 242.445C386.314 242.711 385.663 242.492 385.396 241.957C385.13 241.422 385.349 240.773 385.886 240.508C392.857 237.065 400.265 236.086 406.839 240.425C407.339 240.754 407.475 241.426 407.144 241.923C406.813 242.421 406.139 242.557 405.639 242.227Z" fill="#1B3C87"/>
<path fill-rule="evenodd" clip-rule="evenodd" d="M369.09 255.025C369.531 255.429 369.559 256.114 369.153 256.553C365.082 260.951 361.639 265.488 359.236 269.189C358.034 271.041 357.103 272.667 356.486 273.951C356.177 274.594 355.956 275.133 355.817 275.56C355.67 276.014 355.649 276.248 355.653 276.317L355.653 276.318C355.667 276.532 355.845 277.023 356.447 277.84C357.018 278.615 357.868 279.548 358.985 280.618C361.216 282.755 364.418 285.351 368.328 288.2C368.812 288.552 368.918 289.229 368.563 289.711C368.209 290.193 367.53 290.298 367.046 289.945C363.096 287.068 359.808 284.408 357.479 282.177C356.317 281.063 355.37 280.033 354.696 279.12C354.054 278.249 353.541 277.327 353.486 276.454M369.09 255.025C368.649 254.62 367.962 254.648 367.556 255.087L369.09 255.025ZM367.556 255.087C363.401 259.576 359.882 264.21 357.412 268.015L367.556 255.087ZM357.412 268.015C356.179 269.916 355.197 271.625 354.527 273.017L357.412 268.015ZM354.527 273.017C354.193 273.712 353.929 274.346 353.75 274.896L354.527 273.017ZM353.75 274.896C353.581 275.419 353.455 275.968 353.486 276.454L353.75 274.896Z" fill="#1B3C87"/>
<path d="M427.528 240.061C365.607 240.624 353.253 346.518 350.386 393.242H467.611C482.402 347.408 493.339 249.621 437.254 240.797C434.038 240.285 430.785 240.04 427.528 240.061Z" fill="#DB468E"/>
<path d="M19.2895 253.096C17.2172 253.096 15.1651 253.503 13.2505 254.293C11.3359 255.083 9.59624 256.24 8.1309 257.699C6.66556 259.159 5.50321 260.891 4.71023 262.798C3.91725 264.705 3.50916 266.748 3.50928 268.812C3.50928 268.812 14.8608 360.339 18.9994 393.703H104.324C104.316 388.32 104.15 274.792 103.276 253.096H19.2895Z" fill="#E6E6E6"/>
<path d="M124.877 249.34C68.1054 249.34 56.8867 347.947 58.539 393.701H162.593C171.856 348.394 173.393 249.34 124.877 249.34Z" fill="#46DBC9"/>
<path fill-rule="evenodd" clip-rule="evenodd" d="M163.66 320.074C164.259 320.043 164.77 320.501 164.802 321.097C166.213 347.924 163.355 375.856 159.314 393.745C159.182 394.328 158.601 394.694 158.016 394.563C157.431 394.432 157.064 393.853 157.195 393.271C161.191 375.58 164.034 347.846 162.633 321.21C162.601 320.614 163.061 320.105 163.66 320.074Z" fill="#1B3C87"/>
<path fill-rule="evenodd" clip-rule="evenodd" d="M134.627 248.822C134.909 248.295 135.566 248.095 136.096 248.375C146.576 253.929 153.583 265.445 158.084 279.675C158.264 280.245 157.946 280.852 157.374 281.032C156.802 281.211 156.192 280.895 156.012 280.325C151.577 266.303 144.811 255.444 135.075 250.284C134.546 250.004 134.345 249.349 134.627 248.822Z" fill="#1B3C87"/>
<path fill-rule="evenodd" clip-rule="evenodd" d="M106.33 248.14C106.564 248.689 106.307 249.324 105.755 249.558C100.332 251.852 95.441 255.278 91.0358 259.609C90.609 260.028 89.9215 260.024 89.5001 259.599C89.0788 259.174 89.0832 258.489 89.51 258.069C94.0804 253.576 99.1951 249.983 104.906 247.567C105.458 247.334 106.095 247.59 106.33 248.14Z" fill="#1B3C87"/>
<path fill-rule="evenodd" clip-rule="evenodd" d="M233.654 295.214C233.851 295.778 233.551 296.394 232.985 296.59C232.061 296.91 230.631 297.64 228.881 298.682C227.15 299.713 225.164 301.014 223.146 302.435C219.095 305.286 214.983 308.571 212.561 311.074C212.163 311.485 211.513 311.517 211.076 311.147C210.639 310.777 210.566 310.132 210.911 309.675C212.139 308.044 213.284 305.615 213.97 303.421C214.312 302.326 214.525 301.339 214.586 300.576C214.617 300.194 214.607 299.905 214.574 299.704C214.553 299.576 214.528 299.518 214.52 299.501C214.341 299.31 214.227 299.273 214.176 299.262C214.117 299.25 213.994 299.244 213.753 299.342C213.208 299.562 212.496 300.119 211.445 301.04C211.309 301.159 211.079 301.437 210.761 301.929C210.455 302.401 210.11 303.002 209.733 303.706C209.034 305.007 208.255 306.597 207.439 308.262C207.371 308.401 207.303 308.54 207.234 308.679C206.35 310.483 205.429 312.348 204.552 313.948C203.69 315.521 202.814 316.944 202.004 317.795C201.597 318.223 200.762 318.937 199.671 319.822C198.559 320.724 197.127 321.848 195.481 323.116C192.189 325.651 188.027 328.773 183.836 331.863C179.644 334.953 175.419 338.015 172.002 340.431C168.62 342.821 165.947 344.639 164.913 345.18C164.383 345.458 163.726 345.256 163.447 344.727C163.167 344.199 163.371 343.545 163.902 343.266C164.775 342.809 167.305 341.098 170.744 338.667C174.147 336.262 178.36 333.209 182.543 330.125C186.727 327.04 190.876 323.928 194.153 321.405C195.791 320.143 197.208 319.031 198.299 318.145C199.411 317.243 200.133 316.617 200.428 316.308C201.021 315.684 201.78 314.491 202.646 312.912C203.496 311.361 204.395 309.54 205.283 307.73C205.352 307.588 205.422 307.446 205.491 307.304C206.302 305.651 207.099 304.024 207.817 302.686C208.208 301.959 208.584 301.3 208.935 300.757C209.273 300.235 209.636 299.744 210.01 299.416C211 298.549 211.987 297.721 212.936 297.338C213.441 297.133 214.013 297.021 214.614 297.144C215.222 297.268 215.727 297.607 216.145 298.066C216.494 298.449 216.647 298.931 216.717 299.35C216.789 299.784 216.791 300.263 216.751 300.75C216.672 301.727 216.414 302.88 216.044 304.063C215.901 304.52 215.739 304.989 215.561 305.461C217.534 303.845 219.734 302.188 221.892 300.669C223.945 299.224 225.978 297.891 227.766 296.826C229.536 295.772 231.125 294.944 232.272 294.547C232.839 294.351 233.458 294.65 233.654 295.214Z" fill="#1B3C87"/>
<path fill-rule="evenodd" clip-rule="evenodd" d="M184.243 356.488C184.634 356.94 184.583 357.623 184.129 358.013C173.491 367.141 163.878 375.451 162.196 376.952C161.749 377.35 161.062 377.313 160.662 376.868C160.262 376.423 160.3 375.739 160.747 375.341C162.449 373.823 172.081 365.495 182.711 356.375C183.166 355.985 183.851 356.035 184.243 356.488Z" fill="#1B3C87"/>
<path fill-rule="evenodd" clip-rule="evenodd" d="M233.764 321.479C234.036 322.012 233.824 322.663 233.289 322.934C231.669 323.756 229.496 324.713 227.204 325.722C226.166 326.179 225.104 326.647 224.056 327.118C220.638 328.656 217.379 330.231 215.358 331.668C214.195 332.494 209.7 336.234 203.71 341.301C203.253 341.687 202.568 341.632 202.18 341.177C201.791 340.722 201.847 340.039 202.304 339.652C208.244 334.628 212.837 330.802 214.096 329.907L214.096 329.907C216.318 328.328 219.769 326.674 223.162 325.147C224.258 324.654 225.348 324.174 226.4 323.711C228.659 322.717 230.737 321.802 232.304 321.007C232.838 320.736 233.492 320.947 233.764 321.479Z" fill="#1B3C87"/>
<path fill-rule="evenodd" clip-rule="evenodd" d="M239.786 298.446C239.89 299.034 239.495 299.594 238.905 299.698C238.624 299.747 238.152 299.906 237.482 300.206C236.83 300.498 236.055 300.895 235.188 301.374C233.455 302.33 231.406 303.588 229.341 304.922L229.34 304.922C224.879 307.797 220.436 310.962 219.039 312.114C218.577 312.495 217.892 312.431 217.51 311.971C217.127 311.511 217.192 310.83 217.653 310.449C219.151 309.213 223.68 305.994 228.159 303.107C230.246 301.759 232.341 300.473 234.135 299.482C235.031 298.987 235.864 298.56 236.59 298.234C237.297 297.917 237.971 297.665 238.529 297.568C239.12 297.464 239.683 297.857 239.786 298.446Z" fill="#1B3C87"/>
<path fill-rule="evenodd" clip-rule="evenodd" d="M243.392 302.618C243.495 303.206 243.101 303.767 242.51 303.87C242.229 303.919 241.758 304.078 241.088 304.379C240.436 304.671 239.661 305.068 238.794 305.547C237.061 306.504 235.011 307.761 232.946 309.094L232.945 309.094C228.484 311.968 224.041 315.134 222.644 316.286C222.182 316.667 221.498 316.602 221.115 316.142C220.733 315.682 220.797 315.001 221.259 314.62C222.757 313.386 227.285 310.165 231.765 307.278C233.851 305.933 235.947 304.646 237.74 303.656C238.636 303.161 239.469 302.733 240.195 302.407C240.902 302.09 241.577 301.837 242.134 301.74C242.725 301.637 243.288 302.03 243.392 302.618Z" fill="#1B3C87"/>
<path fill-rule="evenodd" clip-rule="evenodd" d="M242.843 309.497C242.949 310.085 242.557 310.647 241.967 310.753C241.734 310.795 241.327 310.933 240.734 311.203C240.16 311.465 239.474 311.821 238.706 312.252C237.171 313.113 235.354 314.244 233.521 315.444C229.562 318.038 225.622 320.889 224.386 321.924C223.927 322.308 223.242 322.249 222.856 321.792C222.47 321.334 222.53 320.652 222.989 320.268C224.324 319.15 228.35 316.243 232.328 313.638L232.328 313.637C234.182 312.423 236.045 311.262 237.641 310.367C238.438 309.92 239.181 309.533 239.83 309.237C240.46 308.95 241.07 308.716 241.581 308.624C242.172 308.518 242.736 308.909 242.843 309.497Z" fill="#1B3C87"/>
<path d="M452.175 224.415C451.045 227.624 445.959 251.368 445.583 255.113C440.805 256.825 421.148 253.982 418.677 250.237C421.094 243.176 423.664 229.164 423.449 223.279" fill="white"/>
<path fill-rule="evenodd" clip-rule="evenodd" d="M421.931 220.068C422.531 220.046 423.034 220.512 423.056 221.109C423.168 224.175 422.561 229.245 421.641 234.376C420.719 239.523 419.461 244.851 418.227 248.455C418.033 249.02 417.416 249.322 416.849 249.129C416.281 248.937 415.978 248.322 416.171 247.757C417.355 244.299 418.59 239.09 419.503 233.996C420.419 228.884 420.989 224.007 420.886 221.188C420.864 220.591 421.332 220.09 421.931 220.068Z" fill="#1B3C87"/>
<path fill-rule="evenodd" clip-rule="evenodd" d="M451.056 221.263C451.622 221.46 451.92 222.077 451.721 222.641C451.463 223.376 450.947 225.396 450.3 228.154C449.661 230.881 448.909 234.26 448.18 237.658C446.714 244.494 445.366 251.292 445.185 253.089C445.144 253.504 444.866 253.858 444.472 253.999C443.1 254.49 440.879 254.625 438.42 254.556C435.91 254.486 432.99 254.195 430.121 253.74C429.529 253.646 429.125 253.091 429.22 252.501C429.314 251.912 429.871 251.51 430.463 251.604C433.256 252.047 436.081 252.327 438.482 252.394C440.48 252.451 442.081 252.355 443.119 252.134C443.501 249.521 444.75 243.294 446.056 237.206C446.787 233.799 447.542 230.406 448.186 227.662C448.822 224.948 449.366 222.796 449.672 221.926C449.87 221.362 450.49 221.065 451.056 221.263Z" fill="#1B3C87"/>
<path fill-rule="evenodd" clip-rule="evenodd" d="M422.105 169.96C422.599 170.298 422.724 170.971 422.384 171.463C420.141 174.714 417.932 179.037 416.446 183.458C416.256 184.025 415.64 184.33 415.072 184.141C414.503 183.951 414.196 183.338 414.387 182.772C415.936 178.163 418.234 173.658 420.595 170.238C420.934 169.746 421.61 169.621 422.105 169.96Z" fill="#1B3C87"/>
<path fill-rule="evenodd" clip-rule="evenodd" d="M413.246 194.106C413.846 194.132 414.31 194.637 414.284 195.234C413.611 210.62 421.181 223.395 432.561 225.819L432.562 225.819C434.994 226.337 437.471 226.322 439.926 225.83C440.514 225.712 441.086 226.091 441.204 226.677C441.323 227.262 440.942 227.832 440.354 227.95C437.627 228.496 434.849 228.518 432.107 227.934C419.266 225.199 411.417 211.081 412.114 195.14C412.14 194.543 412.647 194.08 413.246 194.106Z" fill="#1B3C87"/>
<path fill-rule="evenodd" clip-rule="evenodd" d="M445.674 240.806C445.934 240.268 446.583 240.041 447.123 240.3C458.271 245.642 465.853 255.445 470.748 267.655C475.641 279.856 477.881 294.53 478.318 309.77C479.192 340.247 472.859 373.234 465.773 393.822C465.578 394.387 464.961 394.688 464.393 394.495C463.826 394.301 463.524 393.686 463.718 393.121C470.729 372.754 477.013 340.025 476.147 309.832C475.714 294.737 473.496 280.339 468.731 268.457C463.97 256.582 456.697 247.289 446.182 242.249C445.641 241.99 445.414 241.344 445.674 240.806Z" fill="#1B3C87"/>
<path fill-rule="evenodd" clip-rule="evenodd" d="M420.503 237.294C420.594 237.884 420.188 238.436 419.595 238.527C403.215 241.036 390.589 251.658 380.838 266.682C371.084 281.713 364.281 301.049 359.547 320.733C359.407 321.314 358.821 321.672 358.238 321.533C357.655 321.394 357.295 320.811 357.435 320.23C362.195 300.435 369.07 280.832 379.014 265.508C388.964 250.176 402.06 239.025 419.265 236.389C419.857 236.298 420.412 236.703 420.503 237.294Z" fill="#1B3C87"/>
<path fill-rule="evenodd" clip-rule="evenodd" d="M351.774 357.124C352.369 357.202 352.788 357.745 352.71 358.337C350.927 371.898 349.957 384.183 349.43 393.574C349.397 394.171 348.884 394.627 348.286 394.594C347.687 394.561 347.229 394.05 347.262 393.454C347.79 384.022 348.765 371.682 350.557 358.056C350.635 357.464 351.18 357.047 351.774 357.124Z" fill="#1B3C87"/>
<path fill-rule="evenodd" clip-rule="evenodd" d="M459.359 352.286C459.958 352.246 460.476 352.696 460.516 353.292C461.301 364.844 462.148 375.37 462.783 378.45C462.849 378.769 462.766 379.102 462.558 379.354C460.844 381.429 457.983 385.117 455.541 388.299C454.322 389.888 453.21 391.345 452.404 392.406C452 392.937 451.673 393.368 451.447 393.666C451.334 393.815 451.246 393.931 451.187 394.01L451.096 394.129L451.096 394.13C451.096 394.13 451.096 394.13 450.229 393.479C449.361 392.829 449.361 392.829 449.361 392.829L449.361 392.829L449.452 392.708C449.512 392.629 449.6 392.513 449.714 392.363C449.941 392.064 450.268 391.632 450.672 391.101C451.48 390.038 452.594 388.577 453.815 386.986C456.109 383.997 458.798 380.529 460.559 378.372C459.902 374.605 459.091 364.355 458.349 353.438C458.309 352.842 458.761 352.326 459.359 352.286ZM449.575 394.343C449.096 393.984 449 393.306 449.361 392.829L450.229 393.479L451.096 394.13C450.735 394.607 450.055 394.703 449.575 394.343Z" fill="#1B3C87"/>
<path fill-rule="evenodd" clip-rule="evenodd" d="M457.187 317.162C457.785 317.121 458.303 317.571 458.344 318.167C458.407 319.086 458.546 321.459 458.74 324.762C458.852 326.67 458.982 328.888 459.127 331.315C459.162 331.912 458.705 332.423 458.107 332.459C457.508 332.494 456.994 332.039 456.959 331.443C456.813 328.999 456.683 326.772 456.571 324.861C456.378 321.574 456.24 319.223 456.177 318.315C456.136 317.719 456.588 317.203 457.187 317.162Z" fill="#1B3C87"/>
<path fill-rule="evenodd" clip-rule="evenodd" d="M291.57 212.539C292.413 213.746 292.902 215.502 293.128 216.997L293.128 216.999C293.339 218.402 294.412 222.528 296.484 227.736C298.549 232.927 301.577 239.119 305.663 244.678L305.663 244.679C307.024 246.533 317.93 259.513 328.552 272.093C333.85 278.369 339.062 284.526 342.949 289.115C344.893 291.409 346.505 293.311 347.632 294.639C347.935 294.997 348.204 295.313 348.433 295.585C348.446 295.6 348.459 295.614 348.471 295.629C348.661 295.349 348.879 295.027 349.119 294.671C349.997 293.373 351.179 291.624 352.397 289.823C354.832 286.223 357.417 282.405 357.999 281.557C358.337 281.064 359.013 280.937 359.508 281.274C360.003 281.611 360.13 282.284 359.792 282.777C359.215 283.618 356.637 287.427 354.198 291.031C352.98 292.832 351.798 294.581 350.921 295.879C350.482 296.528 350.12 297.064 349.867 297.438L349.471 298.024L349.471 298.024C349.471 298.024 349.471 298.024 348.57 297.421C347.74 298.119 347.74 298.118 347.74 298.118L347.738 298.116L347.279 297.575C346.978 297.22 346.536 296.699 345.973 296.035C344.846 294.706 343.233 292.804 341.289 290.509C337.402 285.92 332.189 279.762 326.889 273.485C316.316 260.961 305.331 247.89 303.91 245.955C303.91 245.955 303.91 245.955 303.91 245.955C299.683 240.204 296.573 233.834 294.465 228.533C292.363 223.249 291.226 218.952 290.981 217.319C290.773 215.947 290.349 214.578 289.787 213.774C289.51 213.377 289.278 213.231 289.132 213.188C289.036 213.16 288.833 213.132 288.45 213.377C287.877 213.826 287.378 214.882 287.132 216.651C286.893 218.38 286.931 220.532 287.181 222.798C287.685 227.36 289.012 232.086 290.362 234.394C290.664 234.91 290.489 235.572 289.971 235.872C289.453 236.173 288.788 235.999 288.486 235.483C286.917 232.801 285.541 227.733 285.022 223.034C284.761 220.668 284.708 218.324 284.981 216.356C285.244 214.455 285.849 212.62 287.168 211.63C287.185 211.617 287.204 211.604 287.222 211.592C288.024 211.064 288.891 210.864 289.743 211.113C290.549 211.348 291.144 211.929 291.57 212.539ZM348.57 297.421L347.74 298.119C347.96 298.378 348.289 298.519 348.629 298.5C348.969 298.482 349.28 298.306 349.471 298.024L348.57 297.421Z" fill="#1B3C87"/>
<path fill-rule="evenodd" clip-rule="evenodd" d="M284.629 235.527C285.228 235.504 285.733 235.969 285.756 236.565C285.799 237.649 286.356 240.082 287.398 242.723C288.439 245.359 289.885 247.995 291.583 249.588C292.02 249.997 292.041 250.681 291.629 251.116C291.218 251.551 290.531 251.572 290.095 251.162C288.048 249.243 286.459 246.254 285.377 243.514C284.297 240.779 283.643 238.084 283.586 236.65C283.563 236.053 284.03 235.551 284.629 235.527Z" fill="#1B3C87"/>
<path fill-rule="evenodd" clip-rule="evenodd" d="M280.067 240.012C280.661 239.93 281.21 240.343 281.292 240.934C281.441 242.008 282.237 244.374 283.537 246.9C284.834 249.421 286.535 251.902 288.384 253.319C288.86 253.683 288.948 254.362 288.583 254.836C288.217 255.309 287.535 255.397 287.06 255.033C284.831 253.325 282.953 250.507 281.604 247.886C280.257 245.27 279.339 242.653 279.141 241.231C279.058 240.64 279.473 240.094 280.067 240.012Z" fill="#1B3C87"/>
<path fill-rule="evenodd" clip-rule="evenodd" d="M275.584 244.604C276.172 244.487 276.744 244.866 276.863 245.451C277.077 246.514 278.015 248.829 279.465 251.272C280.913 253.71 282.76 256.084 284.692 257.389C285.188 257.724 285.318 258.396 284.981 258.89C284.645 259.385 283.97 259.514 283.473 259.179C281.145 257.607 279.1 254.907 277.595 252.372C276.093 249.842 275.018 247.285 274.733 245.878C274.615 245.292 274.996 244.722 275.584 244.604Z" fill="#1B3C87"/>
<path fill-rule="evenodd" clip-rule="evenodd" d="M292.311 259.812C292.799 259.464 293.477 259.575 293.827 260.06C298.285 266.249 302.321 273.552 306.289 281.147C307.438 283.346 308.58 285.568 309.726 287.796C312.55 293.289 315.394 298.822 318.406 304.148C318.701 304.669 318.516 305.328 317.993 305.621C317.471 305.914 316.808 305.73 316.514 305.209C313.48 299.844 310.604 294.25 307.772 288.741C306.631 286.522 305.497 284.316 304.362 282.145C300.4 274.561 296.424 267.376 292.062 261.321C291.712 260.835 291.824 260.16 292.311 259.812Z" fill="#1B3C87"/>
<path fill-rule="evenodd" clip-rule="evenodd" d="M333.421 327.187C333.845 326.764 334.532 326.764 334.957 327.186C340.63 332.827 347.062 336.963 354.672 338.787C355.255 338.927 355.614 339.511 355.473 340.091C355.333 340.672 354.746 341.029 354.163 340.889C346.074 338.95 339.303 334.565 333.422 328.716C332.998 328.294 332.997 327.609 333.421 327.187Z" fill="#1B3C87"/>
<path fill-rule="evenodd" clip-rule="evenodd" d="M422.661 183.414C421.941 184.065 421.328 185.1 421.058 186.379C420.934 186.963 420.358 187.337 419.771 187.214C419.185 187.091 418.809 186.517 418.933 185.933C419.287 184.259 420.107 182.803 421.201 181.814C422.293 180.825 423.731 180.251 425.229 180.565C426.727 180.879 427.81 181.981 428.41 183.324C429.01 184.669 429.171 186.331 428.817 188.005C428.694 188.589 428.118 188.964 427.531 188.841C426.944 188.718 426.569 188.144 426.692 187.56C426.962 186.281 426.82 185.087 426.425 184.203C426.03 183.316 425.426 182.816 424.782 182.681C424.137 182.546 423.382 182.762 422.661 183.414Z" fill="#1B3C87"/>
<path fill-rule="evenodd" clip-rule="evenodd" d="M443.183 188.156C442.463 188.807 441.85 189.842 441.58 191.12C441.457 191.705 440.881 192.079 440.294 191.956C439.707 191.833 439.332 191.259 439.455 190.675C439.809 189.001 440.629 187.545 441.723 186.555C442.815 185.567 444.253 184.992 445.751 185.306C447.25 185.62 448.333 186.723 448.932 188.066C449.532 189.41 449.693 191.072 449.34 192.747C449.216 193.331 448.641 193.705 448.054 193.582C447.467 193.459 447.091 192.886 447.214 192.301C447.485 191.022 447.343 189.829 446.948 188.944C446.552 188.058 445.949 187.558 445.304 187.423C444.659 187.288 443.904 187.503 443.183 188.156Z" fill="#1B3C87"/>
<path fill-rule="evenodd" clip-rule="evenodd" d="M432.071 191.301C432.557 191.651 432.666 192.327 432.314 192.811C431.65 193.726 430.472 195.174 429.259 196.491C428.652 197.151 428.024 197.791 427.439 198.321C426.874 198.832 426.275 199.308 425.733 199.569C425.193 199.829 424.544 199.603 424.283 199.066C424.022 198.528 424.248 197.881 424.788 197.622C425.031 197.505 425.437 197.209 425.978 196.72C426.498 196.249 427.077 195.661 427.658 195.03C428.822 193.765 429.946 192.381 430.554 191.543C430.906 191.059 431.585 190.951 432.071 191.301Z" fill="#1B3C87"/>
<path fill-rule="evenodd" clip-rule="evenodd" d="M441.918 203.419C442.471 203.315 443.013 203.649 443.165 204.189C443.645 205.887 443.638 208.497 442.468 210.858C441.264 213.287 438.871 215.366 434.782 215.949C434.189 216.034 433.638 215.624 433.553 215.032C433.468 214.441 433.88 213.893 434.474 213.809C437.877 213.323 439.644 211.67 440.52 209.901C441.225 208.478 441.38 206.925 441.252 205.723C437.469 206.282 433.878 206.034 432.089 205.675C431.501 205.557 431.12 204.987 431.239 204.401C431.357 203.816 431.93 203.437 432.518 203.555C434.209 203.894 438.04 204.149 441.918 203.419Z" fill="#1B3C87"/>
<path fill-rule="evenodd" clip-rule="evenodd" d="M52.207 250.647C52.207 250.05 52.6932 249.566 53.2929 249.566H101.045C101.644 249.566 102.131 250.05 102.131 250.647C102.131 251.244 101.644 251.729 101.045 251.729H53.2929C52.6932 251.729 52.207 251.244 52.207 250.647Z" fill="#1B3C87"/>
<path fill-rule="evenodd" clip-rule="evenodd" d="M17.0544 251.729C15.1245 251.729 13.2135 252.107 11.4305 252.842C9.64749 253.578 8.0274 254.656 6.66274 256.015C5.29807 257.374 4.21556 258.987 3.477 260.762C2.74682 262.518 2.36698 264.398 2.35846 266.297L18.1174 393.35C18.1909 393.943 17.768 394.483 17.1728 394.556C16.5776 394.629 16.0355 394.208 15.9619 393.616L0.194713 266.495C0.189259 266.451 0.186523 266.407 0.186523 266.363C0.186523 264.157 0.622833 261.973 1.47054 259.935C2.31824 257.897 3.56074 256.045 5.12709 254.485C6.69343 252.926 8.55295 251.688 10.5995 250.844C12.646 250 14.8394 249.566 17.0544 249.566C17.0544 249.566 17.0544 249.566 17.0544 249.566H22.9999C23.5996 249.566 24.0858 250.05 24.0858 250.647C24.0858 251.245 23.5996 251.729 22.9999 251.729H17.0544Z" fill="#1B3C87"/>
<path fill-rule="evenodd" clip-rule="evenodd" d="M474.489 254.278C474.489 253.681 474.975 253.197 475.575 253.197H508.606C509.205 253.197 509.691 253.681 509.691 254.278C509.691 254.875 509.205 255.36 508.606 255.36H475.575C474.975 255.36 474.489 254.875 474.489 254.278Z" fill="#1B3C87"/>
<path fill-rule="evenodd" clip-rule="evenodd" d="M524.16 284.9C524.751 285.003 525.147 285.562 525.045 286.151L506.307 393.693C506.205 394.281 505.643 394.676 505.052 394.574C504.461 394.471 504.065 393.912 504.168 393.323L522.905 285.781C523.007 285.193 523.57 284.798 524.16 284.9Z" fill="#1B3C87"/>
<path fill-rule="evenodd" clip-rule="evenodd" d="M262.872 123.535C262.872 122.938 263.359 122.454 263.958 122.454H272.402C273.002 122.454 273.488 122.938 273.488 123.535V158.651C273.488 159.248 273.002 159.732 272.402 159.732H213.97L192.928 181.14C192.619 181.455 192.15 181.551 191.741 181.385C191.332 181.219 191.065 180.822 191.066 180.382L191.082 170.096C191.082 169.498 191.569 169.015 192.169 169.016C192.769 169.017 193.254 169.502 193.253 170.099L193.242 177.729L212.738 157.895C212.942 157.687 213.222 157.57 213.514 157.57H271.316V124.616H263.958C263.359 124.616 262.872 124.132 262.872 123.535Z" fill="#1B3C87"/>
<path fill-rule="evenodd" clip-rule="evenodd" d="M191.097 123.535C191.097 122.938 191.583 122.454 192.183 122.454H245.392C245.992 122.454 246.478 122.938 246.478 123.535C246.478 124.132 245.992 124.616 245.392 124.616H193.269V152.753C193.269 153.35 192.783 153.834 192.183 153.834C191.583 153.834 191.097 153.35 191.097 152.753V123.535Z" fill="#1B3C87"/>
<path fill-rule="evenodd" clip-rule="evenodd" d="M200.414 134.172C200.414 133.575 200.9 133.091 201.499 133.091H259.73C260.33 133.091 260.816 133.575 260.816 134.172C260.816 134.769 260.33 135.254 259.73 135.254H201.499C200.9 135.254 200.414 134.769 200.414 134.172Z" fill="#1B3C87"/>
<path fill-rule="evenodd" clip-rule="evenodd" d="M200.414 147.876C200.414 147.279 200.9 146.795 201.499 146.795H221.827C222.427 146.795 222.913 147.279 222.913 147.876C222.913 148.474 222.427 148.958 221.827 148.958H201.499C200.9 148.958 200.414 148.474 200.414 147.876Z" fill="#1B3C87"/>
<path fill-rule="evenodd" clip-rule="evenodd" d="M360.906 76.6199C360.906 76.0227 361.392 75.5385 361.992 75.5385H373.084C373.684 75.5385 374.17 76.0227 374.17 76.6199V111.737L374.202 133.468C374.203 133.908 373.936 134.304 373.527 134.471C373.118 134.637 372.649 134.541 372.34 134.226L351.3 112.818H292.866C292.266 112.818 291.78 112.334 291.78 111.737V107.013C291.78 106.415 292.266 105.931 292.866 105.931C293.466 105.931 293.952 106.415 293.952 107.013V110.656H351.756C352.048 110.656 352.328 110.773 352.532 110.981L372.026 130.815L371.998 111.738V77.7013H361.992C361.392 77.7013 360.906 77.2171 360.906 76.6199Z" fill="#1B3C87"/>
<path fill-rule="evenodd" clip-rule="evenodd" d="M291.78 76.6199C291.78 76.0227 292.266 75.5385 292.866 75.5385H337.27C337.869 75.5385 338.355 76.0227 338.355 76.6199C338.355 77.2171 337.869 77.7013 337.27 77.7013H293.952V93.4408C293.952 94.0381 293.466 94.5222 292.866 94.5222C292.266 94.5222 291.78 94.0381 291.78 93.4408V76.6199Z" fill="#1B3C87"/>
<path fill-rule="evenodd" clip-rule="evenodd" d="M304.456 87.2571C304.456 86.6599 304.942 86.1757 305.541 86.1757H363.769C364.369 86.1757 364.855 86.6599 364.855 87.2571C364.855 87.8543 364.369 88.3385 363.769 88.3385H305.541C304.942 88.3385 304.456 87.8543 304.456 87.2571Z" fill="#1B3C87"/>
<path fill-rule="evenodd" clip-rule="evenodd" d="M304.823 100.961C304.823 100.364 305.309 99.8798 305.909 99.8798H326.237C326.837 99.8798 327.323 100.364 327.323 100.961C327.323 101.558 326.837 102.043 326.237 102.043H305.909C305.309 102.043 304.823 101.558 304.823 100.961Z" fill="#1B3C87"/>
<path d="M43.7496 310.858L43.8095 311.012C41.7411 315.629 23.2044 367.889 24.0192 372.22C24.8384 376.579 29.1829 384.263 32.3781 386.04C33.8384 386.854 48.465 389.972 65.9106 393.703H171.124C168.974 388.253 159.993 383.758 151.683 383.742C148.864 383.649 144.453 383.841 141.25 387.487C109.553 372.919 74.047 364.592 63.7249 361.915L62.5956 359.004C66.0279 352.466 76.3752 333.548 77.8199 330.601C72.3209 327.818 44.1283 311.084 43.8834 310.935L43.8651 310.883C43.8651 310.889 43.8538 310.907 43.8512 310.914L43.7496 310.858Z" fill="white"/>
<path fill-rule="evenodd" clip-rule="evenodd" d="M28.1884 349.077C28.7601 349.258 29.0764 349.866 28.895 350.435C27.333 355.336 25.982 359.791 25.0602 363.213C24.5989 364.926 24.2493 366.364 24.0342 367.463C23.9266 368.014 23.8558 368.463 23.8202 368.811C23.8025 368.984 23.7946 369.122 23.7939 369.227C23.7935 369.279 23.7949 369.32 23.797 369.349C23.7981 369.364 23.7992 369.375 23.8001 369.382C23.801 369.39 23.8016 369.393 23.8016 369.393L23.8019 369.394C24.1791 371.401 25.4026 374.289 26.9576 376.921C27.7288 378.227 28.5635 379.439 29.3864 380.422C30.2224 381.421 30.992 382.118 31.6202 382.467C31.6216 382.468 31.6292 382.472 31.6446 382.479C31.6629 382.488 31.6883 382.499 31.7218 382.512C31.7894 382.54 31.8792 382.573 31.9937 382.613C32.2232 382.691 32.5273 382.786 32.9071 382.895C33.6658 383.112 34.6901 383.379 35.9519 383.69C38.4734 384.311 41.9065 385.098 45.9822 386.004C52.6726 387.492 61.0731 389.297 69.9757 391.21C71.9183 391.628 73.8848 392.051 75.8626 392.476C76.4488 392.602 76.8213 393.178 76.6947 393.761C76.568 394.345 75.9902 394.716 75.404 394.59C73.4278 394.165 71.4625 393.743 69.5205 393.325C60.6179 391.412 52.2075 389.605 45.5088 388.115C41.4294 387.208 37.9769 386.416 35.4306 385.789C34.1585 385.476 33.1034 385.202 32.3057 384.973C31.5597 384.759 30.9124 384.551 30.5612 384.356L30.5608 384.355C29.5915 383.816 28.6203 382.885 27.7182 381.807C26.8028 380.714 25.9017 379.4 25.0856 378.018C23.4663 375.276 22.1094 372.144 21.6673 369.793C21.5993 369.433 21.6175 369.003 21.6596 368.592C21.7043 368.154 21.7882 367.634 21.9025 367.05C22.1316 365.879 22.4958 364.386 22.9626 362.653C23.897 359.184 25.2595 354.692 26.8249 349.781C27.0063 349.211 27.6168 348.896 28.1884 349.077Z" fill="#1B3C87"/>
<path fill-rule="evenodd" clip-rule="evenodd" d="M42.8767 307.252C43.4214 307.502 43.6594 308.145 43.4083 308.687C42.6236 310.383 38.6755 321.279 34.5026 333.516C34.3098 334.081 33.6931 334.384 33.1252 334.192C32.5573 334 32.2533 333.386 32.4462 332.821C36.599 320.643 40.591 309.607 41.436 307.782C41.687 307.239 42.3321 307.002 42.8767 307.252Z" fill="#1B3C87"/>
<path fill-rule="evenodd" clip-rule="evenodd" d="M77.3568 326.877C77.8679 327.19 78.0277 327.856 77.7138 328.365C76.6669 330.062 72.6779 337.426 68.8816 344.552C66.9894 348.104 65.1538 351.58 63.77 354.236C63.0778 355.564 62.5001 356.684 62.0853 357.505C62.0313 357.612 61.9802 357.713 61.9321 357.809C62.9662 358.083 64.3514 358.433 66.042 358.86C79.2793 362.206 111.239 370.286 139.965 383.381C143.445 379.926 147.95 379.774 150.673 379.863C155.631 379.875 160.797 381.154 164.759 383.444C168.707 385.726 171.664 389.15 171.664 393.488C171.664 394.085 171.178 394.569 170.578 394.569C169.978 394.569 169.492 394.085 169.492 393.488C169.492 390.243 167.284 387.404 163.669 385.314C160.072 383.236 155.283 382.034 150.652 382.026C150.64 382.026 150.629 382.025 150.618 382.025C147.849 381.933 143.897 382.148 141.039 385.4C140.722 385.761 140.204 385.871 139.767 385.67C111.095 372.492 79.0468 364.383 65.5929 360.979C63.0408 360.334 61.1578 359.857 60.0938 359.548C59.8129 359.466 59.5771 359.275 59.4397 359.017C59.3023 358.76 59.2749 358.458 59.3639 358.181C59.414 358.025 59.5289 357.781 59.6376 357.555C59.7635 357.294 59.9354 356.948 60.1455 356.532C60.5662 355.7 61.1486 354.571 61.8423 353.24C63.2301 350.577 65.069 347.094 66.9631 343.538C70.7394 336.45 74.7705 329.004 75.8632 327.233C76.1771 326.724 76.8458 326.565 77.3568 326.877Z" fill="#1B3C87"/>
<path d="M92.2488 264.001C115.91 277.778 91.1125 330.191 84.71 331.858C72.1284 332.723 43.1549 314.633 40.3663 307.311C37.5778 299.989 68.902 250.405 92.2488 264.001Z" fill="#46DBC9"/>
<path fill-rule="evenodd" clip-rule="evenodd" d="M48.1135 283.012C48.6086 283.348 48.7358 284.021 48.3974 284.514C45.3933 288.893 43.0238 293.133 41.5367 296.586C40.7922 298.314 40.2808 299.819 40.0157 301.028C39.7397 302.287 39.7722 303.047 39.9098 303.409L39.9098 303.409C40.1867 304.136 40.8375 305.1 41.89 306.26C42.9273 307.402 44.2946 308.67 45.9209 310.004C49.1723 312.673 53.3987 315.561 57.9415 318.203C62.4843 320.845 67.3163 323.224 71.7745 324.887C76.199 326.536 80.1404 327.435 83.0372 327.269C83.2248 327.195 83.5619 326.988 84.0473 326.524C84.5778 326.018 85.1937 325.296 85.8733 324.367C87.2302 322.513 88.777 319.924 90.3365 316.819C93.4548 310.61 96.5744 302.439 98.3144 294.165C98.4373 293.581 99.0128 293.206 99.5998 293.328C100.187 293.451 100.563 294.024 100.44 294.608C98.6565 303.089 95.4683 311.436 92.2789 317.786C90.6845 320.961 89.0774 323.661 87.6285 325.641C86.9051 326.629 86.2051 327.46 85.5501 328.086C84.9224 328.685 84.2295 329.2 83.513 329.386C83.4475 329.403 83.3805 329.414 83.313 329.419C79.9301 329.652 75.5821 328.616 71.013 326.912C66.4129 325.197 61.4682 322.758 56.8463 320.07C52.2245 317.383 47.8983 314.43 44.5397 311.673C42.861 310.296 41.409 308.955 40.2789 307.71C39.164 306.482 38.2994 305.279 37.8792 304.176M48.1135 283.012C47.6183 282.675 46.9426 282.801 46.6043 283.294L48.1135 283.012ZM46.6043 283.294C43.5396 287.761 41.0951 292.124 39.5407 295.733L46.6043 283.294ZM39.5407 295.733C38.7645 297.535 38.1985 299.177 37.8939 300.566L39.5407 295.733ZM37.8939 300.566C37.6002 301.906 37.5059 303.196 37.8791 304.176L37.8939 300.566Z" fill="#1B3C87"/>
<path fill-rule="evenodd" clip-rule="evenodd" d="M90.2319 261.413C81.7131 256.456 71.8545 260.422 62.8338 268.135C62.3788 268.524 61.6933 268.472 61.3026 268.019C60.9119 267.566 60.964 266.883 61.4191 266.494C70.5614 258.677 81.5049 253.829 91.3281 259.546L91.3285 259.547C95.1962 261.8 97.8417 265.032 99.5136 268.858C99.7529 269.405 99.5011 270.042 98.9512 270.281C98.4013 270.519 97.7615 270.268 97.5222 269.721C96.0145 266.271 93.6615 263.411 90.2319 261.413Z" fill="#1B3C87"/>
<path d="M106.183 260.098C109.628 250.772 109.095 219.42 108.754 216.318C108.342 212.575 105.512 185.582 112.308 179.879C119.104 174.176 129.549 167.786 135.716 168.224C141.882 168.663 160.233 187.051 160.233 209.316C160.233 231.581 139.905 242.217 135.136 242.363C134.485 247.307 134.535 260.54 134.535 265.334C132.58 267.202 111.18 266.574 106.183 260.098Z" fill="white"/>
<path d="M109.575 196.801C106.389 196.607 103.915 199.469 101.255 202.2C98.8723 184.631 107.185 153.736 119.113 151.622C121.164 151.703 121.422 154.409 120.823 156.79C128.305 149.994 142.359 146.218 148.325 146.168C156.056 146.168 158.789 152.24 158.789 154.324C158.789 159.601 155.315 167.485 154.037 169.527C156.082 168.444 157.72 168.049 159.3 168.049C163.277 168.049 164.252 174.191 164.252 176.021C164.252 182.409 157.459 188.911 154.088 188.911C152.508 188.911 148.14 186.461 146.816 184.632C147.282 185.99 147.8 186.371 147.819 188.458C147.834 190.18 145.32 191.126 143.823 191.126C139.86 191.126 132.003 183.427 124.816 183.427C122.424 183.427 119.406 186.839 119.406 188.763C119.406 190.687 120.416 199.77 119.808 200.086C117.953 201.542 117.092 197.211 109.725 196.741" fill="#EECB55"/>
<path fill-rule="evenodd" clip-rule="evenodd" d="M155.045 219.433C155.601 219.657 155.87 220.287 155.645 220.841C150.938 232.429 141.226 240.567 129.83 240.567C124.071 240.567 118.723 238.476 114.245 234.915C113.777 234.543 113.7 233.862 114.074 233.396C114.448 232.929 115.132 232.853 115.6 233.225C119.74 236.516 124.619 238.405 129.83 238.405C140.098 238.405 149.155 231.051 153.631 220.03C153.856 219.476 154.489 219.209 155.045 219.433Z" fill="#1B3C87"/>
<path fill-rule="evenodd" clip-rule="evenodd" d="M153.102 185.724C153.637 185.454 154.291 185.668 154.561 186.201C157.385 191.756 158.722 197.706 158.722 204.709M153.102 185.724C152.567 185.994 152.353 186.644 152.624 187.177L153.102 185.724ZM152.624 187.177C155.275 192.394 156.55 198.003 156.55 204.709L152.624 187.177ZM156.296 209.381C156.466 207.829 156.551 206.27 156.55 204.709V204.709M158.722 204.709C158.723 206.348 158.634 207.986 158.455 209.615C158.39 210.209 157.854 210.638 157.258 210.573C156.662 210.508 156.231 209.975 156.296 209.381" fill="#1B3C87"/>
<path fill-rule="evenodd" clip-rule="evenodd" d="M132.84 238.423C133.424 238.562 133.784 239.145 133.645 239.726C133.483 240.404 133.336 241.799 133.219 243.684C133.103 245.539 133.022 247.786 132.973 250.114C132.875 254.778 132.908 259.72 133.056 262.438C133.088 263.035 132.629 263.544 132.03 263.576C131.431 263.609 130.919 263.151 130.887 262.555C130.735 259.758 130.703 254.755 130.802 250.069C130.851 247.723 130.933 245.444 131.051 243.551C131.167 241.688 131.321 240.112 131.532 239.225C131.671 238.644 132.257 238.285 132.84 238.423Z" fill="#1B3C87"/>
<path fill-rule="evenodd" clip-rule="evenodd" d="M106.224 241.556C106.822 241.601 107.269 242.121 107.224 242.717C106.811 248.063 106.137 253.169 105.053 256.89C106.047 257.817 107.698 258.721 109.852 259.514C112.286 260.411 115.223 261.117 118.239 261.569C118.832 261.658 119.24 262.209 119.151 262.799C119.062 263.39 118.509 263.797 117.915 263.708C114.788 263.239 111.702 262.502 109.099 261.543C106.533 260.597 104.29 259.384 103.004 257.882C102.761 257.598 102.682 257.21 102.795 256.854C103.91 253.343 104.625 248.172 105.058 242.551C105.104 241.956 105.626 241.51 106.224 241.556Z" fill="#1B3C87"/>
<path fill-rule="evenodd" clip-rule="evenodd" d="M105.902 212.796C106.489 212.674 107.065 213.049 107.188 213.633C107.38 214.548 107.549 216.917 107.655 220.031C107.763 223.191 107.809 227.224 107.732 231.539C107.721 232.136 107.226 232.611 106.626 232.601C106.027 232.59 105.549 232.097 105.56 231.5C105.637 227.222 105.591 223.227 105.485 220.105C105.376 216.937 105.208 214.771 105.062 214.076C104.939 213.492 105.315 212.919 105.902 212.796Z" fill="#1B3C87"/>
<path d="M125.891 197.884C125.891 196.221 126.609 194.871 127.496 194.871C128.383 194.871 129.101 196.221 129.101 197.884C129.101 199.548 128.382 200.897 127.496 200.897C126.61 200.897 125.891 199.549 125.891 197.884Z" fill="#1B3C87"/>
<path d="M148.725 199.089C148.725 197.426 149.444 196.077 150.33 196.077C151.216 196.077 151.935 197.426 151.935 199.089C151.935 200.753 151.217 202.102 150.33 202.102C149.443 202.102 148.725 200.754 148.725 199.089Z" fill="#1B3C87"/>
<path fill-rule="evenodd" clip-rule="evenodd" d="M142.14 204.773C142.734 204.69 143.284 205.102 143.367 205.693C143.532 206.856 144.115 208.509 144.968 210.096C145.827 211.695 146.877 213.07 147.883 213.79C148.37 214.138 148.481 214.814 148.131 215.299C147.781 215.784 147.102 215.895 146.615 215.546C145.218 214.546 143.978 212.837 143.053 211.117C142.123 209.386 141.428 207.487 141.217 205.995C141.133 205.404 141.547 204.857 142.14 204.773Z" fill="#1B3C87"/>
<path fill-rule="evenodd" clip-rule="evenodd" d="M132.547 215.078C133.076 214.824 133.711 215.035 133.981 215.555C134.142 215.863 134.531 216.305 135.166 216.829C135.778 217.334 136.536 217.85 137.329 218.321C138.121 218.791 138.927 219.205 139.624 219.511C140.351 219.831 140.872 219.994 141.125 220.028C141.719 220.109 142.135 220.654 142.054 221.246C141.973 221.838 141.426 222.252 140.832 222.171C140.259 222.094 139.504 221.822 138.747 221.49C137.962 221.145 137.078 220.69 136.217 220.178C135.357 219.668 134.501 219.09 133.78 218.494C133.489 218.254 133.204 217.998 132.944 217.731C132.899 217.823 132.853 217.925 132.808 218.039C132.558 218.672 132.4 219.482 132.404 220.3C132.412 222.009 133.068 223.246 134.337 223.569C134.918 223.716 135.269 224.305 135.121 224.884C134.972 225.463 134.381 225.812 133.8 225.664C131.089 224.976 130.242 222.398 130.232 220.311C130.227 219.232 130.43 218.148 130.788 217.246C131.125 216.394 131.686 215.49 132.547 215.078Z" fill="#1B3C87"/>
<path d="M123.049 180.385C127.195 180.385 130.833 182.521 133.927 184.444C134.162 184.59 134.393 184.734 134.621 184.876L134.621 184.877L134.622 184.877C135.937 185.699 137.149 186.457 138.324 187.038C139.7 187.719 140.897 188.091 141.988 188.061C142.893 188.035 143.603 187.756 144.061 187.415C144.543 187.057 144.653 186.717 144.653 186.571C144.653 186.217 144.558 185.886 144.24 185.187C144.159 185.009 144.064 184.808 143.956 184.581L143.956 184.581L143.956 184.581C143.656 183.947 143.262 183.115 142.813 182.019C142.618 181.542 142.787 180.994 143.217 180.709C143.648 180.424 144.221 180.481 144.586 180.845L144.588 180.847L144.598 180.857L144.64 180.898C144.677 180.934 144.733 180.988 144.806 181.058C144.952 181.198 145.166 181.399 145.434 181.641C145.969 182.127 146.713 182.772 147.55 183.414C148.39 184.059 149.302 184.684 150.175 185.143C151.065 185.611 151.801 185.845 152.328 185.849C152.642 185.839 152.952 185.778 153.247 185.668C153.808 185.457 154.434 185.739 154.646 186.298C154.857 186.857 154.574 187.48 154.013 187.691C153.487 187.889 152.931 187.997 152.369 188.011C152.36 188.012 152.351 188.012 152.341 188.012C151.279 188.012 150.159 187.58 149.16 187.055C148.303 186.604 147.447 186.036 146.667 185.46C146.578 185.141 146.456 184.832 146.317 184.515C146.46 185.221 146.174 187.287 145.887 188.032C145.623 188.719 143.997 189.217 143.217 189.38C141.605 189.426 138.878 188.775 137.376 188.032C136.096 187.398 133.37 186.034 133.37 186.034C133.37 186.034 131.097 184.83 129.365 184.037C127.061 182.983 126.492 182.548 123.049 182.548C122.775 182.548 122.328 182.65 121.768 182.915C121.225 183.173 120.642 183.553 120.11 184.028C119.02 184.999 118.292 186.219 118.292 187.422C118.292 188.464 118.46 190.538 118.636 192.605L118.686 193.198L118.686 193.198C118.84 194.998 118.987 196.721 118.987 197.457C118.987 197.983 118.829 198.478 118.497 198.895C118.18 199.294 117.756 199.555 117.326 199.735C116.773 199.966 116.136 199.707 115.904 199.156C115.672 198.606 115.932 197.972 116.485 197.741C116.703 197.65 116.777 197.574 116.796 197.551C116.803 197.541 116.805 197.537 116.807 197.532C116.809 197.526 116.815 197.504 116.815 197.457C116.815 196.82 116.676 195.188 116.517 193.32L116.472 192.787C116.3 190.765 116.12 188.579 116.12 187.422C116.12 185.366 117.325 183.607 118.662 182.416C119.688 181.687 122.002 180.259 123.049 180.385Z" fill="#1B3C87"/>
<path fill-rule="evenodd" clip-rule="evenodd" d="M146.041 143.409L146.044 143.409C152.294 143.409 157.754 147.63 157.754 152.858C157.754 155.263 156.875 158.694 155.759 161.726C155.236 163.146 154.649 164.512 154.05 165.685C154.964 165.376 155.809 165.226 156.966 165.226C158.245 165.226 159.325 165.567 160.205 166.187C161.075 166.8 161.686 167.64 162.113 168.544C162.953 170.323 163.154 172.503 163.154 174.257C163.154 177.547 161.769 180.58 159.984 182.919C158.211 185.242 155.942 187.015 153.993 187.698C153.427 187.896 152.807 187.6 152.608 187.037C152.409 186.473 152.706 185.856 153.272 185.658C154.707 185.155 156.655 183.707 158.254 181.611C159.841 179.531 160.982 176.947 160.982 174.257C160.982 172.603 160.782 170.808 160.148 169.465C159.837 168.807 159.441 168.298 158.951 167.953C158.471 167.615 157.838 167.389 156.966 167.389C155.369 167.389 154.719 167.681 152.36 168.741C152.122 168.849 151.866 168.964 151.59 169.087C151.107 169.303 150.538 169.14 150.243 168.702C149.948 168.264 150.014 167.677 150.399 167.315C150.819 166.92 151.374 166.115 151.984 164.956C152.579 163.825 153.181 162.444 153.72 160.981C154.81 158.021 155.582 154.877 155.582 152.858C155.582 149.24 151.56 145.572 146.046 145.572C144.878 145.576 143.712 145.656 142.554 145.813C141.96 145.894 141.413 145.48 141.332 144.888C141.251 144.296 141.667 143.751 142.261 143.67C143.514 143.501 144.776 143.413 146.041 143.409Z" fill="#1B3C87"/>
<path fill-rule="evenodd" clip-rule="evenodd" d="M134.033 146.84C134.248 147.398 133.968 148.023 133.408 148.237C129.972 149.55 126.826 151.163 124.36 152.631C121.866 154.116 120.147 155.407 119.511 156.056C119.186 156.388 118.685 156.477 118.265 156.277C117.845 156.077 117.6 155.633 117.655 155.173C117.679 154.976 117.721 154.741 117.76 154.518L117.767 154.481C117.811 154.234 117.856 153.973 117.895 153.7C117.973 153.144 118.011 152.596 117.95 152.12C117.89 151.648 117.745 151.346 117.547 151.158C117.36 150.981 116.982 150.77 116.161 150.77C115.964 150.77 115.511 150.892 114.793 151.379C114.107 151.844 113.289 152.568 112.391 153.565C110.597 155.556 108.553 158.558 106.654 162.525C106.396 163.064 105.748 163.293 105.207 163.036C104.665 162.779 104.436 162.133 104.694 161.594C106.665 157.477 108.817 154.294 110.774 152.121C111.752 151.036 112.699 150.182 113.571 149.591C114.411 149.021 115.309 148.607 116.161 148.607C117.365 148.607 118.341 148.927 119.042 149.59C119.731 150.241 120.007 151.087 120.104 151.848C120.144 152.158 120.156 152.47 120.15 152.773C121.018 152.159 122.066 151.478 123.246 150.775C125.802 149.253 129.06 147.582 132.63 146.218C133.19 146.004 133.818 146.282 134.033 146.84Z" fill="#1B3C87"/>
<path fill-rule="evenodd" clip-rule="evenodd" d="M102.91 168.891C103.482 169.072 103.799 169.679 103.618 170.249C101.791 176 100.451 182.943 100.174 190.993C100.154 191.59 99.651 192.057 99.0516 192.036C98.4522 192.016 97.983 191.515 98.0036 190.919C98.2876 182.673 99.6613 175.534 101.548 169.596C101.728 169.027 102.339 168.711 102.91 168.891Z" fill="#1B3C87"/>
<path d="M111.42 214.81C109.663 215.092 107.863 214.886 106.216 214.215C104.57 213.544 103.141 212.434 102.087 211.007C101.034 209.579 100.396 207.89 100.244 206.125C100.092 204.36 100.432 202.587 101.226 201.002C102.021 199.417 103.239 198.081 104.747 197.14C106.255 196.2 107.994 195.692 109.773 195.673C111.552 195.653 113.301 196.123 114.83 197.03C116.358 197.937 117.605 199.246 118.435 200.813" fill="white"/>
<path fill-rule="evenodd" clip-rule="evenodd" d="M113.16 197.035C111.803 196.23 110.249 195.813 108.67 195.83C107.091 195.847 105.547 196.298 104.209 197.133C102.87 197.968 101.789 199.154 101.084 200.561C100.378 201.968 100.077 203.542 100.211 205.109C100.346 206.676 100.913 208.175 101.848 209.442C102.783 210.709 104.052 211.695 105.513 212.291C106.975 212.886 108.573 213.069 110.132 212.818C110.725 212.723 111.282 213.124 111.377 213.714C111.473 214.303 111.071 214.858 110.478 214.953C108.525 215.267 106.522 215.039 104.691 214.292C102.859 213.546 101.27 212.311 100.098 210.723C98.9261 209.136 98.2166 207.257 98.0476 205.293C97.8786 203.33 98.2568 201.358 99.1404 199.595C100.024 197.832 101.379 196.346 103.056 195.3C104.733 194.254 106.668 193.689 108.646 193.668C110.625 193.646 112.571 194.168 114.271 195.177C115.971 196.186 117.359 197.642 118.281 199.385C118.561 199.914 118.357 200.568 117.827 200.846C117.296 201.125 116.639 200.922 116.36 200.394C115.623 199.002 114.516 197.84 113.16 197.035Z" fill="#1B3C87"/>
<path d="M496.789 314.813C489.709 318.434 476.114 320.546 458.913 321.145C459.391 331.202 461.701 362.911 462.931 380.313C460.253 384.201 456.342 389.28 453.228 393.242H482.523C487.111 385.888 493.449 375.343 494.389 372.83C495.833 368.967 496.241 331.576 496.789 314.813Z" fill="white"/>
<path fill-rule="evenodd" clip-rule="evenodd" d="M495.393 310.505C495.993 310.522 496.465 311.019 496.448 311.616C496.438 311.986 496.42 312.663 496.395 313.599C496.265 318.48 495.948 330.387 495.545 342.172C495.305 349.193 495.034 356.177 494.754 361.612C494.614 364.328 494.472 366.664 494.329 368.427C494.257 369.308 494.185 370.055 494.112 370.639C494.044 371.187 493.964 371.689 493.853 372.011C493.542 372.925 492.726 374.54 491.693 376.428C490.643 378.348 489.321 380.635 487.947 382.936C485.209 387.521 482.223 392.227 480.753 394.196C480.395 394.675 479.714 394.775 479.233 394.418C478.752 394.062 478.652 393.384 479.01 392.905C480.406 391.036 483.34 386.419 486.08 381.83C487.446 379.544 488.753 377.282 489.786 375.394C490.836 373.474 491.556 372.023 491.797 371.315C491.825 371.233 491.885 370.947 491.957 370.371C492.025 369.832 492.094 369.12 492.164 368.253C492.304 366.521 492.446 364.209 492.586 361.501C492.865 356.086 493.135 349.116 493.375 342.098C493.777 330.324 494.094 318.432 494.224 313.545C494.249 312.607 494.267 311.927 494.277 311.555C494.294 310.958 494.794 310.488 495.393 310.505Z" fill="#1B3C87"/>
<path d="M465.636 253.529C489.413 248.359 505.735 305.906 502.256 310.744C498.777 315.583 455.924 322.603 452.098 319.135C448.272 315.668 445.724 257.859 465.636 253.529Z" fill="#DB468E"/>
<path fill-rule="evenodd" clip-rule="evenodd" d="M449.031 275.759C449.623 275.856 450.024 276.412 449.927 277.001C448.485 285.745 448.209 295.27 448.574 302.86C448.756 306.654 449.098 309.942 449.527 312.391C449.742 313.618 449.975 314.61 450.212 315.341C450.331 315.706 450.444 315.986 450.546 316.188C450.655 316.403 450.722 316.471 450.722 316.471C450.759 316.504 450.913 316.607 451.294 316.719C451.657 316.826 452.142 316.916 452.754 316.984C453.977 317.119 455.595 317.15 457.517 317.084C461.353 316.953 466.278 316.442 471.42 315.687C472.013 315.6 472.565 316.008 472.652 316.599C472.74 317.19 472.33 317.739 471.736 317.826C466.549 318.588 461.538 319.11 457.591 319.245C455.622 319.313 453.887 319.285 452.515 319.134C451.83 319.058 451.208 318.949 450.68 318.794C450.172 318.644 449.652 318.425 449.26 318.07L449.26 318.07C448.98 317.816 448.77 317.483 448.607 317.162C448.438 316.828 448.285 316.437 448.145 316.006C447.866 315.143 447.612 314.043 447.388 312.763C446.938 310.199 446.59 306.816 446.405 302.963C446.034 295.257 446.312 285.576 447.783 276.651C447.881 276.062 448.439 275.662 449.031 275.759Z" fill="#1B3C87"/>
<path fill-rule="evenodd" clip-rule="evenodd" d="M466.346 251.296C466.384 250.7 466.9 250.247 467.499 250.285C473.338 250.656 478.542 254.398 482.958 259.589C487.392 264.801 491.164 271.624 494.131 278.496C497.101 285.375 499.287 292.357 500.525 297.924C501.144 300.704 501.532 303.157 501.658 305.082C501.721 306.042 501.72 306.899 501.641 307.614C501.565 308.292 501.405 308.99 501.033 309.508C500.664 310.022 500.087 310.457 499.457 310.832C498.806 311.22 498.004 311.599 497.093 311.969C495.268 312.708 492.912 313.445 490.248 314.15C489.669 314.303 489.074 313.96 488.92 313.383C488.766 312.805 489.111 312.213 489.691 312.06C492.312 311.366 494.569 310.656 496.274 309.965C497.127 309.62 497.82 309.288 498.342 308.976C498.884 308.653 499.157 308.402 499.266 308.25L499.267 308.25C499.305 308.196 499.418 307.956 499.482 307.376C499.542 306.832 499.549 306.112 499.491 305.222C499.375 303.446 499.01 301.11 498.405 298.391C497.196 292.96 495.053 286.107 492.136 279.35C489.216 272.587 485.544 265.975 481.301 260.987C477.042 255.98 472.337 252.76 467.361 252.444C466.762 252.406 466.308 251.892 466.346 251.296Z" fill="#1B3C87"/>
<path d="M470.694 201.741C476.801 195.714 480.105 182.614 480.105 175.451C480.105 160.725 471.407 154.68 469.78 154.68C468.153 154.68 466.443 158.088 466.704 160.471C465.235 158.442 452.344 145.886 429.11 145.886C422.673 145.886 418.051 148.991 418.051 154.096C418.051 156.418 419.131 160.042 421.005 161.288C419.099 161.429 416.4 162.785 416.4 166.554C416.4 170.858 422.201 172.895 424.503 172.895C426.805 172.895 430.217 170.517 431.866 168.28C432.379 170.743 430.831 174.757 436.217 174.792C438.491 174.807 448.071 169.979 449.863 168.365C448.043 171.48 445.542 172.91 445.542 176.434C445.542 179.731 447.162 182.04 449.664 182.04C452.166 182.04 459.386 178.643 460.723 177.109C461.007 179.346 458.503 194.955 459.257 199.21C461.771 199.398 464.857 196.21 464.897 198.824" fill="#E49D75"/>
<path fill-rule="evenodd" clip-rule="evenodd" d="M448.879 165.609C449.295 165.945 449.403 166.532 449.134 166.993C448.644 167.833 448.112 168.55 447.61 169.192C447.445 169.403 447.287 169.601 447.135 169.791C446.811 170.198 446.515 170.57 446.236 170.958C445.459 172.04 444.96 173.061 444.96 174.518C444.96 176.003 445.327 177.165 445.878 177.923C446.409 178.655 447.123 179.041 447.997 179.041C448.438 179.041 449.219 178.878 450.254 178.54C451.256 178.214 452.397 177.757 453.512 177.25C454.627 176.742 455.697 176.191 456.562 175.681C457.466 175.148 458.029 174.724 458.236 174.487C458.517 174.165 458.962 174.038 459.371 174.162C459.781 174.286 460.079 174.638 460.133 175.061C460.183 175.455 460.166 176.04 460.127 176.68C460.086 177.349 460.013 178.175 459.921 179.101C459.813 180.19 459.677 181.443 459.532 182.767C459.432 183.688 459.328 184.643 459.227 185.603C458.979 187.957 458.748 190.356 458.625 192.427C458.537 193.917 458.509 195.18 458.558 196.118C458.745 196.071 458.944 196.009 459.157 195.932C459.546 195.792 459.887 195.643 460.242 195.487C460.46 195.392 460.682 195.294 460.924 195.195C461.212 195.077 461.524 194.961 461.83 194.885C462.123 194.813 462.511 194.753 462.913 194.839C463.373 194.937 463.772 195.212 464.023 195.652C464.244 196.04 464.309 196.484 464.315 196.895C464.324 197.492 463.846 197.984 463.246 197.993C462.686 198.001 462.218 197.586 462.152 197.044C462.039 197.082 461.906 197.132 461.751 197.195C461.603 197.256 461.424 197.334 461.227 197.42C460.822 197.596 460.34 197.806 459.895 197.966C459.202 198.216 458.365 198.44 457.508 198.376C457.013 198.339 456.607 197.972 456.52 197.485C456.307 196.28 456.333 194.387 456.457 192.3C456.583 190.177 456.818 187.737 457.067 185.377C457.17 184.398 457.275 183.436 457.375 182.515C457.518 181.202 457.653 179.972 457.76 178.889C457.814 178.349 457.86 177.852 457.897 177.406C457.821 177.451 457.746 177.497 457.669 177.542C456.726 178.098 455.585 178.684 454.415 179.217C453.245 179.749 452.027 180.238 450.93 180.596C449.866 180.943 448.806 181.204 447.997 181.204C446.368 181.204 445.022 180.436 444.117 179.19C443.232 177.97 442.789 176.329 442.789 174.518C442.789 172.703 443.368 171.359 444.138 170.183C443.925 170.294 443.71 170.406 443.492 170.517C442.959 170.79 442.304 170.58 442.03 170.049C441.756 169.517 441.967 168.866 442.5 168.593C443.663 167.998 444.756 167.401 445.644 166.873C446.556 166.331 447.182 165.904 447.467 165.647C447.864 165.289 448.464 165.273 448.879 165.609Z" fill="#1B3C87"/>
<path fill-rule="evenodd" clip-rule="evenodd" d="M427.442 142.888C429.778 142.886 432.112 143.015 434.434 143.272C435.03 143.338 435.459 143.873 435.393 144.466C435.327 145.06 434.79 145.487 434.194 145.421C431.952 145.173 429.698 145.049 427.443 145.051H427.442C424.384 145.051 421.862 145.79 420.136 147.036C418.44 148.259 417.468 149.995 417.468 152.18C417.468 153.198 417.71 154.557 418.175 155.802C418.651 157.079 419.287 158.038 419.939 158.472C420.325 158.728 420.504 159.199 420.386 159.646C420.268 160.092 419.879 160.415 419.417 160.449C418.661 160.505 417.753 160.807 417.051 161.444C416.378 162.054 415.818 163.038 415.818 164.637C415.818 166.242 416.891 167.538 418.482 168.497C420.074 169.457 421.908 169.897 422.834 169.897C423.671 169.897 424.883 169.439 426.168 168.604C427.425 167.789 428.587 166.721 429.322 165.724C429.576 165.379 430.01 165.216 430.429 165.307C430.848 165.398 431.174 165.726 431.261 166.144C431.4 166.811 431.41 167.546 431.419 168.169L431.419 168.216C431.429 168.896 431.44 169.475 431.536 169.991C431.63 170.491 431.79 170.838 432.032 171.089C432.269 171.333 432.686 171.59 433.494 171.716C434.086 171.809 434.491 172.362 434.398 172.952C434.305 173.542 433.749 173.945 433.157 173.852C432.007 173.673 431.112 173.255 430.469 172.59C429.831 171.932 429.542 171.135 429.402 170.388C429.312 169.913 429.278 169.42 429.262 168.958C428.666 169.489 428.018 169.985 427.354 170.416C425.946 171.33 424.301 172.06 422.834 172.06C421.458 172.06 419.24 171.482 417.357 170.347C415.472 169.211 413.646 167.337 413.646 164.637C413.646 162.468 414.435 160.89 415.588 159.845C416.108 159.374 416.685 159.025 417.269 158.777C416.796 158.095 416.424 157.318 416.139 156.555C415.595 155.096 415.297 153.483 415.297 152.18C415.297 149.26 416.637 146.89 418.862 145.284C421.056 143.701 424.063 142.888 427.442 142.888M427.442 142.888C427.442 142.888 427.441 142.888 427.441 142.888L427.442 143.969V142.888" fill="#1B3C87"/>
<path fill-rule="evenodd" clip-rule="evenodd" d="M445.913 146.85C446.113 146.287 446.734 145.992 447.299 146.191C452.894 148.162 457.264 150.709 460.367 152.945C461.977 154.104 463.259 155.189 464.201 156.077C464.374 155.435 464.617 154.816 464.902 154.267C465.241 153.616 465.668 153.005 466.169 152.541C466.657 152.089 467.321 151.682 468.112 151.682C468.575 151.682 469.076 151.871 469.504 152.083C469.973 152.314 470.506 152.648 471.072 153.08C472.206 153.945 473.522 155.241 474.772 157.003C477.279 160.537 479.523 165.948 479.523 173.534C479.523 175.713 479.23 178.382 478.67 181.212C478.554 181.798 477.982 182.179 477.394 182.064C476.806 181.948 476.423 181.379 476.539 180.793C477.08 178.064 477.351 175.539 477.351 173.534C477.351 166.395 475.246 161.42 472.998 158.251C471.87 156.661 470.705 155.525 469.751 154.796C469.273 154.431 468.859 154.178 468.541 154.021C468.247 153.876 468.108 153.85 468.099 153.846C468.052 153.852 467.899 153.892 467.648 154.124C467.379 154.374 467.09 154.763 466.831 155.262C466.303 156.276 466.016 157.51 466.117 158.437C466.17 158.925 465.887 159.388 465.427 159.564C464.966 159.74 464.445 159.585 464.157 159.187C463.757 158.635 462.076 156.844 459.095 154.697C456.138 152.568 451.951 150.124 446.575 148.23C446.009 148.03 445.713 147.413 445.913 146.85Z" fill="#1B3C87"/>
<path fill-rule="evenodd" clip-rule="evenodd" d="M474.765 190.596C475.314 190.836 475.565 191.473 475.324 192.021C473.873 195.322 472.032 198.38 469.79 200.593C469.364 201.013 468.677 201.01 468.255 200.586C467.832 200.162 467.835 199.477 468.261 199.057C470.237 197.106 471.944 194.317 473.335 191.154C473.575 190.606 474.215 190.357 474.765 190.596Z" fill="#1B3C87"/>
<path fill-rule="evenodd" clip-rule="evenodd" d="M465.091 198.21C464.08 197.964 463.018 198.023 462.041 198.381C461.478 198.587 460.854 198.3 460.647 197.739C460.44 197.178 460.728 196.557 461.291 196.351C462.674 195.845 464.177 195.761 465.608 196.11C467.038 196.458 468.332 197.224 469.324 198.308C470.316 199.393 470.961 200.747 471.176 202.199C471.391 203.65 471.167 205.132 470.532 206.456C469.897 207.779 468.88 208.884 467.611 209.63C466.343 210.375 464.88 210.727 463.409 210.64C461.939 210.554 460.528 210.033 459.356 209.143C458.184 208.254 457.306 207.037 456.832 205.648C456.639 205.083 456.943 204.469 457.511 204.277C458.079 204.085 458.695 204.387 458.888 204.953C459.223 205.935 459.844 206.795 460.672 207.423C461.501 208.052 462.498 208.42 463.537 208.481C464.577 208.543 465.611 208.294 466.508 207.767C467.405 207.24 468.123 206.459 468.572 205.523C469.021 204.588 469.179 203.54 469.027 202.514C468.875 201.489 468.42 200.531 467.719 199.765C467.017 198.998 466.103 198.457 465.091 198.21Z" fill="#1B3C87"/>
<path fill-rule="evenodd" clip-rule="evenodd" d="M5.8335 393.529C5.8335 392.932 6.31967 392.447 6.91939 392.447H530.834C531.434 392.447 531.92 392.932 531.92 393.529C531.92 394.126 531.434 394.61 530.834 394.61H6.91939C6.31967 394.61 5.8335 394.126 5.8335 393.529Z" fill="#1B3C87"/>
</g>
<defs>
<clipPath id="clip0">
<rect width="531.733" height="456.352" fill="white" transform="translate(0.186523 0.797363)"/>
</clipPath>
</defs>
</svg>
