<svg viewBox="0 0 379 344" fill="none" xmlns="http://www.w3.org/2000/svg">
<path d="M294.214 77.4148C332.193 107.589 373.759 138.864 377.809 173.725C381.965 208.677 348.424 247.219 310.43 268.838C272.436 290.457 229.975 295.144 178.904 302.781C127.938 310.505 68.4591 321.267 34.0314 299.652C-0.396201 278.038 -9.84439 224.038 11.6357 189.556C33.1159 155.074 85.5818 140.152 120.033 109.887C154.485 79.7168 170.898 34.2771 196.333 26.1788C221.768 17.9933 256.22 47.245 294.214 77.4148Z" fill="#F2F2F2"/>
<path d="M347.342 13.7657H231.951V93.0784H347.342V13.7657Z" fill="#D7E0FF"/>
<path d="M328.039 28.6738H294.249V83.6696H328.039V28.6738Z" fill="#EAF0FF"/>
<path d="M283.124 40.7766C283.125 43.2789 282.308 45.7253 280.777 47.8063C279.247 49.8873 277.07 51.5093 274.524 52.4673C271.977 53.4253 269.175 53.6762 266.471 53.1883C263.768 52.7003 261.284 51.4954 259.335 49.726C257.386 47.9566 256.059 45.7021 255.521 43.2478C254.984 40.7935 255.26 38.2496 256.316 35.9379C257.371 33.6262 259.158 31.6506 261.45 30.2609C263.742 28.8712 266.437 28.1299 269.194 28.1308C272.888 28.1308 276.431 29.4631 279.044 31.8347C281.656 34.2062 283.124 37.4227 283.124 40.7766Z" fill="#FB5D64"/>
<path d="M348.735 175.808C348.735 181.928 346.736 187.911 342.99 193C339.245 198.089 333.921 202.055 327.692 204.397C321.464 206.739 314.61 207.352 307.998 206.158C301.385 204.964 295.312 202.017 290.544 197.689C285.777 193.361 282.531 187.848 281.216 181.845C279.9 175.842 280.575 169.621 283.155 163.966C285.735 158.312 290.104 153.479 295.71 150.079C301.316 146.679 307.906 144.864 314.648 144.864C323.688 144.864 332.359 148.124 338.751 153.927C345.144 159.73 348.735 167.601 348.735 175.808Z" fill="white"/>
<path fill-rule="evenodd" clip-rule="evenodd" d="M296.095 118.336C296.095 117.975 296.417 117.683 296.814 117.683H369.854C370.251 117.683 370.573 117.975 370.573 118.336V184.641C370.573 185.002 370.251 185.294 369.854 185.294H296.814C296.417 185.294 296.095 185.002 296.095 184.641V118.336ZM297.533 118.989V183.989H369.135V118.989H297.533Z" fill="#B2C3FB"/>
<path fill-rule="evenodd" clip-rule="evenodd" d="M176.172 343.192C176.172 342.748 176.568 342.389 177.057 342.389H358.293C358.782 342.389 359.178 342.748 359.178 343.192C359.178 343.635 358.782 343.994 358.293 343.994H177.057C176.568 343.994 176.172 343.635 176.172 343.192Z" fill="#1B3C87"/>
<path fill-rule="evenodd" clip-rule="evenodd" d="M0 343.192C0 342.748 0.395968 342.389 0.884419 342.389H134.429C134.918 342.389 135.314 342.748 135.314 343.192C135.314 343.635 134.918 343.994 134.429 343.994H0.884419C0.395968 343.994 0 343.635 0 343.192Z" fill="#1B3C87"/>
<path d="M209.296 119.522L208.553 122.768L203.568 124.178C203.568 124.178 201.099 117.19 200.759 115.61C198.362 117.233 184.547 120.749 182.165 121.063C181.834 119.378 181.834 104.783 195.237 104.783C207.043 104.783 212.336 115.519 212.647 116.776C211.957 117.142 209.292 118.038 209.292 119.522" fill="#EECB55"/>
<path d="M212.609 147.619C209.613 147.619 187.87 167.536 186.978 171.705L179.975 204.599L216.248 195.386L218.376 153.489L213.209 147.606L212.609 147.619Z" fill="#46DBC9"/>
<path d="M167.804 205.449C167.742 203.156 188.565 143.478 190.914 141.45C191.685 140.743 192.612 140.192 193.633 139.832C194.655 139.472 195.749 139.312 196.843 139.361C197.879 139.405 202.855 141.537 203.904 143.787C202.112 147.643 197.793 149.784 197.793 149.784L189.389 196.92L167.804 205.449Z" fill="white"/>
<path d="M193.18 241.24L223.274 275.057L208.678 288.377L164.5 253.316L174.95 240.261L193.18 241.24Z" fill="#3C3744"/>
<path d="M185.251 301.771C181.195 298.425 133.619 244.626 133.619 237.968C133.619 223.124 152.17 217.863 157.232 216.706C164.207 216.131 195.145 213.781 200.01 213.964C203.519 217.415 244.265 225.378 250.17 224.691C250.17 227.376 245.473 246.149 212.147 246.149C208.658 246.149 182.384 245.196 181.895 245.196C181.895 250.779 198.735 287.119 200.341 289.582" fill="#3C3744"/>
<path d="M228.367 137.889C255.34 137.889 261.179 182.063 261.179 194.6C261.179 210.583 254.036 223.355 250.633 224.552C240.993 227.916 205.607 216.898 203.363 211.68C192.424 186.266 210.429 137.889 228.386 137.889" fill="#46DBC9"/>
<path fill-rule="evenodd" clip-rule="evenodd" d="M204.681 107.112C205.007 106.782 205.566 106.755 205.93 107.051C208.249 108.943 210.164 111.206 211.581 113.727C211.825 114.158 212.052 114.589 212.263 115.021C212.462 115.426 212.261 115.9 211.814 116.08C211.368 116.26 210.845 116.078 210.647 115.673C210.449 115.269 210.236 114.865 210.007 114.46L210.006 114.458L210.006 114.458C208.688 112.112 206.905 110.006 204.747 108.246C204.384 107.949 204.354 107.442 204.681 107.112Z" fill="#1B3C87"/>
<path fill-rule="evenodd" clip-rule="evenodd" d="M188.194 105.212C190.518 104.146 193.158 103.787 195.724 104.187C196.206 104.262 196.663 103.969 196.746 103.532C196.829 103.095 196.505 102.68 196.024 102.605C193.083 102.146 190.057 102.558 187.393 103.78L187.393 103.78L187.388 103.783C179.116 107.646 177.077 118.328 182.241 127.436C182.465 127.83 182.998 127.985 183.432 127.782C183.867 127.58 184.037 127.095 183.814 126.701C178.902 118.039 181.129 108.513 188.194 105.212Z" fill="#1B3C87"/>
<path fill-rule="evenodd" clip-rule="evenodd" d="M188.476 133.525C188.786 133.182 189.343 133.132 189.721 133.413C194.706 137.125 200.79 138.211 205.623 135.953C206.898 135.354 208.042 134.548 208.997 133.574C209.321 133.243 209.88 133.213 210.245 133.508C210.61 133.803 210.643 134.31 210.318 134.642C209.219 135.762 207.903 136.691 206.435 137.38L206.433 137.381C200.797 140.014 193.958 138.645 188.599 134.655C188.221 134.374 188.166 133.868 188.476 133.525Z" fill="#1B3C87"/>
<path fill-rule="evenodd" clip-rule="evenodd" d="M213.407 116.439C212.795 116.184 212.118 116.084 211.448 116.151C210.778 116.219 210.141 116.45 209.605 116.821C209.069 117.192 208.654 117.689 208.405 118.257C208.225 118.669 207.711 118.871 207.257 118.707C206.803 118.543 206.581 118.077 206.761 117.664C207.129 116.825 207.741 116.092 208.532 115.544C209.324 114.996 210.264 114.655 211.253 114.555C212.242 114.456 213.243 114.603 214.147 114.981C215.051 115.358 215.825 115.952 216.385 116.699C216.945 117.445 217.272 118.316 217.328 119.218C217.385 120.12 217.17 121.019 216.707 121.818C216.243 122.618 215.549 123.287 214.698 123.756C213.847 124.224 212.872 124.474 211.877 124.477L211.868 124.477C211.038 124.473 210.22 124.295 209.478 123.957C209.042 123.758 208.865 123.276 209.084 122.879C209.303 122.483 209.834 122.323 210.271 122.522C210.769 122.748 211.318 122.868 211.875 122.872C212.547 122.868 213.206 122.7 213.781 122.383C214.357 122.066 214.828 121.612 215.141 121.07C215.455 120.529 215.601 119.92 215.562 119.309C215.524 118.698 215.303 118.109 214.923 117.603C214.544 117.097 214.02 116.695 213.407 116.439Z" fill="#1B3C87"/>
<path fill-rule="evenodd" clip-rule="evenodd" d="M204.675 136.422C205.005 136.096 205.565 136.075 205.924 136.375C207.593 137.768 209.02 140.238 210.094 142.528C211.184 144.851 211.973 147.128 212.318 148.251C212.449 148.678 212.175 149.121 211.704 149.24C211.234 149.36 210.746 149.11 210.614 148.683C210.284 147.609 209.52 145.401 208.467 143.157C207.398 140.878 206.093 138.697 204.727 137.557C204.368 137.257 204.344 136.749 204.675 136.422Z" fill="#1B3C87"/>
<path fill-rule="evenodd" clip-rule="evenodd" d="M213.636 123.952C214.104 123.825 214.596 124.068 214.735 124.493C214.93 125.087 215.568 126.179 216.531 127.577C217.473 128.945 218.67 130.527 219.906 132.071C221.143 133.615 222.412 135.111 223.498 136.306C224.61 137.53 225.464 138.364 225.887 138.654C226.131 138.822 226.262 139.092 226.234 139.368C226.183 139.882 225.89 140.401 225.55 140.864C225.194 141.348 224.714 141.865 224.16 142.388C223.05 143.436 221.58 144.57 220.039 145.599C219.646 145.862 219.092 145.785 218.803 145.428C218.513 145.071 218.598 144.568 218.991 144.305C220.475 143.315 221.862 142.241 222.884 141.275C223.396 140.792 223.801 140.35 224.079 139.972C224.198 139.81 224.283 139.674 224.344 139.562C223.749 139.05 222.972 138.251 222.134 137.328C221.021 136.103 219.729 134.58 218.476 133.016C217.223 131.452 216.001 129.837 215.031 128.428C214.081 127.048 213.313 125.783 213.04 124.95C212.901 124.525 213.167 124.078 213.636 123.952Z" fill="#1B3C87"/>
<path fill-rule="evenodd" clip-rule="evenodd" d="M207.766 117.185C208.244 117.275 208.551 117.7 208.452 118.134L207.709 121.385C207.644 121.671 207.412 121.902 207.105 121.988L203.352 123.046C202.885 123.177 202.39 122.941 202.245 122.517C202.1 122.094 202.361 121.644 202.828 121.512L206.083 120.595L206.72 117.808C206.819 117.374 207.287 117.095 207.766 117.185Z" fill="#1B3C87"/>
<path fill-rule="evenodd" clip-rule="evenodd" d="M199.37 113.303C199.653 113.404 199.86 113.629 199.918 113.899C200.15 114.99 201.502 118.939 202.242 121.068C202.389 121.491 202.13 121.942 201.664 122.076C201.198 122.209 200.702 121.974 200.555 121.551C199.985 119.913 198.987 117.011 198.471 115.278C198.054 115.463 197.579 115.651 197.071 115.838C195.992 116.237 194.679 116.664 193.274 117.089C192.811 117.229 192.31 117.002 192.155 116.581C192.001 116.161 192.251 115.706 192.715 115.566C194.1 115.146 195.374 114.732 196.404 114.351C197.461 113.961 198.182 113.635 198.523 113.406C198.768 113.242 199.087 113.203 199.37 113.303Z" fill="#1B3C87"/>
<path fill-rule="evenodd" clip-rule="evenodd" d="M187.837 117.784C187.971 118.21 187.699 118.655 187.229 118.776C184.237 119.552 181.565 120.165 180.576 120.296C180.092 120.36 179.643 120.056 179.573 119.617C179.502 119.179 179.837 118.771 180.32 118.707C181.171 118.594 183.725 118.015 186.744 117.232C187.213 117.111 187.703 117.358 187.837 117.784Z" fill="#1B3C87"/>
<path fill-rule="evenodd" clip-rule="evenodd" d="M198.335 180.719C198.82 180.77 199.168 181.168 199.112 181.609C197.837 191.654 198.482 201.54 201.766 209.206C201.947 209.627 202.556 210.254 203.743 211.039C204.89 211.797 206.447 212.619 208.317 213.466C208.754 213.664 208.931 214.146 208.713 214.543C208.495 214.94 207.964 215.101 207.527 214.903C205.61 214.035 203.958 213.167 202.702 212.337C201.486 211.533 200.498 210.674 200.118 209.789L200.118 209.789C196.691 201.789 196.061 191.614 197.355 181.425C197.411 180.984 197.85 180.668 198.335 180.719Z" fill="#1B3C87"/>
<path fill-rule="evenodd" clip-rule="evenodd" d="M254.83 166.44C255.304 166.332 255.784 166.594 255.903 167.024C258.73 177.317 259.663 187.369 259.663 192.419C259.663 200.517 257.855 207.803 255.61 213.226C254.488 215.937 253.249 218.198 252.059 219.872C251.465 220.708 250.873 221.411 250.302 221.953C249.743 222.483 249.153 222.91 248.551 223.12L248.55 223.121C246.063 223.99 242.191 223.958 237.854 223.425C233.467 222.887 228.438 221.812 223.53 220.468C223.062 220.34 222.798 219.892 222.939 219.467C223.08 219.043 223.573 218.803 224.041 218.931C228.888 220.258 233.822 221.31 238.091 221.834C242.408 222.364 245.881 222.332 247.914 221.622C248.164 221.535 248.541 221.302 249.024 220.843C249.495 220.395 250.02 219.78 250.573 219.001C251.68 217.445 252.865 215.291 253.954 212.661C256.131 207.403 257.894 200.309 257.894 192.419C257.894 187.495 256.977 177.573 254.186 167.413C254.068 166.983 254.356 166.547 254.83 166.44Z" fill="#1B3C87"/>
<path fill-rule="evenodd" clip-rule="evenodd" d="M225.963 134.909L225.97 134.909C233.401 134.909 239.272 138.133 243.848 143.025C244.164 143.363 244.119 143.87 243.747 144.157C243.374 144.444 242.816 144.403 242.5 144.065C238.171 139.436 232.759 136.516 225.973 136.515C224.855 136.523 223.748 136.717 222.706 137.086C222.251 137.248 221.738 137.044 221.56 136.631C221.383 136.218 221.607 135.752 222.062 135.591C223.306 135.15 224.628 134.919 225.963 134.909Z" fill="#1B3C87"/>
<path fill-rule="evenodd" clip-rule="evenodd" d="M211.26 145.829C211.677 146.06 211.809 146.554 211.555 146.932C208.646 151.261 206.263 155.863 204.446 160.657C204.287 161.076 203.783 161.299 203.322 161.155C202.86 161.011 202.614 160.554 202.773 160.135C204.632 155.231 207.07 150.524 210.045 146.096C210.299 145.717 210.843 145.598 211.26 145.829Z" fill="#1B3C87"/>
<path fill-rule="evenodd" clip-rule="evenodd" d="M194.398 137.988C193.428 137.944 192.458 138.086 191.552 138.405C190.646 138.724 189.825 139.213 189.141 139.839C189.137 139.844 189.132 139.848 189.128 139.852C189.132 139.848 189.135 139.845 189.135 139.845C189.136 139.846 189.094 139.893 189.008 140.029C188.916 140.175 188.802 140.379 188.666 140.644C188.395 141.171 188.057 141.899 187.662 142.807C187.483 143.22 186.969 143.422 186.515 143.259C186.06 143.096 185.838 142.629 186.017 142.217C186.418 141.297 186.77 140.535 187.064 139.965C187.21 139.68 187.346 139.433 187.471 139.234C187.581 139.059 187.722 138.854 187.889 138.705C188.747 137.92 189.777 137.308 190.912 136.908C192.05 136.507 193.268 136.329 194.486 136.384C194.731 136.394 195.009 136.458 195.262 136.529C195.534 136.606 195.846 136.712 196.179 136.84C196.846 137.096 197.635 137.454 198.422 137.883C199.208 138.311 200.011 138.82 200.696 139.381C201.371 139.935 201.984 140.582 202.318 141.298C202.508 141.706 202.298 142.178 201.848 142.351C201.398 142.524 200.879 142.333 200.689 141.924C200.498 141.515 200.095 141.053 199.51 140.572C198.934 140.1 198.231 139.651 197.512 139.26C196.795 138.869 196.08 138.545 195.49 138.319C195.195 138.205 194.94 138.12 194.738 138.063C194.637 138.034 194.555 138.015 194.492 138.002C194.434 137.991 194.406 137.988 194.402 137.988C194.401 137.988 194.401 137.988 194.401 137.988L194.398 137.988Z" fill="#1B3C87"/>
<path fill-rule="evenodd" clip-rule="evenodd" d="M183.117 151.791C183.578 151.935 183.823 152.392 183.664 152.812C180.13 162.106 175.646 174.635 172.115 184.882C171.969 185.306 171.473 185.541 171.007 185.409C170.541 185.277 170.281 184.826 170.427 184.403C173.961 174.146 178.451 161.601 181.992 152.288C182.151 151.868 182.655 151.646 183.117 151.791Z" fill="#1B3C87"/>
<path fill-rule="evenodd" clip-rule="evenodd" d="M167.537 195.701C168.006 195.826 168.274 196.273 168.136 196.698C167.545 198.52 167.075 200.027 166.754 201.129C166.594 201.68 166.472 202.125 166.391 202.454C166.35 202.619 166.321 202.749 166.303 202.845C166.287 202.934 166.284 202.969 166.283 202.969C166.283 202.969 166.283 202.967 166.283 202.964C166.283 203.407 165.887 203.767 165.399 203.767C164.911 203.767 164.515 203.407 164.515 202.964C164.515 202.749 164.585 202.426 164.664 202.104C164.753 201.746 164.881 201.279 165.044 200.718C165.372 199.595 165.846 198.073 166.439 196.244C166.577 195.819 167.069 195.576 167.537 195.701Z" fill="#1B3C87"/>
<path fill-rule="evenodd" clip-rule="evenodd" d="M194.371 140.995C194.448 140.557 194.901 140.258 195.384 140.328C195.765 140.383 196.202 140.535 196.624 140.716C197.061 140.904 197.541 141.15 198.022 141.432C198.975 141.99 199.992 142.724 200.711 143.489C201.028 143.826 200.984 144.333 200.613 144.621C200.241 144.909 199.683 144.869 199.366 144.531C198.795 143.925 197.928 143.288 197.063 142.781C196.635 142.53 196.222 142.32 195.866 142.167C195.495 142.007 195.238 141.932 195.106 141.913C194.624 141.844 194.295 141.432 194.371 140.995Z" fill="#1B3C87"/>
<path fill-rule="evenodd" clip-rule="evenodd" d="M191.501 144.297C191.578 143.859 192.031 143.561 192.514 143.631C192.894 143.686 193.33 143.838 193.752 144.02C194.189 144.208 194.669 144.454 195.15 144.735C196.103 145.293 197.121 146.028 197.84 146.792C198.158 147.129 198.114 147.636 197.742 147.924C197.371 148.212 196.813 148.172 196.495 147.835C195.925 147.228 195.057 146.592 194.191 146.085C193.763 145.834 193.35 145.624 192.994 145.47C192.622 145.311 192.366 145.236 192.235 145.217C191.753 145.147 191.424 144.735 191.501 144.297Z" fill="#1B3C87"/>
<path fill-rule="evenodd" clip-rule="evenodd" d="M195.524 148.538C195.989 148.674 196.245 149.126 196.095 149.548C195.489 151.259 194.674 154.785 193.787 159.201C192.903 163.597 191.958 168.821 191.088 173.894C190.218 178.965 189.424 183.881 188.842 187.659C188.255 191.47 187.896 194.054 187.878 194.523C187.86 194.966 187.451 195.312 186.963 195.297C186.474 195.281 186.093 194.909 186.11 194.466C186.132 193.89 186.513 191.188 187.09 187.436C187.673 183.651 188.469 178.727 189.34 173.647C190.211 168.567 191.159 163.328 192.047 158.913C192.93 154.518 193.764 150.886 194.411 149.057C194.561 148.635 195.059 148.402 195.524 148.538Z" fill="#1B3C87"/>
<path fill-rule="evenodd" clip-rule="evenodd" d="M211.082 144.811C211.293 145.211 211.107 145.69 210.666 145.882C207.442 147.283 203.318 150.814 199.819 154.213C199.485 154.537 198.926 154.554 198.569 154.251C198.212 153.949 198.193 153.441 198.526 153.117C202.007 149.736 206.338 145.982 209.902 144.433C210.343 144.242 210.871 144.411 211.082 144.811Z" fill="#1B3C87"/>
<path fill-rule="evenodd" clip-rule="evenodd" d="M88.655 171.208C89.071 170.976 89.6157 171.094 89.8717 171.471L111.922 204.004C112.178 204.382 112.049 204.876 111.633 205.109C111.217 205.341 110.672 205.223 110.416 204.846L88.3652 172.313C88.1092 171.935 88.2389 171.441 88.655 171.208Z" fill="#1B3C87"/>
<path fill-rule="evenodd" clip-rule="evenodd" d="M247.769 221.707C248.257 221.707 248.653 222.066 248.653 222.509C248.653 224.064 247.388 229.627 241.893 234.803C236.359 240.015 226.608 244.77 209.746 244.77C207.979 244.77 200.514 244.531 193.461 244.293C190.244 244.185 187.105 244.076 184.617 243.99L183.902 243.966C182.609 243.921 181.529 243.884 180.758 243.858C180.656 243.854 180.561 243.851 180.47 243.848C180.578 244.444 180.778 245.235 181.073 246.211C181.529 247.721 182.187 249.59 182.986 251.698C184.583 255.911 186.733 261.041 188.936 266.082C191.139 271.121 193.391 276.062 195.193 279.897C196.094 281.814 196.881 283.453 197.492 284.687C198.114 285.942 198.53 286.732 198.7 286.992C198.949 287.374 198.81 287.866 198.39 288.092C197.969 288.318 197.427 288.192 197.178 287.81C196.946 287.455 196.485 286.57 195.879 285.345C195.262 284.098 194.47 282.45 193.566 280.527C191.759 276.68 189.5 271.726 187.292 266.674C185.084 261.623 182.924 256.468 181.313 252.22C180.509 250.097 179.838 248.192 179.367 246.636C178.905 245.11 178.609 243.834 178.609 243.014C178.609 242.571 179.005 242.212 179.493 242.212C179.642 242.212 181.799 242.286 184.898 242.393C187.358 242.478 190.412 242.584 193.527 242.689C200.606 242.927 208.022 243.165 209.746 243.165C226.214 243.165 235.474 238.534 240.619 233.688C245.803 228.806 246.884 223.64 246.884 222.509C246.884 222.066 247.28 221.707 247.769 221.707Z" fill="#1B3C87"/>
<path fill-rule="evenodd" clip-rule="evenodd" d="M155.661 214.255C155.832 214.671 155.6 215.133 155.143 215.289C154.756 215.42 154.292 215.568 153.765 215.737C150.869 216.662 146.067 218.196 141.684 220.89C136.529 224.058 132.099 228.742 132.099 235.799C132.099 236.045 132.223 236.52 132.566 237.267C132.897 237.987 133.392 238.878 134.037 239.922C135.328 242.007 137.186 244.646 139.441 247.655C143.951 253.669 150.012 261.109 156.208 268.454C162.403 275.798 168.724 283.039 173.75 288.651C176.263 291.458 178.451 293.855 180.135 295.653C181.838 297.472 182.985 298.632 183.441 299.008C183.802 299.305 183.83 299.813 183.502 300.142C183.174 300.47 182.614 300.495 182.252 300.197C181.692 299.736 180.463 298.482 178.787 296.693C177.092 294.883 174.896 292.476 172.378 289.664C167.342 284.04 161.009 276.787 154.804 269.431C148.6 262.076 142.516 254.609 137.979 248.558C135.712 245.535 133.822 242.852 132.495 240.708C131.832 239.637 131.301 238.686 130.933 237.885C130.578 237.111 130.33 236.385 130.33 235.799C130.33 228.013 135.262 222.897 140.692 219.56C145.287 216.737 150.344 215.124 153.22 214.208C153.727 214.046 154.166 213.906 154.523 213.785C154.98 213.629 155.49 213.84 155.661 214.255Z" fill="#1B3C87"/>
<path fill-rule="evenodd" clip-rule="evenodd" d="M203.034 288.955C203.296 289.329 203.175 289.825 202.763 290.063L180.948 302.683C180.536 302.921 179.989 302.811 179.727 302.437C179.464 302.063 179.585 301.567 179.997 301.329L201.813 288.709C202.225 288.471 202.771 288.581 203.034 288.955Z" fill="#1B3C87"/>
<path fill-rule="evenodd" clip-rule="evenodd" d="M206.102 292.698C206.355 293.077 206.222 293.57 205.804 293.8L183.308 306.172C182.89 306.401 182.346 306.28 182.093 305.901C181.84 305.522 181.973 305.028 182.391 304.798L204.887 292.427C205.305 292.197 205.849 292.318 206.102 292.698Z" fill="#1B3C87"/>
<path fill-rule="evenodd" clip-rule="evenodd" d="M191.191 274.19C191.519 273.861 192.078 273.836 192.44 274.133L206.419 285.599C206.781 285.897 206.809 286.404 206.482 286.733C206.154 287.062 205.595 287.088 205.233 286.791L191.254 275.324C190.892 275.027 190.864 274.519 191.191 274.19Z" fill="#1B3C87"/>
<path fill-rule="evenodd" clip-rule="evenodd" d="M199.494 248.794C199.874 248.516 200.431 248.571 200.737 248.916L221.541 272.376C221.848 272.721 221.788 273.227 221.407 273.505C221.027 273.783 220.47 273.728 220.164 273.383L199.36 249.923C199.053 249.578 199.113 249.072 199.494 248.794Z" fill="#1B3C87"/>
<path fill-rule="evenodd" clip-rule="evenodd" d="M223.899 270.636C224.24 270.954 224.232 271.462 223.881 271.771L205.498 287.99C205.148 288.299 204.588 288.292 204.247 287.974C203.907 287.656 203.915 287.147 204.265 286.838L222.648 270.62C222.999 270.311 223.559 270.318 223.899 270.636Z" fill="#1B3C87"/>
<path fill-rule="evenodd" clip-rule="evenodd" d="M226.22 273.77C226.56 274.088 226.552 274.596 226.202 274.905L207.818 291.123C207.468 291.432 206.908 291.425 206.568 291.107C206.227 290.789 206.235 290.281 206.585 289.972L224.969 273.753C225.319 273.444 225.879 273.452 226.22 273.77Z" fill="#1B3C87"/>
<path fill-rule="evenodd" clip-rule="evenodd" d="M79.1471 327.974C79.6355 327.974 80.0315 328.333 80.0315 328.776V343.197C80.0315 343.641 79.6355 344 79.1471 344C78.6587 344 78.2627 343.641 78.2627 343.197V328.776C78.2627 328.333 78.6587 327.974 79.1471 327.974Z" fill="#1B3C87"/>
<path fill-rule="evenodd" clip-rule="evenodd" d="M79.1471 213.73C79.6355 213.73 80.0315 214.09 80.0315 214.533V302C80.0315 302.444 79.6355 302.803 79.1471 302.803C78.6587 302.803 78.2627 302.444 78.2627 302V214.533C78.2627 214.09 78.6587 213.73 79.1471 213.73Z" fill="#1B3C87"/>
<path fill-rule="evenodd" clip-rule="evenodd" d="M152.508 213.73C152.996 213.73 153.392 214.09 153.392 214.533V343.193C153.392 343.636 152.996 343.996 152.508 343.996C152.019 343.996 151.624 343.636 151.624 343.193V214.533C151.624 214.09 152.019 213.73 152.508 213.73Z" fill="#1B3C87"/>
<path d="M237.817 148.574C250.659 152.63 244.121 177.599 240.506 178.444C236.892 179.288 215.1 171.459 214.42 169.353C213.739 167.247 222.818 143.831 237.817 148.574Z" fill="#46DBC9"/>
<path fill-rule="evenodd" clip-rule="evenodd" d="M235.126 147.158C230.08 145.562 225.724 147.388 222.142 150.648C221.797 150.962 221.237 150.963 220.892 150.65C220.546 150.337 220.545 149.828 220.89 149.514C224.738 146.012 229.777 143.765 235.709 145.642C239.247 146.759 241.402 149.314 242.598 152.392C243.788 155.456 244.06 159.103 243.815 162.59C243.57 166.084 242.8 169.479 241.855 172.069C241.383 173.362 240.857 174.48 240.315 175.317C240.044 175.735 239.754 176.105 239.447 176.395C239.15 176.677 238.774 176.941 238.322 177.047C237.676 177.198 236.777 177.138 235.83 177C234.841 176.856 233.655 176.603 232.357 176.275C229.759 175.617 226.646 174.642 223.636 173.579C220.626 172.515 217.697 171.354 215.467 170.322C214.356 169.806 213.397 169.313 212.684 168.872C212.329 168.652 212.014 168.432 211.767 168.216C211.544 168.021 211.277 167.746 211.167 167.406C211.076 167.127 211.085 166.8 211.113 166.522C211.144 166.215 211.211 165.854 211.308 165.454C211.502 164.652 211.828 163.642 212.275 162.505C212.44 162.087 212.946 161.87 213.406 162.019C213.866 162.168 214.105 162.628 213.941 163.045C213.511 164.136 213.209 165.08 213.035 165.799C212.948 166.159 212.896 166.45 212.875 166.668C212.86 166.811 212.862 166.894 212.864 166.931C212.883 166.954 212.922 166.996 212.994 167.059C213.142 167.188 213.369 167.352 213.682 167.546C214.305 167.932 215.189 168.39 216.272 168.891C218.432 169.892 221.303 171.031 224.277 172.082C227.251 173.133 230.306 174.089 232.832 174.728C234.096 175.048 235.212 175.284 236.11 175.415C237.049 175.552 237.623 175.552 237.882 175.492C237.882 175.492 237.982 175.462 238.171 175.283C238.351 175.113 238.561 174.856 238.79 174.503C239.247 173.797 239.726 172.794 240.176 171.564C241.073 169.108 241.814 165.849 242.05 162.488C242.287 159.12 242.012 155.711 240.93 152.926C239.853 150.155 238.009 148.068 235.127 147.158L235.126 147.158Z" fill="#1B3C87"/>
<path d="M215.921 170.583C214.876 171.976 209.09 188.96 209.09 188.96C209.09 188.96 168.216 204.961 166.178 205.788C165.435 204.865 162.991 203.177 158.029 203.177C148.945 203.177 147.373 208.647 147.373 209.822C147.373 210.997 161.183 213.608 164.889 213.525C168.594 213.442 220.408 206.288 222.258 205.448C224.109 204.608 236.51 178.033 236.51 178.033C233.154 177.872 217.685 173.525 215.931 170.587" fill="white"/>
<path fill-rule="evenodd" clip-rule="evenodd" d="M214.004 167.739C214.408 167.987 214.515 168.486 214.242 168.853C214.177 168.94 214.007 169.268 213.739 169.89C213.486 170.475 213.179 171.243 212.835 172.134C212.149 173.913 211.331 176.16 210.543 178.367C209.755 180.573 209 182.736 208.442 184.348C208.163 185.154 207.933 185.822 207.773 186.288C207.693 186.521 207.63 186.704 207.588 186.828L207.523 187.018C207.523 187.018 207.523 187.018 206.678 186.781C207.028 187.518 207.028 187.518 207.027 187.518L205.268 188.207C204.146 188.646 202.541 189.273 200.61 190.029C196.746 191.541 191.573 193.566 186.336 195.617C175.854 199.722 165.14 203.924 164.132 204.34C163.747 204.498 163.294 204.388 163.048 204.077C162.52 203.41 160.378 201.8 155.617 201.8C151.29 201.8 148.874 203.093 147.534 204.42C146.374 205.57 145.97 206.792 145.871 207.382C145.901 207.398 145.935 207.415 145.974 207.433C146.295 207.587 146.795 207.769 147.456 207.969C148.767 208.366 150.576 208.793 152.521 209.185C156.444 209.976 160.723 210.584 162.453 210.543L162.457 210.543C163.284 210.527 166.859 210.113 171.956 209.46C177.012 208.813 183.48 207.943 190.016 207.036C190.499 206.969 190.95 207.27 191.024 207.708C191.098 208.147 190.766 208.556 190.283 208.623C183.743 209.531 177.268 210.402 172.203 211.05C167.183 211.693 163.462 212.129 162.497 212.148C160.521 212.194 156.044 211.54 152.137 210.753C150.166 210.355 148.291 209.914 146.897 209.493C146.205 209.283 145.598 209.069 145.149 208.854C144.928 208.749 144.704 208.624 144.523 208.475C144.372 208.35 144.076 208.068 144.076 207.643C144.076 206.854 144.551 204.998 146.23 203.335C147.947 201.635 150.86 200.195 155.617 200.195C160.099 200.195 162.76 201.511 164.004 202.635C166.61 201.598 176.234 197.825 185.636 194.143C190.872 192.092 196.045 190.067 199.909 188.555C201.841 187.799 203.446 187.171 204.568 186.732L205.954 186.19C205.99 186.085 206.034 185.957 206.084 185.81C206.245 185.343 206.475 184.674 206.755 183.866C207.314 182.252 208.071 180.084 208.86 177.872C209.649 175.661 210.473 173.401 211.166 171.603C211.512 170.705 211.828 169.916 212.092 169.304C212.34 168.729 212.579 168.219 212.776 167.955C213.049 167.587 213.599 167.49 214.004 167.739ZM145.71 207.284C145.696 207.272 145.699 207.273 145.712 207.286C145.711 207.285 145.711 207.285 145.71 207.284ZM206.678 186.781L207.028 187.518C207.266 187.425 207.446 187.242 207.523 187.018L206.678 186.781Z" fill="#1B3C87"/>
<path fill-rule="evenodd" clip-rule="evenodd" d="M234.441 175.107C234.891 175.28 235.101 175.751 234.911 176.16L234.096 175.847L233.282 175.534C233.472 175.125 233.991 174.935 234.441 175.107ZM219.412 202.553C219.454 202.512 219.515 202.445 219.596 202.344C219.763 202.136 219.974 201.835 220.225 201.442C220.727 200.658 221.353 199.57 222.062 198.271C223.477 195.676 225.195 192.287 226.859 188.914C228.522 185.544 230.128 182.199 231.318 179.695C231.913 178.444 232.404 177.403 232.747 176.675C232.918 176.312 233.052 176.026 233.143 175.831L233.282 175.534C233.282 175.534 233.282 175.534 234.096 175.847C234.911 176.16 234.911 176.16 234.911 176.16L234.771 176.46C234.679 176.655 234.545 176.941 234.373 177.306C234.03 178.035 233.538 179.078 232.942 180.332C231.75 182.839 230.141 186.191 228.473 189.571C226.807 192.948 225.078 196.361 223.647 198.984C222.932 200.294 222.286 201.419 221.754 202.249C221.49 202.662 221.244 203.017 221.026 203.289C220.917 203.425 220.805 203.553 220.691 203.662C220.59 203.759 220.436 203.892 220.236 203.982L219.845 203.262L220.24 203.98C220.082 204.052 219.869 204.108 219.689 204.151C219.483 204.201 219.222 204.256 218.915 204.317C218.3 204.439 217.471 204.587 216.467 204.756C214.456 205.094 211.719 205.52 208.541 205.995C208.059 206.067 207.604 205.77 207.525 205.333C207.446 204.895 207.772 204.482 208.254 204.41C211.428 203.936 214.151 203.512 216.144 203.177C217.142 203.009 217.95 202.865 218.539 202.748C218.833 202.69 219.065 202.64 219.235 202.599C219.32 202.578 219.377 202.563 219.412 202.553Z" fill="#1B3C87"/>
<path d="M277.479 244.933H198.37V251.595H277.479V244.933Z" fill="#8088DC"/>
<path fill-rule="evenodd" clip-rule="evenodd" d="M195.08 242.762C195.08 242.319 195.476 241.96 195.965 241.96H275.059C275.548 241.96 275.944 242.319 275.944 242.762V249.425C275.944 249.868 275.548 250.228 275.059 250.228H261.158C260.669 250.228 260.273 249.868 260.273 249.425C260.273 248.981 260.669 248.622 261.158 248.622H274.175V243.565H196.849V248.622H245.473C245.961 248.622 246.357 248.981 246.357 249.425C246.357 249.868 245.961 250.228 245.473 250.228H195.965C195.476 250.228 195.08 249.868 195.08 249.425V242.762Z" fill="#1B3C87"/>
<path d="M178.065 210.91H57.7024V216.393H178.065V210.91Z" fill="#8088DC"/>
<path fill-rule="evenodd" clip-rule="evenodd" d="M88.2294 209.042C88.2294 208.599 88.6254 208.239 89.1138 208.239H176.007C176.496 208.239 176.892 208.599 176.892 209.042V214.534C176.892 214.978 176.496 215.337 176.007 215.337H55.6449C55.1565 215.337 54.7605 214.978 54.7605 214.534V209.051C54.7605 208.607 55.1565 208.248 55.6449 208.248H74.1674C74.6558 208.248 75.0518 208.607 75.0518 209.051C75.0518 209.494 74.6558 209.854 74.1674 209.854H56.5293V213.731H175.123V209.845H89.1138C88.6254 209.845 88.2294 209.486 88.2294 209.042Z" fill="#1B3C87"/>
<path d="M155.622 206.295H113.232V210.907H155.622V206.295Z" fill="#FB5D64"/>
<path fill-rule="evenodd" clip-rule="evenodd" d="M110.291 204.433C110.291 203.989 110.687 203.63 111.175 203.63H153.565C154.054 203.63 154.45 203.989 154.45 204.433V209.046C154.45 209.489 154.054 209.849 153.565 209.849H111.175C110.687 209.849 110.291 209.489 110.291 209.046V204.433ZM112.06 205.236V208.243H152.681V205.236H112.06Z" fill="#1B3C87"/>
<path d="M186.982 306.715L200.884 320.514L193.281 339.661L216.602 323.199L203.084 297.885" fill="white"/>
<path fill-rule="evenodd" clip-rule="evenodd" d="M200.285 294.972C200.725 294.779 201.254 294.945 201.467 295.344L209.564 310.496C209.777 310.895 209.593 311.376 209.154 311.569C208.714 311.763 208.185 311.596 207.972 311.197L199.875 296.045C199.662 295.646 199.846 295.166 200.285 294.972Z" fill="#1B3C87"/>
<path fill-rule="evenodd" clip-rule="evenodd" d="M183.987 303.945C184.348 303.645 184.907 303.668 185.237 303.995L199.138 317.794C199.36 318.014 199.429 318.328 199.318 318.608L192.754 335.148L213.095 320.787L211.031 316.934C210.817 316.535 211 316.054 211.439 315.86C211.879 315.666 212.408 315.833 212.622 316.231L214.999 320.67C215.182 321.011 215.077 321.422 214.747 321.655L191.431 338.117C191.12 338.337 190.687 338.343 190.368 338.133C190.05 337.923 189.922 337.547 190.056 337.211L197.473 318.52L183.931 305.079C183.602 304.752 183.627 304.244 183.987 303.945Z" fill="#1B3C87"/>
<path d="M225.072 279.077L232.813 291.009L238.158 293.533L227.986 314.978L225.666 301.487L212.244 290.378" fill="white"/>
<path fill-rule="evenodd" clip-rule="evenodd" d="M209.232 287.654C209.561 287.327 210.121 287.304 210.481 287.603L213.909 290.445C214.27 290.744 214.295 291.252 213.966 291.579C213.636 291.906 213.077 291.929 212.716 291.63L209.289 288.789C208.928 288.49 208.902 287.982 209.232 287.654Z" fill="#1B3C87"/>
<path fill-rule="evenodd" clip-rule="evenodd" d="M222.221 276.205C222.642 275.98 223.184 276.108 223.432 276.49L231.045 288.219L236.165 290.641C236.576 290.836 236.752 291.285 236.569 291.671L226.397 313.116C226.241 313.444 225.864 313.64 225.474 313.595C225.083 313.55 224.772 313.276 224.711 312.922L222.439 299.711L219.792 297.516C219.431 297.217 219.406 296.709 219.735 296.382C220.065 296.055 220.624 296.032 220.985 296.331L223.861 298.715C224.009 298.838 224.107 299.004 224.138 299.184L225.985 309.923L234.619 291.721L230.003 289.537C229.856 289.468 229.734 289.362 229.65 289.233L221.908 277.305C221.66 276.923 221.8 276.431 222.221 276.205Z" fill="#1B3C87"/>
<path fill-rule="evenodd" clip-rule="evenodd" d="M216.394 248.618C216.883 248.618 217.279 248.978 217.279 249.421V342.546C217.279 342.989 216.883 343.349 216.394 343.349C215.906 343.349 215.51 342.989 215.51 342.546V249.421C215.51 248.978 215.906 248.618 216.394 248.618Z" fill="#1B3C87"/>
<path fill-rule="evenodd" clip-rule="evenodd" d="M254.653 284.164C255.141 284.164 255.537 284.524 255.537 284.967V342.561C255.537 343.004 255.141 343.364 254.653 343.364C254.165 343.364 253.769 343.004 253.769 342.561V284.967C253.769 284.524 254.165 284.164 254.653 284.164Z" fill="#1B3C87"/>
<path fill-rule="evenodd" clip-rule="evenodd" d="M254.653 248.618C255.141 248.618 255.537 248.978 255.537 249.421V269.038C255.537 269.482 255.141 269.841 254.653 269.841C254.165 269.841 253.769 269.482 253.769 269.038V249.421C253.769 248.978 254.165 248.618 254.653 248.618Z" fill="#1B3C87"/>
<path d="M193.28 121.196C193.515 121.936 194.061 122.441 194.502 122.323C194.943 122.206 195.116 121.518 194.881 120.783C194.646 120.047 194.104 119.538 193.658 119.669C193.213 119.799 193.05 120.474 193.28 121.209" fill="#1B3C87"/>
<path fill-rule="evenodd" clip-rule="evenodd" d="M188.1 128.658C188.508 128.729 188.776 129.086 188.698 129.457C188.629 129.784 188.518 130.103 188.367 130.407C188.195 130.75 187.749 130.903 187.371 130.747C186.992 130.592 186.824 130.187 186.995 129.843C187.098 129.638 187.173 129.422 187.22 129.201C187.298 128.83 187.692 128.587 188.1 128.658Z" fill="#1B3C87"/>
<path fill-rule="evenodd" clip-rule="evenodd" d="M187.197 124.373C187.588 124.246 188.019 124.43 188.16 124.785C188.568 125.813 188.793 126.894 188.828 127.986C188.839 128.363 188.512 128.678 188.097 128.689C187.681 128.699 187.335 128.402 187.323 128.025C187.293 127.077 187.098 126.14 186.744 125.248C186.603 124.893 186.806 124.501 187.197 124.373Z" fill="#1B3C87"/>
<path fill-rule="evenodd" clip-rule="evenodd" d="M200.471 128.234C200.883 128.185 201.261 128.449 201.314 128.823C201.409 129.492 201.197 130.257 200.798 130.949C200.392 131.652 199.76 132.341 198.921 132.851C198.575 133.061 198.108 132.977 197.876 132.664C197.645 132.35 197.737 131.926 198.083 131.716C198.696 131.343 199.166 130.833 199.465 130.315C199.77 129.785 199.865 129.305 199.821 128.999C199.768 128.625 200.059 128.282 200.471 128.234Z" fill="#1B3C87"/>
<path d="M136.333 110.714H10.0549V145.301H136.333V110.714Z" fill="#D7E0FF"/>
<path d="M125.469 127.83C125.47 129.827 124.818 131.78 123.597 133.441C122.376 135.101 120.639 136.396 118.607 137.161C116.575 137.926 114.339 138.126 112.181 137.737C110.023 137.348 108.041 136.387 106.486 134.975C104.93 133.563 103.87 131.764 103.441 129.806C103.011 127.847 103.231 125.817 104.073 123.972C104.914 122.127 106.34 120.55 108.169 119.441C109.998 118.331 112.148 117.739 114.348 117.739C117.296 117.739 120.124 118.802 122.21 120.694C124.295 122.587 125.468 125.154 125.469 127.83Z" fill="#B2C3FB"/>
<path fill-rule="evenodd" clip-rule="evenodd" d="M29.6929 121.981C29.6929 121.538 30.0888 121.179 30.5773 121.179H93.3448C93.8332 121.179 94.2292 121.538 94.2292 121.981C94.2292 122.425 93.8332 122.784 93.3448 122.784H30.5773C30.0888 122.784 29.6929 122.425 29.6929 121.981Z" fill="#EAF0FF"/>
<path fill-rule="evenodd" clip-rule="evenodd" d="M59.2012 133.691C59.2012 133.247 59.5971 132.888 60.0856 132.888H93.3436C93.8321 132.888 94.228 133.247 94.228 133.691C94.228 134.134 93.8321 134.493 93.3436 134.493H60.0856C59.5971 134.493 59.2012 134.134 59.2012 133.691Z" fill="#EAF0FF"/>
<path d="M179.499 0H104.45V86.4493H179.499V0Z" fill="#EAF0FF"/>
<path fill-rule="evenodd" clip-rule="evenodd" d="M133.08 30.5677C133.264 30.3791 133.551 30.3034 133.818 30.3732L202.007 48.2148C202.273 48.2846 202.472 48.4874 202.517 48.736C202.562 48.9846 202.446 49.2345 202.218 49.3782L156.031 78.4861C155.853 78.5981 155.63 78.6316 155.422 78.5771C155.214 78.5227 155.044 78.3862 154.959 78.2055L132.957 31.2559C132.848 31.0241 132.896 30.7563 133.08 30.5677ZM134.872 32.0076L155.937 76.9563L200.155 49.0889L134.872 32.0076Z" fill="#B2C3FB"/>
<path d="M68.1384 43.4587H24.9241V59.8427H68.1384V43.4587Z" fill="#EAF0FF"/>
<path d="M48.0309 63.7115H4.81665V80.0954H48.0309V63.7115Z" fill="#EAF0FF"/>
</svg>
