<svg  viewBox="0 0 441 435" fill="none" xmlns="http://www.w3.org/2000/svg">
<path d="M45.723 5.28379C14.0526 22.5242 16.6606 91.6966 15.3589 152.306C14.0572 212.916 8.827 264.939 23.5658 318.446C38.3046 371.954 72.9611 426.913 116.618 433.335C160.405 439.891 213.313 398.021 273.132 375.685C332.95 353.349 399.65 350.533 426.128 317.225C452.605 283.918 438.636 220.114 410.75 176.395C382.732 132.652 340.765 109.109 304.797 92.6592C268.961 76.2042 238.988 66.8417 191.161 44.7691C143.202 22.8068 77.3888 -11.971 45.723 5.28379Z" fill="#EBF5FD"/>
<path d="M395.319 255.655C398.706 254.664 408.869 248.223 410.805 245.746C412.741 243.268 417.338 249.278 408.99 257.409" fill="white"/>
<path fill-rule="evenodd" clip-rule="evenodd" d="M414.388 241.144C413.81 241.253 413.319 241.584 412.951 242.045C412.59 242.497 411.747 243.229 410.528 244.131C409.34 245.01 407.882 245.988 406.374 246.928C404.866 247.868 403.32 248.761 401.959 249.474C400.576 250.198 399.452 250.7 398.761 250.897C398.176 251.064 397.838 251.674 398.005 252.26C398.172 252.845 398.781 253.184 399.366 253.017C400.289 252.753 401.584 252.159 402.981 251.427C404.399 250.684 405.993 249.762 407.538 248.799C409.083 247.837 410.592 246.826 411.838 245.904C413.053 245.004 414.111 244.122 414.672 243.422C414.738 243.338 414.783 243.315 414.796 243.31C414.806 243.311 414.833 243.316 414.882 243.344C415.058 243.447 415.401 243.82 415.532 244.634C415.785 246.2 415.149 249.15 411.324 252.791C410.883 253.21 410.866 253.908 411.285 254.349C411.704 254.79 412.402 254.807 412.842 254.388C416.967 250.461 418.117 246.829 417.707 244.283C417.507 243.041 416.907 241.974 415.992 241.44C415.524 241.167 414.965 241.035 414.388 241.144ZM414.792 243.311C414.792 243.311 414.793 243.311 414.796 243.31C414.793 243.31 414.792 243.311 414.792 243.311ZM414.797 243.31C414.799 243.31 414.8 243.309 414.8 243.309C414.8 243.309 414.799 243.309 414.797 243.31Z" fill="#1B3C87"/>
<path d="M358.315 270.995C360.649 268.077 368.587 255.92 369.988 252.03C371.389 248.14 380.928 244.249 374.76 270.995" fill="white"/>
<path fill-rule="evenodd" clip-rule="evenodd" d="M375.664 243.219C374.705 243.881 373.89 244.928 373.509 246.048L373.509 246.049C373.21 246.932 372.528 248.367 371.593 250.128C370.67 251.866 369.536 253.856 368.37 255.823C366.028 259.774 363.602 263.555 362.528 264.981C362.15 265.483 362.212 266.227 362.664 266.645C363.117 267.063 363.79 266.995 364.167 266.494C365.325 264.955 367.809 261.076 370.155 257.119C371.332 255.132 372.486 253.107 373.433 251.325C374.368 249.564 375.136 247.972 375.507 246.878M375.664 243.219C376.622 242.558 377.916 242.159 379.171 242.759L375.664 243.219ZM379.171 242.759C380.433 243.363 381.297 244.805 381.739 246.934L379.171 242.759ZM381.739 246.934C382.183 249.073 382.251 252.108 381.776 256.297L381.739 246.934ZM379.659 247.463C380.024 249.219 380.119 251.943 379.659 256.003C379.586 256.65 380 257.241 380.585 257.322C381.17 257.403 381.703 256.944 381.776 256.297M379.659 247.463C379.293 245.696 378.704 245.109 378.325 244.928L379.659 247.463ZM378.325 244.928C377.938 244.743 377.401 244.803 376.794 245.223L378.325 244.928ZM376.794 245.223C376.188 245.641 375.705 246.296 375.507 246.878L376.794 245.223Z" fill="#1B3C87"/>
<path d="M306.415 314.044C309.389 320.384 322.439 345.283 322.439 345.283C322.439 345.283 352.269 279.684 355.531 278.247C358.794 276.811 408.664 259.094 417.986 253.827C421.715 251.912 432.901 255.264 412.393 269.15C391.886 283.036 371.844 294.527 369.514 299.316C367.183 304.104 350.404 378.322 350.404 378.322H287.893C283.755 378.322 269.772 331.397 269.772 331.397C269.772 331.397 302.971 310.108 306.415 314.044Z" fill="white"/>
<path fill-rule="evenodd" clip-rule="evenodd" d="M374.109 267.676C373.904 267.082 373.274 266.773 372.702 266.986C371.667 267.372 370.669 267.744 369.715 268.099C364.059 270.206 359.969 271.73 359.085 272.122L359.082 272.123C358.76 272.266 358.504 272.524 358.337 272.708C358.144 272.922 357.94 273.188 357.73 273.487C357.308 274.086 356.807 274.898 356.244 275.873C355.114 277.829 353.688 280.528 352.078 283.705C348.855 290.064 344.866 298.399 340.981 306.68C337.096 314.962 333.312 323.199 330.499 329.365C329.093 332.448 327.929 335.014 327.117 336.808C326.994 337.08 326.88 337.333 326.773 337.568C326.482 337.005 326.138 336.338 325.751 335.588C324.497 333.159 322.795 329.854 321.002 326.352C317.408 319.336 313.466 311.562 312.009 308.422C311.964 308.325 311.906 308.235 311.836 308.154C311.386 307.634 310.772 307.414 310.2 307.333C309.624 307.252 308.979 307.294 308.312 307.406C306.976 307.631 305.331 308.173 303.53 308.903C299.915 310.369 295.451 312.685 291.131 315.102C286.802 317.524 282.584 320.067 279.45 322.004C277.882 322.972 276.584 323.79 275.678 324.365C275.225 324.653 274.87 324.881 274.627 325.036C274.506 325.114 274.413 325.174 274.35 325.214L274.256 325.275L274.255 325.276C274.254 325.276 274.254 325.277 274.837 326.246C273.785 326.581 273.785 326.581 273.785 326.581L273.825 326.716C273.851 326.806 273.891 326.938 273.942 327.11C274.044 327.454 274.195 327.959 274.388 328.6C274.774 329.884 275.33 331.717 276.011 333.917C277.37 338.315 279.227 344.183 281.213 350.054C283.197 355.918 285.317 361.809 287.204 366.244C288.145 368.456 289.044 370.344 289.854 371.694C290.257 372.365 290.664 372.949 291.072 373.379C291.433 373.76 292.003 374.246 292.73 374.246H354.453C354.965 374.246 355.409 373.88 355.525 373.362L354.453 373.103C355.525 373.362 355.525 373.362 355.525 373.362L355.61 372.983C355.666 372.734 355.748 372.365 355.856 371.887C356.07 370.932 356.383 369.541 356.776 367.798C357.562 364.313 358.667 359.423 359.946 353.801C360.086 353.187 359.72 352.571 359.129 352.426C358.538 352.281 357.945 352.661 357.806 353.275C356.526 358.899 355.42 363.791 354.634 367.277C354.241 369.02 353.928 370.412 353.714 371.368C353.664 371.589 353.619 371.787 353.58 371.961H292.841C292.804 371.934 292.737 371.879 292.639 371.775C292.395 371.518 292.087 371.096 291.721 370.486C290.994 369.273 290.144 367.501 289.216 365.32C287.365 360.969 285.267 355.146 283.288 349.296C281.312 343.452 279.461 337.605 278.105 333.218C277.427 331.025 276.872 329.197 276.488 327.918C276.348 327.455 276.231 327.064 276.138 326.753C276.332 326.629 276.562 326.483 276.826 326.315C277.725 325.744 279.015 324.931 280.574 323.968C283.693 322.041 287.882 319.516 292.174 317.114C296.474 314.709 300.843 312.447 304.33 311.032C306.081 310.322 307.556 309.848 308.663 309.663C309.218 309.569 309.626 309.558 309.904 309.598C310.018 309.614 310.093 309.636 310.139 309.654C311.699 312.983 315.562 320.597 319.06 327.426C320.855 330.931 322.558 334.238 323.812 336.668C324.439 337.883 324.954 338.88 325.312 339.572C325.492 339.919 325.631 340.189 325.727 340.373L325.872 340.653C325.872 340.654 325.872 340.654 326.841 340.112C327.837 340.596 327.837 340.595 327.838 340.595L327.922 340.408C327.977 340.284 328.06 340.101 328.168 339.861C328.385 339.381 328.702 338.677 329.108 337.781C329.919 335.988 331.082 333.424 332.487 330.344C335.298 324.183 339.078 315.954 342.959 307.681C346.841 299.406 350.818 291.096 354.024 284.77C355.629 281.604 357.032 278.95 358.13 277.049C358.68 276.096 359.142 275.353 359.506 274.835C359.689 274.575 359.833 274.392 359.94 274.274C359.975 274.235 360.001 274.209 360.017 274.194C360.977 273.783 364.934 272.309 370.485 270.24C371.428 269.889 372.417 269.521 373.445 269.137C374.017 268.924 374.314 268.27 374.109 267.676ZM326.841 340.112L327.837 340.596C327.661 340.987 327.288 341.242 326.872 341.254C326.456 341.267 326.069 341.034 325.872 340.653L326.841 340.112ZM274.837 326.246L273.785 326.581C273.639 326.086 273.832 325.551 274.254 325.277L274.837 326.246Z" fill="#1B3C87"/>
<path fill-rule="evenodd" clip-rule="evenodd" d="M405.719 271.534C405.392 270.994 404.706 270.832 404.187 271.173C402.396 272.348 400.638 273.497 398.924 274.617C393.25 278.324 388.079 281.703 383.917 284.613C381.207 286.508 378.899 288.222 377.144 289.715C375.435 291.169 374.102 292.532 373.523 293.736L373.523 293.737C373.325 294.149 373.086 294.857 372.82 295.733C372.545 296.637 372.219 297.801 371.849 299.178C371.11 301.933 370.193 305.572 369.17 309.757C367.124 318.13 364.646 328.717 362.311 338.856C362.168 339.477 362.535 340.101 363.132 340.25C363.728 340.399 364.328 340.016 364.471 339.395C366.806 329.26 369.28 318.685 371.323 310.327C372.345 306.148 373.257 302.529 373.989 299.799C374.355 298.434 374.674 297.298 374.938 296.43C375.21 295.534 375.402 294.995 375.51 294.77C375.854 294.056 376.831 292.967 378.55 291.505C380.225 290.081 382.465 288.413 385.156 286.532C389.287 283.643 394.416 280.292 400.083 276.59C401.801 275.467 403.568 274.312 405.372 273.128C405.891 272.788 406.046 272.074 405.719 271.534Z" fill="#1B3C87"/>
<path fill-rule="evenodd" clip-rule="evenodd" d="M425.578 247.972C424.252 247.788 422.784 247.947 421.693 248.469C421.68 248.476 421.667 248.482 421.654 248.489C419.246 249.758 413.938 251.873 407.309 254.337C400.708 256.791 392.877 259.562 385.477 262.139C384.901 262.34 384.604 262.949 384.813 263.501C385.022 264.053 385.659 264.338 386.234 264.137C393.639 261.559 401.488 258.781 408.111 256.32C414.686 253.876 420.13 251.715 422.701 250.363C423.304 250.081 424.287 249.942 425.261 250.077C426.262 250.215 426.959 250.597 427.257 251.057C427.504 251.438 427.68 252.202 426.808 253.651C425.928 255.112 424.078 257.075 420.688 259.589C420.204 259.948 420.115 260.616 420.49 261.08C420.865 261.544 421.561 261.629 422.046 261.27C425.527 258.688 427.638 256.525 428.729 254.714C429.827 252.89 429.984 251.235 429.142 249.935C428.35 248.715 426.888 248.154 425.578 247.972Z" fill="#1B3C87"/>
<path d="M221.491 235.321C193.472 250.163 224.833 324.031 242.059 342.727C256.162 345.846 305.913 321.465 312.061 305.278C306.89 289.324 261.421 214.164 221.491 235.321Z" fill="#4679DB"/>
<path fill-rule="evenodd" clip-rule="evenodd" d="M29.0502 103.912C28.6906 103.984 28.3887 104.234 28.2423 104.58L0.269981 170.602C0.132721 170.926 0.147934 171.297 0.311218 171.608C0.47451 171.919 0.767715 172.135 1.10629 172.195L115.168 192.181C115.651 192.265 116.13 192.017 116.352 191.568C116.573 191.119 116.485 190.574 116.134 190.223L30.044 104.215C29.7811 103.952 29.4097 103.839 29.0502 103.912ZM111.996 189.293L2.88774 170.175L29.6452 107.02L111.996 189.293Z" fill="#DB468D"/>
<path fill-rule="evenodd" clip-rule="evenodd" d="M402.909 170.721C403.379 170.314 403.44 169.592 403.044 169.109L348.222 102.11C347.826 101.626 347.124 101.564 346.654 101.971L289.316 151.554C288.845 151.961 288.785 152.683 289.18 153.166L344.002 220.165C344.398 220.649 345.101 220.711 345.571 220.304L402.909 170.721ZM400.624 169.706L344.99 217.816L291.601 152.569L347.235 104.459L400.624 169.706Z" fill="#749EF3"/>
<path fill-rule="evenodd" clip-rule="evenodd" d="M226.976 232.066C243.7 223.092 261.628 231.957 277.235 246.67C277.687 247.096 278.387 247.063 278.799 246.596C279.211 246.129 279.179 245.405 278.728 244.979C263.012 230.163 244.029 220.338 225.955 230.035C218.535 234.016 215.169 241.912 214.429 251.451C213.689 260.989 215.544 272.393 218.778 283.828C222.018 295.278 226.664 306.839 231.574 316.719C236.474 326.58 241.674 334.842 246.046 339.648C246.2 339.817 246.399 339.933 246.619 339.983C248.552 340.416 251.002 340.357 253.756 339.947C256.527 339.535 259.681 338.756 263.059 337.691C269.816 335.56 277.54 332.259 285.004 328.357C292.467 324.455 299.702 319.934 305.469 315.349C311.19 310.801 315.632 306.062 317.273 301.686C317.366 301.439 317.372 301.166 317.292 300.914C315.643 295.754 310.071 284.85 302.034 272.956C301.684 272.438 300.993 272.311 300.492 272.673C299.99 273.035 299.868 273.748 300.218 274.266C308.002 285.787 313.353 296.223 315.058 301.237C313.533 304.903 309.606 309.173 304.119 313.535C298.489 318.011 291.379 322.459 284.004 326.315C276.63 330.171 269.024 333.417 262.412 335.502C259.106 336.545 256.067 337.291 253.441 337.682C250.98 338.048 248.948 338.091 247.419 337.813C243.3 333.193 238.313 325.271 233.544 315.674C228.69 305.907 224.099 294.481 220.904 283.186C217.705 271.875 215.928 260.776 216.637 251.634C217.346 242.494 220.51 235.534 226.976 232.066L226.976 232.066Z" fill="#1B3C87"/>
<path fill-rule="evenodd" clip-rule="evenodd" d="M188.352 206.724C203.301 206.724 216.103 211.213 227.086 218.88C227.593 219.234 228.278 219.093 228.618 218.565C228.957 218.038 228.822 217.323 228.315 216.97C216.982 209.058 203.755 204.424 188.352 204.424C159.106 204.424 138.482 224.618 125.055 255.804C111.633 286.979 105.274 329.375 104.58 374.436C104.57 375.071 105.056 375.594 105.666 375.604C106.275 375.615 106.777 375.108 106.787 374.473C107.479 329.561 113.82 287.517 127.069 256.745C140.313 225.984 160.331 206.724 188.352 206.724Z" fill="#1B3C87"/>
<path fill-rule="evenodd" clip-rule="evenodd" d="M243.72 231.888C243.254 232.314 243.212 233.048 243.624 233.528C258.641 250.986 269.297 274.993 276.819 300.064C277.003 300.677 277.634 301.02 278.228 300.831C278.823 300.641 279.156 299.991 278.972 299.378C271.406 274.158 260.629 249.796 245.311 231.987C244.898 231.507 244.186 231.463 243.72 231.888Z" fill="#1B3C87"/>
<path fill-rule="evenodd" clip-rule="evenodd" d="M286.593 337.585C285.95 337.7 285.529 338.285 285.652 338.89C288.134 351.092 289.92 362.793 291.197 373.258C291.272 373.87 291.859 374.309 292.51 374.239C293.16 374.168 293.626 373.615 293.552 373.003C292.27 362.493 290.475 350.735 287.98 338.47C287.856 337.865 287.236 337.469 286.593 337.585Z" fill="#1B3C87"/>
<path d="M100.615 372.887C102.867 286.166 127.232 211.217 183.797 211.217C255.556 211.217 279.344 310.521 286.952 372.887H100.615Z" fill="#4679DB"/>
<path fill-rule="evenodd" clip-rule="evenodd" d="M81.8513 305.013C81.5433 305.114 81.2932 305.347 81.1661 305.653L67.6659 338.085C67.4242 338.666 67.6862 339.338 68.2511 339.587C68.816 339.835 69.47 339.566 69.7117 338.985L82.7054 307.769L132.562 339.168C130.743 345.708 125.621 362.419 122.434 372.756C122.248 373.359 122.573 374.001 123.159 374.192C123.744 374.383 124.37 374.05 124.555 373.448C127.88 362.663 133.344 344.834 134.934 338.951C135.067 338.459 134.867 337.937 134.443 337.67L82.7702 305.127C82.4946 304.954 82.1592 304.912 81.8513 305.013Z" fill="#1B3C87"/>
<path d="M68.8978 374.246V332.419L77.3934 311.752L128.367 344.306C126.99 349.4 122.765 363.527 119.523 374.227L68.8978 374.246Z" fill="white"/>
<path d="M137.263 230.667C108.952 216.844 70.431 286.912 66.254 312.175C72.2874 325.521 121.019 351.26 137.263 346.494C146.545 332.671 177.608 250.367 137.263 230.667Z" fill="#4679DB"/>
<path fill-rule="evenodd" clip-rule="evenodd" d="M115.238 232.006C114.843 231.521 114.14 231.457 113.668 231.862C103.042 240.971 92.9232 255.268 85.1106 269.421C77.3044 283.563 71.7097 297.729 70.2344 306.637C70.1966 306.865 70.2273 307.1 70.3224 307.31C71.1611 309.163 72.6957 311.144 74.6872 313.164C76.6906 315.195 79.2122 317.322 82.0922 319.46C87.8528 323.737 95.1102 328.105 102.676 331.895C110.242 335.685 118.15 338.914 125.215 340.896C132.224 342.862 138.604 343.661 143 342.372C143.256 342.297 143.477 342.13 143.624 341.902C144.781 340.103 145.827 338.23 146.754 336.295C147.025 335.728 146.797 335.043 146.245 334.764C145.692 334.486 145.024 334.719 144.753 335.286C143.929 337.005 143.008 338.673 141.994 340.281C138.22 341.232 132.521 340.574 125.803 338.69C118.906 336.755 111.131 333.585 103.655 329.84C96.1795 326.096 89.0366 321.793 83.3994 317.608C80.5805 315.515 78.1538 313.464 76.2547 311.537C74.4755 309.733 73.2067 308.086 72.4938 306.66C73.9966 298.108 79.4021 284.404 87.0506 270.548C94.8008 256.508 104.763 242.476 115.098 233.617C115.57 233.212 115.633 232.491 115.238 232.006Z" fill="#1B3C87"/>
<path fill-rule="evenodd" clip-rule="evenodd" d="M145.741 226.675C145.391 227.208 145.528 227.932 146.047 228.291C155.083 234.545 159.606 244.738 161.152 256.735C162.7 268.739 161.245 282.417 158.443 295.391C158.307 296.019 158.693 296.64 159.304 296.779C159.915 296.919 160.52 296.523 160.656 295.895C163.487 282.786 164.995 268.81 163.399 256.429C161.802 244.041 157.074 233.116 147.314 226.36C146.795 226.001 146.091 226.142 145.741 226.675Z" fill="#1B3C87"/>
<path fill-rule="evenodd" clip-rule="evenodd" d="M85.936 75.1461C85.936 74.5138 85.4373 74.0012 84.8223 74.0012H68.6904C68.0753 74.0012 67.5767 74.5138 67.5767 75.1461V373.101C67.5767 373.733 68.0753 374.246 68.6904 374.246H358.524C359.139 374.246 359.638 373.733 359.638 373.101V358.783C359.638 358.151 359.139 357.638 358.524 357.638C357.909 357.638 357.41 358.151 357.41 358.783V371.956H69.8041V76.291H84.8223C85.4373 76.291 85.936 75.7784 85.936 75.1461Z" fill="#B7C5E5"/>
<path fill-rule="evenodd" clip-rule="evenodd" d="M359.638 75.1663C359.638 74.5229 359.138 74.0012 358.522 74.0012H146.664C146.047 74.0012 145.548 74.5229 145.548 75.1663C145.548 75.8098 146.047 76.3314 146.664 76.3314H357.406V98.649C357.406 99.2924 357.906 99.8141 358.522 99.8141C359.138 99.8141 359.638 99.2924 359.638 98.649V75.1663Z" fill="#B7C5E5"/>
<path fill-rule="evenodd" clip-rule="evenodd" d="M358.316 170.46C357.586 170.46 356.995 170.969 356.995 171.598V275.291C356.995 275.919 357.586 276.429 358.316 276.429C359.046 276.429 359.638 275.919 359.638 275.291V171.598C359.638 170.969 359.046 170.46 358.316 170.46Z" fill="#B7C5E5"/>
<path d="M162.727 165.026C165.049 174.618 169.228 195.243 167.835 223.062C175.729 230.256 202.195 231.695 214.268 222.103C211.946 207.234 211.946 192.845 212.41 183.252C212.875 173.659 162.727 165.026 162.727 165.026Z" fill="white"/>
<path fill-rule="evenodd" clip-rule="evenodd" d="M166.641 160.965C166.278 160.903 165.91 161.034 165.66 161.314C165.411 161.593 165.314 161.985 165.403 162.354C167.669 171.743 171.757 191.959 170.394 219.239C170.377 219.583 170.513 219.917 170.762 220.145C173.275 222.44 177.395 224.092 182.12 225.077C186.881 226.069 192.397 226.411 197.826 225.976C198.427 225.928 198.876 225.384 198.829 224.762C198.783 224.139 198.258 223.674 197.657 223.722C192.416 224.143 187.102 223.809 182.551 222.861C178.242 221.963 174.739 220.54 172.601 218.791C173.822 193.027 170.244 173.548 167.918 163.49C168.066 163.517 168.222 163.546 168.386 163.577C169.729 163.827 171.647 164.195 173.948 164.667C178.551 165.61 184.678 166.964 190.785 168.612C196.903 170.262 202.953 172.194 207.426 174.282C209.668 175.329 211.452 176.387 212.644 177.426C213.868 178.494 214.256 179.351 214.225 179.993C213.766 189.498 213.765 203.769 216.064 218.532C216.16 219.148 216.72 219.567 217.315 219.467C217.91 219.368 218.314 218.788 218.218 218.172C215.952 203.617 215.95 189.515 216.405 180.106C216.488 178.383 215.435 176.906 214.05 175.697C212.632 174.461 210.638 173.302 208.323 172.221C203.678 170.054 197.486 168.084 191.335 166.424C185.171 164.762 178.999 163.397 174.371 162.449C172.056 161.975 170.126 161.604 168.773 161.352C168.097 161.226 167.565 161.129 167.201 161.064C167.02 161.032 166.88 161.007 166.786 160.991L166.679 160.972L166.642 160.965C166.642 160.965 166.641 160.965 166.462 162.08L166.641 160.965Z" fill="#1B3C87"/>
<path d="M199.069 194.914C172.429 194.914 150.833 166.63 150.833 131.741C150.833 96.8507 172.429 68.5669 199.069 68.5669C225.71 68.5669 247.306 96.8507 247.306 131.741C247.306 166.63 225.71 194.914 199.069 194.914Z" fill="white"/>
<path fill-rule="evenodd" clip-rule="evenodd" d="M240.198 166.583C239.684 166.219 238.991 166.37 238.65 166.919C229.936 180.993 216.986 189.809 202.616 189.81C195.162 189.768 187.878 187.433 181.634 183.082C181.117 182.722 180.425 182.878 180.089 183.431C179.752 183.983 179.898 184.722 180.414 185.082C187.019 189.683 194.724 192.153 202.607 192.197L202.613 192.197C217.899 192.197 231.484 182.816 240.513 168.237C240.853 167.687 240.712 166.946 240.198 166.583Z" fill="#1B3C87"/>
<path fill-rule="evenodd" clip-rule="evenodd" d="M203.034 65.4178C228.934 65.4178 250.355 92.8853 250.355 127.38L250.355 127.382C250.366 134.073 249.533 140.738 247.878 147.213C247.722 147.823 248.08 148.447 248.677 148.607C249.275 148.766 249.886 148.401 250.042 147.79C251.746 141.126 252.603 134.266 252.592 127.379C252.591 92.1717 230.646 63.1326 203.034 63.1326C175.422 63.1326 153.476 92.1721 153.476 127.379C153.476 127.379 153.476 127.38 153.476 127.38H154.595L153.476 127.377C153.476 127.377 153.476 127.378 153.476 127.379C153.455 135.74 154.727 144.052 157.247 152.007C157.437 152.608 158.067 152.937 158.655 152.743C159.243 152.549 159.565 151.904 159.375 151.304C156.928 143.577 155.692 135.504 155.713 127.383L155.713 127.38C155.713 92.8853 177.134 65.4178 203.034 65.4178Z" fill="#1B3C87"/>
<path fill-rule="evenodd" clip-rule="evenodd" d="M221.962 120.199C221.299 120.263 220.815 120.836 220.881 121.478C221.023 122.85 221.571 124.734 222.344 126.803C223.126 128.896 224.17 131.257 225.354 133.611C227.701 138.28 230.677 143.074 233.351 145.663C233.823 146.12 234.587 146.12 235.059 145.663C235.53 145.207 235.53 144.467 235.059 144.01C232.682 141.709 229.849 137.211 227.524 132.588C226.372 130.295 225.363 128.011 224.614 126.007C223.857 123.981 223.395 122.319 223.284 121.245C223.217 120.603 222.626 120.134 221.962 120.199Z" fill="#1B3C87"/>
<path fill-rule="evenodd" clip-rule="evenodd" d="M208.166 155.719C207.643 156.09 207.502 156.841 207.851 157.397C211.904 163.869 217.051 165.026 219.738 165.026C220.366 165.026 220.875 164.484 220.875 163.815C220.875 163.147 220.366 162.605 219.738 162.605C217.668 162.605 213.301 161.736 209.743 156.055C209.394 155.499 208.688 155.348 208.166 155.719Z" fill="#1B3C87"/>
<path d="M233.993 125.621C233.557 122.947 234.18 120.612 235.385 120.404C236.59 120.196 237.92 122.194 238.357 124.867C238.794 127.541 238.171 129.876 236.966 130.084C235.76 130.292 234.43 128.294 233.993 125.621Z" fill="#1B3C87"/>
<path d="M201.242 127.234C200.806 124.56 201.429 122.225 202.634 122.017C203.839 121.809 205.169 123.807 205.606 126.48C206.043 129.154 205.42 131.489 204.215 131.697C203.009 131.905 201.679 129.907 201.242 127.234Z" fill="#1B3C87"/>
<path d="M141.582 105.681C141.582 80.3545 168.6 63.1518 186.768 57.4175C201.455 52.7824 224.5 45.4712 236.612 45.4712C251.518 45.4712 263.164 61.2404 263.164 77.0096C263.164 94.2123 254.313 107.114 243.599 109.981C241.736 104.247 240.804 101.858 240.804 101.858C238.941 104.247 189.097 110.459 172.327 109.981C173.724 116.194 174.656 138.175 165.34 138.653C160.215 139.131 141.582 144.865 141.582 105.681Z" fill="#192A2B"/>
<path fill-rule="evenodd" clip-rule="evenodd" d="M267.074 61.6582C263.291 49.8866 253.405 40.037 241.262 40.037C235.087 40.037 226.227 41.8731 217.172 44.2438C208.268 46.5746 199.061 49.4537 191.83 51.715L191.388 51.8533L191.381 51.8554C185.749 53.6558 180.32 56.0537 175.183 59.0094C174.651 59.3155 174.464 60.0018 174.765 60.5425C175.066 61.0831 175.741 61.2733 176.273 60.9673C181.274 58.0899 186.56 55.7554 192.042 54.0025C192.043 54.0022 192.044 54.0018 192.045 54.0015L192.465 53.8703C199.705 51.6062 208.87 48.7401 217.724 46.4224C226.782 44.0512 235.397 42.2868 241.262 42.2868C252.151 42.2868 261.381 51.1883 264.97 62.3568C265.16 62.9473 265.784 63.2697 266.365 63.0768C266.947 62.8839 267.264 62.2488 267.074 61.6582Z" fill="#1B3C87"/>
<path fill-rule="evenodd" clip-rule="evenodd" d="M160.134 71.6232C159.711 71.1724 159.023 71.1708 158.597 71.6197C151.03 79.6077 145.547 89.6777 145.547 101.523C145.547 121.394 150.111 130.367 155.775 134.128C160.563 137.307 165.898 136.51 168.741 136.085C169.195 136.017 169.585 135.959 169.899 135.928C172.66 135.771 174.585 133.946 175.865 131.496C177.135 129.064 177.854 125.883 178.231 122.629C178.984 116.116 178.411 108.871 177.699 105.601C177.564 104.982 176.981 104.595 176.396 104.738C175.812 104.881 175.447 105.5 175.582 106.119C176.234 109.115 176.798 116.089 176.074 122.348C175.711 125.48 175.038 128.323 173.964 130.38C172.903 132.411 171.539 133.534 169.767 133.628C169.752 133.629 169.737 133.63 169.723 133.631C169.303 133.672 168.824 133.74 168.295 133.815C165.379 134.231 160.972 134.86 156.929 132.176C152.25 129.069 147.721 121.173 147.721 101.523C147.721 90.4839 152.822 80.9667 160.131 73.2522C160.556 72.8033 160.557 72.074 160.134 71.6232Z" fill="#1B3C87"/>
<path fill-rule="evenodd" clip-rule="evenodd" d="M266.276 82.1842C265.679 82.0384 265.079 82.4126 264.936 83.0199C262.362 93.9248 255.834 101.618 248.377 104.085C247.611 101.774 247.024 100.085 246.614 98.9381C246.379 98.2824 246.203 97.8038 246.085 97.4877C246.025 97.3297 245.981 97.2122 245.951 97.1335C245.935 97.0942 245.924 97.0645 245.916 97.0443L245.907 97.0211L245.905 97.0148L245.904 97.0129L245.904 97.0123L245.904 97.0121C245.904 97.012 245.903 97.0119 244.871 97.4319L245.903 97.0119C245.757 96.6382 245.425 96.372 245.034 96.3132C244.677 96.2595 244.319 96.3853 244.072 96.646C244.049 96.6598 243.994 96.6911 243.893 96.7365C243.685 96.8295 243.378 96.9407 242.961 97.0668C242.131 97.3179 240.966 97.5981 239.508 97.8991C236.598 98.4996 232.61 99.1649 228 99.8346C218.783 101.173 207.139 102.522 196.785 103.403C196.173 103.455 195.718 104.001 195.769 104.624C195.821 105.246 196.358 105.709 196.97 105.657C207.366 104.772 219.054 103.419 228.314 102.074C232.942 101.401 236.979 100.729 239.95 100.116C241.433 99.8097 242.672 99.5139 243.595 99.2349C243.837 99.1618 244.064 99.0877 244.272 99.0126C244.347 99.2168 244.431 99.4494 244.524 99.7111C244.986 101.002 245.68 103.003 246.608 105.834C246.793 106.398 247.377 106.721 247.943 106.57C256.821 104.212 264.278 95.4976 267.098 83.5479C267.241 82.9405 266.873 82.33 266.276 82.1842Z" fill="#1B3C87"/>
<path d="M162.066 154.157C155.133 154.157 149.512 148.379 149.512 141.251C149.512 134.123 155.133 128.344 162.066 128.344C169 128.344 174.621 134.123 174.621 141.251C174.621 148.379 169 154.157 162.066 154.157Z" fill="white"/>
<path fill-rule="evenodd" clip-rule="evenodd" d="M168.069 123.727C167.87 124.343 168.221 125 168.854 125.195C171.364 125.966 173.556 127.496 175.111 129.562C176.667 131.628 177.505 134.123 177.503 136.684C177.503 137.33 178.041 137.854 178.705 137.854C179.369 137.854 179.907 137.331 179.907 136.685C179.909 133.627 178.908 130.647 177.05 128.18C175.193 125.712 172.575 123.885 169.577 122.964C168.944 122.77 168.269 123.112 168.069 123.727Z" fill="#1B3C87"/>
<path fill-rule="evenodd" clip-rule="evenodd" d="M164.355 125.325C165.987 125.108 167.645 125.263 169.215 125.778C169.799 125.97 170.422 125.63 170.605 125.019C170.789 124.408 170.464 123.757 169.879 123.565C168.004 122.949 166.025 122.765 164.075 123.023C162.126 123.282 160.253 123.979 158.585 125.065C156.917 126.151 155.493 127.601 154.411 129.316C153.328 131.032 152.613 132.971 152.314 135.002C152.015 137.034 152.138 139.108 152.677 141.085C153.216 143.061 154.156 144.893 155.434 146.454C156.712 148.015 158.298 149.268 160.082 150.129C161.866 150.99 163.807 151.437 165.772 151.44L165.774 151.44C166.925 151.44 168.071 151.289 169.185 150.991C169.779 150.833 170.137 150.201 169.986 149.58C169.834 148.96 169.23 148.585 168.637 148.743C167.701 148.993 166.74 149.12 165.775 149.12C164.13 149.117 162.505 148.743 161.011 148.022C159.517 147.301 158.189 146.252 157.119 144.945C156.049 143.637 155.261 142.104 154.81 140.449C154.359 138.794 154.256 137.057 154.506 135.356C154.757 133.655 155.356 132.031 156.262 130.595C157.168 129.158 158.361 127.944 159.758 127.034C161.154 126.125 162.723 125.542 164.355 125.325Z" fill="#1B3C87"/>
</svg>
