<svg  viewBox="0 0 339 359" fill="none" xmlns="http://www.w3.org/2000/svg">
<path d="M65.7029 39.7909C42.125 65.1029 32.9389 103.995 25.4377 143.851C17.9364 183.706 12.1174 224.608 28.2726 250.642C44.3484 276.678 82.3934 287.847 118.602 299.659C154.807 311.551 189.178 324.168 216.049 314.204C242.84 304.238 262.13 271.857 287.545 237.385C312.883 202.992 344.345 166.591 337.915 138.708C331.408 110.905 287.085 91.7004 252.026 68.3976C216.965 45.1747 191.168 17.9344 159.323 10.2218C127.402 2.58654 89.3569 14.3982 65.7029 39.7909Z" fill="#EAF0FF"/>
<path d="M2.62439 127.678L223.703 332.295L281.978 29.0056L2.62439 127.678Z" stroke="#FFD6D6" stroke-width="2"/>
<path fill-rule="evenodd" clip-rule="evenodd" d="M165.732 240.483L144.891 328.981H127.701L139.357 158.786L163.024 161.877L165.732 240.483Z" fill="#3C3744"/>
<path fill-rule="evenodd" clip-rule="evenodd" d="M142.23 154.502C142.077 154.634 141.981 154.827 141.967 155.036L140.55 175.739C140.521 176.158 140.822 176.523 141.221 176.553C141.62 176.583 141.967 176.267 141.996 175.848L143.359 155.944L165.655 158.856L168.337 236.71L162.016 263.553C161.92 263.961 162.157 264.374 162.546 264.475C162.934 264.576 163.327 264.327 163.423 263.919L169.769 236.972C169.785 236.903 169.792 236.832 169.79 236.761L167.082 158.153C167.069 157.78 166.8 157.472 166.447 157.426L142.78 154.335C142.583 154.309 142.384 154.37 142.23 154.502Z" fill="#1B3C87"/>
<path fill-rule="evenodd" clip-rule="evenodd" d="M137.665 228.507C137.266 228.476 136.919 228.792 136.89 229.211L130.314 325.23C130.299 325.441 130.369 325.648 130.506 325.803C130.643 325.958 130.835 326.045 131.037 326.045H148.228C148.561 326.045 148.852 325.807 148.932 325.467L158.677 284.083C158.773 283.675 158.536 283.262 158.148 283.161C157.759 283.061 157.366 283.31 157.27 283.718L147.66 324.523H131.816L138.336 229.32C138.365 228.901 138.064 228.537 137.665 228.507Z" fill="#1B3C87"/>
<path fill-rule="evenodd" clip-rule="evenodd" d="M193.319 157.904C193.21 162.505 194.524 331.589 194.524 331.589H176.117C174.692 323.426 152.668 159.974 152.668 159.974C152.668 159.974 193.429 153.302 193.319 157.904Z" fill="#3C3744"/>
<path fill-rule="evenodd" clip-rule="evenodd" d="M149.151 40.0604C150.086 46.9338 144.481 57.8391 149.739 67.5498C156.753 80.5025 186.108 72.2857 189.042 70.7808C190.973 69.7868 192.923 68.5004 192.761 60.9451C192.599 53.3898 181.178 42.6962 180.518 34.1622C180.113 28.9757 177.597 15.7441 172.365 13.4399C151.304 1.00246 148.216 33.1861 149.151 40.0604Z" fill="#FB5D64"/>
<path fill-rule="evenodd" clip-rule="evenodd" d="M173.278 12.3376C173.155 12.7375 173.364 13.1665 173.745 13.2958C174.853 13.6721 175.892 14.698 176.839 16.2585C177.777 17.8056 178.568 19.7854 179.216 21.9056C180.512 26.1444 181.199 30.8102 181.398 33.3557C181.624 36.2717 183.014 39.3516 184.716 42.3672C185.573 43.8851 186.524 45.4109 187.471 46.9132C187.608 47.1318 187.746 47.3497 187.883 47.5671C188.693 48.8494 189.49 50.1114 190.224 51.3506C190.436 51.7073 190.883 51.8165 191.223 51.5944C191.563 51.3723 191.667 50.903 191.455 50.5462C190.709 49.2871 189.899 48.0046 189.09 46.7233C188.953 46.5066 188.816 46.29 188.68 46.0735C187.733 44.5717 186.8 43.0736 185.964 41.5913C184.279 38.6066 183.041 35.7806 182.843 33.2321L182.843 33.2317C182.637 30.5949 181.933 25.8113 180.596 21.4405C179.928 19.2558 179.092 17.1407 178.062 15.4412C177.039 13.7551 175.767 12.3828 174.191 11.8477C173.81 11.7184 173.401 11.9377 173.278 12.3376Z" fill="#1B3C87"/>
<path fill-rule="evenodd" clip-rule="evenodd" d="M194.275 63.2227C193.88 63.1575 193.509 63.4412 193.446 63.8563C193.167 65.7261 192.628 66.7567 192.064 67.4658C191.774 67.8309 191.463 68.1284 191.132 68.4291C191.079 68.477 191.025 68.5257 190.97 68.5752C190.692 68.8253 190.39 69.0965 190.119 69.3951C189.843 69.6993 189.854 70.181 190.144 70.471C190.433 70.761 190.892 70.7495 191.169 70.4453C191.385 70.207 191.621 69.9946 191.897 69.7455C191.956 69.6922 192.017 69.6373 192.08 69.5801C192.426 69.2661 192.809 68.9037 193.177 68.4413C193.93 67.4955 194.563 66.2002 194.879 64.0926C194.941 63.6774 194.671 63.2879 194.275 63.2227Z" fill="#1B3C87"/>
<path fill-rule="evenodd" clip-rule="evenodd" d="M103.552 38.7722H52.6373V68.1985H103.552V38.7722Z" fill="#EAF0FF"/>
<path fill-rule="evenodd" clip-rule="evenodd" d="M155.315 155.242C155.315 155.242 155.315 155.242 155.426 155.994L155.315 155.242C154.923 155.306 154.653 155.688 154.708 156.1L156.121 166.566C156.177 166.982 156.544 167.272 156.941 167.213C157.337 167.154 157.613 166.769 157.557 166.353L156.245 156.632C156.519 156.589 156.868 156.534 157.284 156.469C158.396 156.296 159.986 156.053 161.893 155.777C165.708 155.224 170.79 154.535 175.867 153.99C180.95 153.444 186.004 153.045 189.769 153.066C191.66 153.077 193.18 153.194 194.206 153.433C194.725 153.555 195.056 153.694 195.239 153.822C195.309 153.87 195.341 153.904 195.354 153.922C195.317 155.669 195.449 176.94 195.639 204.008C195.642 204.428 195.969 204.766 196.369 204.763C196.77 204.76 197.092 204.417 197.089 203.996C196.898 176.801 196.766 155.519 196.804 153.942L196.804 153.942C196.819 153.301 196.457 152.843 196.041 152.554C195.64 152.274 195.106 152.085 194.521 151.948C193.339 151.672 191.692 151.555 189.777 151.544C185.93 151.523 180.814 151.929 175.72 152.476C170.62 153.024 165.519 153.715 161.694 154.269C159.782 154.547 158.188 154.79 157.071 154.963C156.513 155.05 156.074 155.12 155.775 155.168C155.625 155.192 155.51 155.21 155.433 155.223C155.394 155.229 155.364 155.234 155.345 155.237L155.315 155.242ZM195.356 153.925C195.358 153.934 195.361 153.938 195.362 153.938C195.362 153.938 195.361 153.934 195.356 153.925Z" fill="#1B3C87"/>
<path fill-rule="evenodd" clip-rule="evenodd" d="M160.676 194.891C160.28 194.95 160.004 195.336 160.061 195.752C163.832 223.643 168.868 260.805 172.682 288.639C172.739 289.055 173.106 289.344 173.503 289.284C173.899 289.224 174.174 288.839 174.117 288.423C170.304 260.59 165.267 223.429 161.496 195.538C161.44 195.122 161.073 194.832 160.676 194.891Z" fill="#1B3C87"/>
<path fill-rule="evenodd" clip-rule="evenodd" d="M196.686 249.062C196.285 249.065 195.963 249.408 195.966 249.828C196.115 269.933 196.262 289.38 196.373 303.8C196.428 311.011 196.474 316.965 196.506 321.116C196.522 323.192 196.534 324.817 196.543 325.923L196.55 326.849H179.483C179.227 325.222 178.696 321.526 177.959 316.264C177.901 315.848 177.532 315.56 177.136 315.621C176.74 315.683 176.466 316.069 176.525 316.485C177.379 322.58 177.961 326.614 178.158 327.747C178.221 328.108 178.521 328.371 178.871 328.371H197.281C197.474 328.371 197.659 328.29 197.796 328.146C197.932 328.001 198.007 327.806 198.006 327.603L197.281 327.61C198.006 327.603 198.006 327.603 198.006 327.603L197.993 325.91C197.984 324.804 197.972 323.179 197.956 321.104C197.923 316.952 197.878 310.998 197.822 303.788C197.712 289.367 197.565 269.921 197.416 249.817C197.413 249.396 197.086 249.058 196.686 249.062Z" fill="#1B3C87"/>
<path fill-rule="evenodd" clip-rule="evenodd" d="M122.846 103.551C121.361 106.199 117.052 113.593 117.052 113.593C117.052 113.593 96.3026 82.3891 95.0552 80.5042C93.8078 78.6192 94.0103 73.107 92.6455 73.1733C91.2807 73.2397 66.4627 72.6751 66.4627 75.168C66.4627 77.6609 80.8894 81.1512 83.7397 83.145C86.59 85.1388 110.694 137.179 120.075 137.179C129.455 137.179 138.361 124.589 139.133 121.287C139.905 117.985 135.057 81.7651 122.846 103.551Z" fill="white"/>
<path fill-rule="evenodd" clip-rule="evenodd" d="M86.4775 69.9585C86.4744 69.5383 86.1474 69.2002 85.747 69.2034C81.9136 69.234 77.4633 69.3368 73.9648 69.6324C72.2209 69.7798 70.6821 69.9775 69.5668 70.2472C69.0154 70.3806 68.5199 70.5423 68.1461 70.7506C67.8271 70.9284 67.3141 71.2998 67.3141 71.9616C67.3141 72.6484 67.7877 73.1744 68.2101 73.5312C68.6737 73.9227 69.306 74.3008 70.0224 74.6643C71.462 75.3948 73.3908 76.1396 75.3728 76.8564C76.2851 77.1863 77.1999 77.5074 78.0917 77.8203C79.1677 78.1979 80.2101 78.5637 81.174 78.9192C82.9506 79.5744 84.2918 80.1365 84.9134 80.5715C84.9134 80.5714 84.9134 80.5714 84.9134 80.5714C84.9133 80.5715 84.9277 80.5822 84.9576 80.612C84.989 80.6432 85.0294 80.6873 85.0794 80.747C85.18 80.8671 85.3039 81.032 85.4517 81.2453C85.747 81.6714 86.1137 82.2556 86.5469 82.9844C87.4124 84.4405 88.5179 86.4307 89.8079 88.7946C90.5264 90.1111 91.3012 91.542 92.1219 93.0575C94.2428 96.9744 96.6695 101.456 99.2172 105.984C99.4208 106.345 99.8653 106.466 100.21 106.252C100.555 106.038 100.669 105.571 100.466 105.21C97.9244 100.694 95.5077 96.2304 93.3884 92.3167C92.5661 90.7981 91.7886 89.3623 91.066 88.0381C89.7759 85.6741 88.6584 83.6616 87.777 82.1788C87.3368 81.4382 86.9492 80.819 86.6242 80.35C86.4618 80.1157 86.3091 79.9102 86.1684 79.7421C86.0354 79.5834 85.8825 79.4205 85.7182 79.3055L85.316 79.9386L85.7182 79.3055C84.9149 78.7432 83.3843 78.1212 81.6546 77.4833C80.6954 77.1296 79.6236 76.7533 78.5288 76.3689C77.6333 76.0546 76.7225 75.7348 75.8451 75.4175C73.8641 74.701 72.0079 73.9814 70.6534 73.2941C69.9727 72.9487 69.4555 72.6296 69.119 72.3454C68.987 72.2339 68.9039 72.1457 68.8517 72.0809C69.0605 71.9699 69.4023 71.8488 69.8922 71.7303C70.9012 71.4864 72.3543 71.2954 74.0812 71.1495C77.5243 70.8585 81.9307 70.7559 85.7581 70.7253C86.1584 70.7221 86.4805 70.3788 86.4775 69.9585ZM68.6916 72.1871C68.6922 72.1872 68.6966 72.1834 68.7029 72.1755C68.6941 72.1831 68.6909 72.187 68.6916 72.1871Z" fill="#1B3C87"/>
<path fill-rule="evenodd" clip-rule="evenodd" d="M95.245 71.6558C94.8519 71.7355 94.5947 72.1346 94.6706 72.5472C94.7238 72.8361 94.7774 73.1537 94.833 73.4832C94.9321 74.0704 95.0377 74.6957 95.1585 75.2646C95.3464 76.1492 95.6036 77.0784 96.0374 77.732C96.6649 78.6806 102.163 86.9515 107.503 94.9847C110.175 99.0031 112.807 102.963 114.772 105.917C115.754 107.395 116.57 108.621 117.14 109.478L118.033 110.822C118.034 110.822 118.034 110.823 118.628 110.387C119.246 110.784 119.246 110.784 119.246 110.784L119.247 110.784L119.295 110.7C119.327 110.646 119.374 110.565 119.435 110.461C119.555 110.254 119.73 109.954 119.943 109.587C120.371 108.852 120.956 107.845 121.588 106.755C122.85 104.576 124.301 102.061 125.047 100.731C126.551 98.0458 127.91 96.3174 129.111 95.3112C130.303 94.3136 131.288 94.0655 132.106 94.2107C132.945 94.3598 133.775 94.9517 134.583 95.9921C135.387 97.0286 136.117 98.4436 136.763 100.093C138.055 103.39 138.959 107.482 139.491 110.972C139.756 112.713 139.927 114.291 140.008 115.528C140.049 116.147 140.066 116.674 140.062 117.09C140.059 117.523 140.032 117.783 140.005 117.899C139.846 118.58 139.213 119.888 138.13 121.522C137.065 123.129 135.617 124.974 133.904 126.719C130.449 130.238 126.053 133.212 121.651 133.212C120.925 133.212 119.958 132.783 118.751 131.814C117.565 130.861 116.241 129.464 114.817 127.711C114.557 127.391 114.1 127.353 113.795 127.626C113.491 127.898 113.454 128.379 113.714 128.699C115.169 130.49 116.569 131.977 117.87 133.023C119.152 134.051 120.438 134.734 121.651 134.734C126.63 134.734 131.377 131.413 134.914 127.811C136.696 125.996 138.205 124.075 139.32 122.391C140.417 120.736 141.186 119.232 141.413 118.261C141.482 117.964 141.508 117.554 141.512 117.104C141.516 116.637 141.497 116.069 141.455 115.424C141.37 114.134 141.194 112.51 140.922 110.731C140.381 107.182 139.455 102.962 138.104 99.5146C137.43 97.7922 136.636 96.2272 135.707 95.0307C134.781 93.8383 133.668 92.9444 132.348 92.7101C131.006 92.4719 129.615 92.9427 128.207 94.1214C126.81 95.2916 125.345 97.1971 123.797 99.9588L123.797 99.9589C123.058 101.277 121.613 103.783 120.349 105.964C119.718 107.053 119.133 108.059 118.706 108.794C118.665 108.864 118.626 108.932 118.588 108.997L118.329 108.607C117.759 107.75 116.943 106.524 115.961 105.046C113.996 102.092 111.364 98.1321 108.692 94.1137C103.349 86.0761 97.8507 77.8049 97.2277 76.863L97.227 76.862C96.9707 76.4757 96.7598 75.8098 96.5736 74.9334C96.4582 74.3897 96.3648 73.8348 96.2707 73.2761C96.2138 72.9378 96.1567 72.5982 96.0942 72.2587C96.0183 71.846 95.6381 71.5761 95.245 71.6558ZM118.628 110.387L119.246 110.784C119.119 111.003 118.894 111.14 118.65 111.148C118.405 111.155 118.174 111.033 118.034 110.823L118.628 110.387Z" fill="#1B3C87"/>
<path fill-rule="evenodd" clip-rule="evenodd" d="M147.137 69.6692C134.439 63.7557 120.849 95.0451 120.52 101.788C124.26 104.672 141.541 112.325 145.635 111.897C149.063 106.293 162.257 76.711 147.137 69.6692Z" fill="#46DBC9"/>
<path fill-rule="evenodd" clip-rule="evenodd" d="M140.534 69.5397C143.478 67.4196 146.437 66.6988 149.299 68.0317C152.833 69.6771 154.718 72.6231 155.512 76.2857C156.314 79.9823 155.997 84.3907 155.088 88.8296C153.339 97.3738 149.458 105.765 147.68 108.821C147.289 108.816 146.77 108.753 146.126 108.624C145.286 108.457 144.286 108.189 143.173 107.842C140.947 107.149 138.308 106.151 135.67 105.046C133.034 103.941 130.411 102.735 128.217 101.627C126.258 100.637 124.678 99.7437 123.735 99.0833C123.922 97.4375 124.764 94.5301 126.157 91.056C127.661 87.3043 129.766 82.9892 132.25 79.0717C134.74 75.1444 137.579 71.6678 140.534 69.5397ZM124.82 90.4658C123.3 94.259 122.342 97.5863 122.252 99.4165C122.24 99.6721 122.351 99.9172 122.547 100.069C123.542 100.836 125.378 101.881 127.589 102.998C129.815 104.123 132.469 105.343 135.133 106.459C137.795 107.575 140.478 108.59 142.76 109.301C143.901 109.657 144.951 109.939 145.855 110.119C146.745 110.297 147.545 110.387 148.163 110.322C148.384 110.299 148.582 110.172 148.702 109.976C150.456 107.106 154.648 98.2249 156.505 89.1493C157.434 84.6116 157.795 79.9536 156.926 75.9478C156.049 71.908 153.914 68.5156 149.887 66.6405L149.887 66.6405C146.401 65.0171 142.9 65.9902 139.714 68.2847C136.539 70.5711 133.579 74.2297 131.043 78.2284C128.501 82.2371 126.354 86.6391 124.82 90.4658Z" fill="#1B3C87"/>
<path fill-rule="evenodd" clip-rule="evenodd" d="M88.2295 36.4355C88.2295 36.0153 87.905 35.6746 87.5046 35.6746H55.3967C54.9963 35.6746 54.6718 36.0153 54.6718 36.4355V65.8621C54.6718 66.2823 54.9963 66.623 55.3967 66.623H106.309C106.71 66.623 107.034 66.2823 107.034 65.8621V46.0621C107.034 45.6419 106.71 45.3012 106.309 45.3012C105.909 45.3012 105.584 45.6419 105.584 46.0621V65.1011H56.1216V37.1965H87.5046C87.905 37.1965 88.2295 36.8558 88.2295 36.4355Z" fill="#1B3C87"/>
<path fill-rule="evenodd" clip-rule="evenodd" d="M72.4295 45.6938C72.1309 45.4137 71.6726 45.4408 71.4059 45.7542L60.5764 58.4766C60.3096 58.79 60.3354 59.2711 60.6339 59.5511C60.9325 59.8311 61.3908 59.8041 61.6575 59.4907L72.487 46.7683C72.7538 46.4549 72.728 45.9738 72.4295 45.6938Z" fill="#1B3C87"/>
<path fill-rule="evenodd" clip-rule="evenodd" d="M98.3615 40.8547C98.1682 40.4867 97.7273 40.3527 97.3767 40.5556L80.6098 50.2558C80.2591 50.4587 80.1315 50.9215 80.3248 51.2896C80.5181 51.6576 80.959 51.7915 81.3096 51.5887L98.0765 41.8885C98.4272 41.6856 98.5547 41.2228 98.3615 40.8547Z" fill="#1B3C87"/>
<path fill-rule="evenodd" clip-rule="evenodd" d="M55.415 36.8182C55.2234 37.1873 55.3532 37.6495 55.7047 37.8505L80.223 51.8722C80.5746 52.0733 81.0149 51.9371 81.2064 51.568C81.398 51.199 81.2682 50.7368 80.9167 50.5357L56.3984 36.514C56.0468 36.313 55.6065 36.4491 55.415 36.8182Z" fill="#1B3C87"/>
<path fill-rule="evenodd" clip-rule="evenodd" d="M88.8905 45.586C88.5921 45.8661 88.5664 46.3471 88.8332 46.6605L105.579 66.3243C105.846 66.6376 106.304 66.6646 106.602 66.3845C106.901 66.1044 106.927 65.6233 106.66 65.31L89.9142 45.6462C89.6473 45.3328 89.189 45.3059 88.8905 45.586Z" fill="#1B3C87"/>
<path fill-rule="evenodd" clip-rule="evenodd" d="M203.78 327.645C203.78 327.224 203.456 326.884 203.055 326.884H171.833C171.433 326.884 171.109 327.224 171.109 327.645C171.109 328.065 171.433 328.405 171.833 328.405H203.055C203.456 328.405 203.78 328.065 203.78 327.645Z" fill="#1B3C87"/>
<path fill-rule="evenodd" clip-rule="evenodd" d="M204.258 333.624C204.258 333.203 203.934 332.863 203.533 332.863H172.31C171.91 332.863 171.585 333.203 171.585 333.624C171.585 334.044 171.91 334.385 172.31 334.385H203.533C203.934 334.385 204.258 334.044 204.258 333.624Z" fill="#1B3C87"/>
<path fill-rule="evenodd" clip-rule="evenodd" d="M151.899 325.365C151.899 324.944 151.575 324.604 151.174 324.604H127.128C126.727 324.604 126.403 324.944 126.403 325.365C126.403 325.785 126.727 326.125 127.128 326.125H151.174C151.575 326.125 151.899 325.785 151.899 325.365Z" fill="#1B3C87"/>
<path fill-rule="evenodd" clip-rule="evenodd" d="M151.338 330.902C151.338 330.482 151.013 330.141 150.613 330.141H126.566C126.166 330.141 125.841 330.482 125.841 330.902C125.841 331.322 126.166 331.663 126.566 331.663H150.613C151.013 331.663 151.338 331.322 151.338 330.902Z" fill="#1B3C87"/>
<path fill-rule="evenodd" clip-rule="evenodd" d="M163.812 60.8197C135.775 61.0935 130.291 111.977 138.694 159.235C143.115 162.577 185.57 165.084 192.912 159.884C200.254 154.685 201.844 60.449 163.812 60.8197Z" fill="#46DBC9"/>
<path fill-rule="evenodd" clip-rule="evenodd" d="M195.887 155.397C195.494 156.342 195.126 156.845 194.845 157.044L195.251 157.675L194.845 157.044C193.9 157.714 192.193 158.29 189.843 158.741C187.522 159.186 184.666 159.492 181.5 159.677C181.1 159.7 180.794 160.059 180.817 160.479C180.839 160.898 181.181 161.22 181.581 161.196C184.78 161.01 187.701 160.699 190.104 160.238C192.479 159.782 194.445 159.164 195.656 158.306C196.293 157.855 196.798 157.012 197.216 156.006C197.646 154.971 198.033 153.642 198.375 152.08C199.058 148.953 199.578 144.803 199.873 139.999C200.463 130.388 200.161 118.079 198.434 105.942C196.708 93.8156 193.553 81.7959 188.398 72.8092C183.235 63.8077 176.001 57.7535 166.148 57.8495L166.148 57.8495C158.345 57.9261 152.235 61.8063 147.677 68.3051C143.137 74.7771 140.125 83.8509 138.425 94.405C138.359 94.8194 138.624 95.2121 139.019 95.2822C139.414 95.3522 139.788 95.0731 139.855 94.6587C141.535 84.2252 144.492 75.4123 148.844 69.2075C153.178 63.0294 158.886 59.4428 166.161 59.3714L166.155 58.6105L166.161 59.3714C175.323 59.2821 182.151 64.8683 187.156 73.5942C192.169 82.335 195.287 94.1297 197 106.166C198.711 118.192 199.01 130.393 198.426 139.902C198.134 144.658 197.622 148.72 196.962 151.74C196.631 153.252 196.268 154.481 195.887 155.397Z" fill="#1B3C87"/>
<path fill-rule="evenodd" clip-rule="evenodd" d="M137.492 122.763C137.091 122.776 136.777 123.127 136.789 123.547C137.105 134.478 138.321 145.924 140.319 157.163C140.354 157.355 140.457 157.527 140.609 157.641C141.164 158.06 142.087 158.41 143.198 158.718C144.339 159.034 145.773 159.331 147.424 159.604C150.727 160.151 154.945 160.609 159.511 160.928C159.91 160.956 160.255 160.639 160.282 160.22C160.309 159.8 160.006 159.438 159.607 159.41C155.069 159.092 150.897 158.638 147.649 158.101C146.025 157.832 144.643 157.544 143.569 157.246C142.681 157 142.061 156.762 141.686 156.553C139.736 145.492 138.549 134.241 138.238 123.501C138.226 123.08 137.892 122.75 137.492 122.763Z" fill="#1B3C87"/>
<path fill-rule="evenodd" clip-rule="evenodd" d="M186.383 69.2046C171.958 72.0105 179.921 109.013 183.838 115.317C188.798 115.523 208.184 111.343 211.383 108.328C210.795 101.065 203.56 65.8597 186.383 69.2046Z" fill="#46DBC9"/>
<path fill-rule="evenodd" clip-rule="evenodd" d="M205.568 82.5772C209.56 91.7818 211.497 102.313 211.784 105.866C211.818 106.285 212.169 106.596 212.568 106.56C212.967 106.525 213.263 106.156 213.229 105.738C212.929 102.028 210.955 91.3246 206.888 81.9467C204.854 77.2577 202.271 72.8373 199.063 69.794C195.836 66.7326 191.943 65.0404 187.375 65.9302C186.981 66.0069 186.721 66.404 186.794 66.8172C186.867 67.2305 187.246 67.5033 187.639 67.4266C191.66 66.6435 195.112 68.0975 198.091 70.9232C201.089 73.7672 203.572 77.9749 205.568 82.5772Z" fill="#1B3C87"/>
<path fill-rule="evenodd" clip-rule="evenodd" d="M179.406 89.1874C179.008 89.2251 178.713 89.595 178.749 90.0136C179.178 95.0133 180.093 100.017 181.136 104.152C182.171 108.256 183.355 111.596 184.355 113.205C184.483 113.412 184.699 113.54 184.934 113.55C186.313 113.607 188.67 113.348 191.404 112.898C194.158 112.446 197.35 111.791 200.428 111.034C200.818 110.938 201.06 110.529 200.969 110.12C200.877 109.711 200.487 109.457 200.097 109.552C197.052 110.301 193.895 110.948 191.18 111.395C188.709 111.801 186.649 112.032 185.373 112.036C184.538 110.515 183.493 107.551 182.538 103.763C181.513 99.701 180.614 94.7819 180.193 89.8771C180.157 89.4585 179.805 89.1497 179.406 89.1874Z" fill="#1B3C87"/>
<path fill-rule="evenodd" clip-rule="evenodd" d="M207.914 109.14C209.364 113.831 214.455 133.79 213.908 139.559C213.362 145.328 189.088 184.757 185.344 187.801C183.774 184.948 179.969 177.848 179.969 177.848C182.022 174.678 194.342 137.91 194.225 133.917C194.107 129.923 189.413 116.565 188.085 114.283" fill="white"/>
<path fill-rule="evenodd" clip-rule="evenodd" d="M189.777 111.771C189.435 111.99 189.328 112.459 189.537 112.817C189.832 113.326 190.354 114.53 190.985 116.174C191.609 117.796 192.319 119.792 192.992 121.842C193.666 123.894 194.299 125.992 194.771 127.82C195.249 129.67 195.542 131.177 195.57 132.078M189.777 111.771C190.119 111.552 190.565 111.665 190.774 112.024L189.777 111.771ZM190.774 112.024C191.142 112.656 191.705 113.977 192.33 115.604L190.774 112.024ZM192.33 115.604C192.964 117.253 193.683 119.274 194.363 121.347L192.33 115.604ZM194.363 121.347C195.043 123.419 195.688 125.551 196.171 127.422L194.363 121.347ZM196.171 127.422C196.648 129.272 196.986 130.933 197.019 132.03L196.171 127.422ZM197.019 132.03L197.019 132.03L197.019 132.03ZM195.322 133.771C195.145 134.62 194.88 135.698 194.543 136.959C194.435 137.363 194.66 137.783 195.046 137.897C195.431 138.01 195.831 137.774 195.939 137.37C196.28 136.095 196.552 134.986 196.738 134.097C196.918 133.235 197.033 132.505 197.019 132.03M195.322 133.771C195.504 132.896 195.577 132.339 195.57 132.078L195.322 133.771Z" fill="#1B3C87"/>
<path fill-rule="evenodd" clip-rule="evenodd" d="M212.436 116.507C212.048 116.61 211.813 117.024 211.911 117.432C212.815 121.191 213.739 125.378 214.393 129.072C215.053 132.802 215.419 135.928 215.26 137.622M212.436 116.507C212.825 116.405 213.219 116.651 213.317 117.059L212.436 116.507ZM213.317 117.059C214.225 120.835 215.157 125.056 215.818 128.794L213.317 117.059ZM215.818 128.794C216.474 132.497 216.885 135.83 216.702 137.772L215.818 128.794ZM216.702 137.772C216.659 138.228 216.508 138.791 216.294 139.415L216.702 137.772ZM216.294 139.415C216.075 140.049 215.776 140.792 215.409 141.622L216.294 139.415ZM215.409 141.622C214.675 143.282 213.658 145.325 212.449 147.61L215.409 141.622ZM212.449 147.61C210.029 152.183 206.818 157.761 203.512 163.247L212.449 147.61ZM203.512 163.247C200.205 168.734 196.796 174.139 193.977 178.365L203.512 163.247ZM193.977 178.365C192.568 180.477 191.303 182.301 190.269 183.696L193.977 178.365ZM190.269 183.696C189.257 185.061 188.414 186.091 187.861 186.54L190.269 183.696ZM187.583 184.715C186.795 183.271 185.717 181.275 184.772 179.518C184.198 178.453 183.674 177.476 183.292 176.766C183.124 176.452 182.984 176.191 182.879 175.996C183.192 175.394 183.6 174.444 184.067 173.273C184.677 171.746 185.419 169.764 186.235 167.498C187.867 162.967 189.801 157.283 191.577 151.797C191.705 151.399 191.502 150.967 191.123 150.832C190.744 150.696 190.332 150.909 190.204 151.307C188.433 156.78 186.504 162.447 184.878 166.96C184.066 169.217 183.33 171.181 182.73 172.685C182.117 174.221 181.673 175.201 181.442 175.558C181.288 175.797 181.275 176.107 181.41 176.359L182.042 175.986C181.41 176.359 181.41 176.359 181.41 176.359L181.411 176.36L181.453 176.439C181.481 176.492 181.523 176.57 181.577 176.67C181.684 176.869 181.839 177.158 182.029 177.513C182.411 178.224 182.935 179.201 183.509 180.267C184.656 182.398 186.002 184.889 186.789 186.32C186.894 186.51 187.072 186.643 187.277 186.685C187.483 186.728 187.695 186.675 187.861 186.54M187.583 184.715C187.978 184.263 188.496 183.61 189.125 182.762C190.137 181.395 191.387 179.594 192.789 177.492C195.592 173.289 198.988 167.905 202.286 162.433C205.585 156.961 208.78 151.409 211.181 146.871C212.383 144.601 213.381 142.594 214.094 140.981C214.45 140.175 214.731 139.476 214.93 138.898C215.133 138.308 215.235 137.887 215.26 137.622" fill="#1B3C87"/>
<path fill-rule="evenodd" clip-rule="evenodd" d="M195.144 336.509L195.676 349.041L197.958 357.822L168.641 358.021L177.463 343.057L177.349 336.392" fill="white"/>
<path fill-rule="evenodd" clip-rule="evenodd" d="M179.484 333.002C179.083 333.01 178.765 333.356 178.772 333.777L178.881 340.218L170.173 354.992C170.034 355.227 170.028 355.523 170.157 355.765C170.286 356.006 170.53 356.155 170.794 356.153L188.406 356.033C188.807 356.031 189.129 355.688 189.126 355.268C189.124 354.847 188.797 354.509 188.397 354.511L172.095 354.622L180.226 340.828C180.3 340.704 180.337 340.56 180.335 340.414L180.221 333.749C180.214 333.329 179.884 332.995 179.484 333.002Z" fill="#1B3C87"/>
<path fill-rule="evenodd" clip-rule="evenodd" d="M197.26 333.118C196.86 333.137 196.55 333.493 196.568 333.913L197.101 346.444C197.103 346.501 197.111 346.556 197.126 346.611L199.407 355.391C199.512 355.797 199.911 356.036 200.297 355.925C200.683 355.815 200.911 355.396 200.806 354.991L198.545 346.292L198.016 333.845C197.998 333.425 197.66 333.1 197.26 333.118Z" fill="#1B3C87"/>
<path fill-rule="evenodd" clip-rule="evenodd" d="M144.547 332.669L143.109 338.93L145.506 356.871L106.047 356.536L128.145 340.995L128.572 332.555" fill="white"/>
<path fill-rule="evenodd" clip-rule="evenodd" d="M130.757 330.296C130.357 330.274 130.016 330.596 129.994 331.016L129.568 339.456C129.547 339.876 129.854 340.234 130.254 340.256C130.654 340.278 130.995 339.956 131.016 339.537L131.442 331.096C131.464 330.676 131.157 330.318 130.757 330.296Z" fill="#1B3C87"/>
<path fill-rule="evenodd" clip-rule="evenodd" d="M146.864 330.427C146.474 330.329 146.083 330.58 145.989 330.989L144.551 337.249C144.53 337.342 144.526 337.438 144.538 337.533L146.817 354.6L110.55 354.292L123.668 345.07C124 344.836 124.089 344.364 123.866 344.014C123.644 343.665 123.193 343.572 122.861 343.806L107.789 354.401C107.525 354.586 107.407 354.931 107.498 355.251C107.59 355.571 107.869 355.791 108.187 355.794L147.646 356.129C147.857 356.131 148.058 356.036 148.197 355.87C148.336 355.703 148.399 355.481 148.37 355.262L145.993 337.465L147.399 331.345C147.492 330.937 147.253 330.526 146.864 330.427Z" fill="#1B3C87"/>
<path fill-rule="evenodd" clip-rule="evenodd" d="M62.1089 37.615C62.109 35.8137 61.6003 34.0528 60.6471 32.5551C59.6938 31.0573 58.3389 29.8899 56.7535 29.2005C55.1682 28.5111 53.4237 28.3307 51.7407 28.682C50.0576 29.0334 48.5117 29.9008 47.2983 31.1745C46.0849 32.4482 45.2586 34.071 44.9239 35.8376C44.5891 37.6043 44.761 39.4355 45.4178 41.0996C46.0745 42.7638 47.1867 44.1861 48.6135 45.1867C50.0404 46.1874 51.7179 46.7214 53.4339 46.7212C55.7346 46.7212 57.9411 45.7618 59.568 44.054C61.1949 42.3463 62.1089 40.0301 62.1089 37.615Z" fill="#FB5D64"/>
<path fill-rule="evenodd" clip-rule="evenodd" d="M54.7975 27.8374C56.2735 27.8375 57.7202 28.2689 58.9759 29.0831C60.2315 29.8974 61.2465 31.0625 61.9072 32.4479C62.5679 33.8333 62.8482 35.3843 62.7168 36.9275C62.5853 38.4706 62.0474 39.9449 61.163 41.1853C60.2787 42.4257 59.083 43.3833 57.7096 43.9508C56.3363 44.5184 54.8396 44.6735 53.387 44.3988C51.9344 44.1242 50.5834 43.4305 49.485 42.3956C48.3867 41.3607 47.5844 40.0253 47.1681 38.539C47.0551 38.1358 46.6522 37.905 46.268 38.0236C45.8839 38.1421 45.6641 38.5651 45.7771 38.9683C46.2694 40.7257 47.2179 42.3046 48.5165 43.5282C49.8151 44.7518 51.4125 45.5719 53.13 45.8966C54.8474 46.2214 56.617 46.038 58.2408 45.367C59.8645 44.6959 61.2783 43.5638 62.3239 42.0972C63.3694 40.6306 64.0055 38.8875 64.1609 37.063C64.3163 35.2385 63.9849 33.4046 63.2037 31.7666C62.4226 30.1286 61.2225 28.7511 59.7379 27.7884C58.2533 26.8256 56.5427 26.3156 54.7977 26.3154C54.3973 26.3154 54.0727 26.656 54.0727 27.0763C54.0726 27.4966 54.3972 27.8373 54.7975 27.8374Z" fill="#1B3C87"/>
<path fill-rule="evenodd" clip-rule="evenodd" d="M178.435 32.1504C178.985 20.1423 172.413 10.0523 163.754 9.61871C155.095 9.18508 147.629 18.554 147.078 30.5656C146.527 42.5771 153.1 52.6645 161.758 53.1015C170.416 53.5386 177.884 44.1594 178.435 32.1504Z" fill="white"/>
<path fill-rule="evenodd" clip-rule="evenodd" d="M176.394 40.0164C175.846 42.874 173.666 58.6367 173.828 67.8193C171.218 70.223 161.197 69.8914 159.472 67.5311C159.852 63.79 160.183 54.5725 159.338 52.1255" fill="white"/>
<path fill-rule="evenodd" clip-rule="evenodd" d="M160.888 50.7732C160.511 50.9164 160.317 51.3527 160.453 51.7479C160.625 52.2444 160.739 53.0996 160.789 54.2368C160.838 55.3517 160.823 56.6643 160.769 58.0302C160.661 60.7609 160.401 63.6581 160.212 65.5221C160.17 65.94 160.458 66.3149 160.856 66.3594C161.254 66.404 161.612 66.1013 161.654 65.6834C161.845 63.8063 162.108 60.8717 162.218 58.0932C162.273 56.7046 162.29 55.3433 162.238 54.1666C162.187 53.0122 162.068 51.9582 161.817 51.2295C161.68 50.8344 161.264 50.6301 160.888 50.7732Z" fill="#1B3C87"/>
<path fill-rule="evenodd" clip-rule="evenodd" d="M176.24 50.2164C175.842 50.171 175.484 50.4729 175.441 50.8907C174.927 55.847 174.514 61.3032 174.558 65.5201C173.966 65.9334 172.997 66.2784 171.751 66.5025C170.341 66.756 168.693 66.8349 167.112 66.7468C166.712 66.7246 166.37 67.0467 166.349 67.4664C166.328 67.8861 166.635 68.2444 167.035 68.2666C168.705 68.3596 170.462 68.2783 171.996 68.0025C173.496 67.7328 174.906 67.256 175.766 66.4632C175.927 66.3155 176.017 66.1012 176.013 65.8773C175.94 61.7109 176.355 56.1495 176.882 51.0552C176.925 50.6373 176.638 50.2618 176.24 50.2164Z" fill="#1B3C87"/>
<path fill-rule="evenodd" clip-rule="evenodd" d="M177.998 37.3405C177.605 37.2577 177.223 37.5246 177.144 37.9366C177.003 38.6734 176.762 40.2145 176.482 42.2418C176.425 42.6577 176.7 43.0437 177.096 43.1039C177.492 43.1641 177.86 42.8757 177.917 42.4599C178.196 40.4354 178.433 38.9295 178.566 38.2364C178.645 37.8244 178.39 37.4233 177.998 37.3405Z" fill="#1B3C87"/>
<path fill-rule="evenodd" clip-rule="evenodd" d="M149.042 37.1495C148.657 37.263 148.432 37.683 148.54 38.0877C150.668 46.054 156.131 52.0168 162.964 52.3619C165.683 52.4999 168.281 51.7283 170.597 50.2506C170.939 50.0323 171.048 49.5642 170.84 49.2051C170.632 48.8459 170.186 48.7318 169.844 48.9501C167.752 50.2849 165.437 50.9638 163.034 50.8417L163.034 50.8417C157.038 50.5389 151.961 45.2598 149.936 37.6768C149.828 37.2721 149.428 37.0361 149.042 37.1495Z" fill="#1B3C87"/>
<path fill-rule="evenodd" clip-rule="evenodd" d="M150.208 19.9123C149.833 19.7653 149.415 19.9653 149.275 20.3591C148.587 22.2937 148.104 24.3018 147.835 26.3473C147.78 26.7637 148.057 27.1478 148.454 27.2054C148.851 27.2629 149.217 26.9721 149.271 26.5557C149.526 24.6209 149.983 22.7213 150.634 20.8914C150.774 20.4976 150.583 20.0593 150.208 19.9123Z" fill="#1B3C87"/>
<path fill-rule="evenodd" clip-rule="evenodd" d="M165.904 29.0121C165.964 27.696 165.427 26.5993 164.706 26.5627C163.984 26.5261 163.349 27.5642 163.289 28.8795C163.229 30.1947 163.764 31.2923 164.487 31.3289C165.209 31.3655 165.843 30.3274 165.904 29.0121Z" fill="#1B3C87"/>
<path fill-rule="evenodd" clip-rule="evenodd" d="M155.803 28.0039C155.862 26.6876 155.326 25.5907 154.604 25.5542C153.883 25.5176 153.248 26.5558 153.188 27.8713C153.128 29.1868 153.663 30.2845 154.386 30.3211C155.108 30.3576 155.742 29.3194 155.803 28.0039Z" fill="#1B3C87"/>
<path fill-rule="evenodd" clip-rule="evenodd" d="M142.767 25.2433C142.767 25.2349 142.754 25.2272 142.737 25.2264C142.72 25.2256 142.705 25.2315 142.705 25.2408C142.705 25.2501 142.718 25.2569 142.735 25.2577C142.752 25.2586 142.766 25.2527 142.767 25.2433Z" fill="#1B3C87"/>
<path fill-rule="evenodd" clip-rule="evenodd" d="M158.448 28.9667C158.049 28.9264 157.695 29.2329 157.657 29.6512C157.572 30.5753 157.272 31.8504 156.67 32.9987C156.07 34.1443 155.203 35.1043 154.006 35.5327C153.627 35.6683 153.424 36.1006 153.553 36.4984C153.682 36.8962 154.094 37.1088 154.473 36.9733C156.119 36.3848 157.229 35.0914 157.941 33.7321C158.651 32.3757 158.999 30.8948 159.1 29.7971C159.139 29.3788 158.847 29.007 158.448 28.9667Z" fill="#1B3C87"/>
<path fill-rule="evenodd" clip-rule="evenodd" d="M165.069 39.6506C164.669 39.653 164.346 39.9957 164.349 40.4159C164.351 40.8251 164.18 41.4067 163.831 41.9059C163.489 42.3966 163.033 42.7257 162.516 42.7858C162.118 42.8321 161.831 43.2082 161.875 43.6259C161.919 44.0436 162.278 44.3448 162.676 44.2985C163.702 44.1792 164.489 43.5382 165 42.8061C165.506 42.0824 165.803 41.1884 165.798 40.4073C165.796 39.987 165.47 39.6482 165.069 39.6506Z" fill="#1B3C87"/>
<path fill-rule="evenodd" clip-rule="evenodd" d="M149.988 39.8617C149.596 39.9456 149.343 40.3475 149.423 40.7593C149.583 41.5832 149.586 42.7883 149.482 44.2637C149.38 45.7235 149.18 47.3784 148.967 49.0762C148.938 49.303 148.909 49.5309 148.88 49.7594C148.483 52.8985 148.069 56.1589 148.253 58.3036C148.452 60.6311 149.167 62.3291 149.848 63.4543C150.187 64.0156 150.516 64.4327 150.766 64.7138C150.89 64.8545 150.996 64.9613 151.072 65.0355C151.111 65.0726 151.142 65.1015 151.166 65.1225C151.177 65.1329 151.187 65.1414 151.194 65.1479C151.198 65.1511 151.201 65.1538 151.204 65.1561L151.207 65.1591L151.209 65.1603L151.209 65.1609C151.21 65.1611 151.21 65.1614 151.663 64.5674L151.21 65.1614C151.523 65.4241 151.979 65.3711 152.229 65.043C152.479 64.7159 152.429 64.2387 152.119 63.9756C152.119 63.9755 152.119 63.9755 152.119 63.9754C152.117 63.9743 152.114 63.9713 152.109 63.9665C152.098 63.9568 152.079 63.9396 152.054 63.915C152.003 63.8657 151.924 63.7863 151.826 63.6761C151.63 63.4556 151.358 63.1123 151.072 62.6391C150.501 61.6952 149.873 60.2273 149.697 58.1675C149.529 56.2009 149.921 53.1005 150.329 49.8682C150.354 49.6711 150.379 49.4735 150.404 49.2756C150.617 47.5814 150.823 45.8851 150.928 44.3752C151.033 42.8809 151.046 41.4978 150.843 40.4553C150.763 40.0435 150.381 39.7777 149.988 39.8617Z" fill="#1B3C87"/>
<path fill-rule="evenodd" clip-rule="evenodd" d="M180.641 7.99514C180.693 6.87974 180.428 5.77341 179.88 4.81608C179.332 3.85874 178.526 3.0934 177.564 2.61684C176.602 2.14028 175.527 1.97391 174.475 2.13878C173.423 2.30364 172.441 2.79233 171.654 3.54305C170.866 4.29376 170.308 5.27277 170.051 6.35628C169.793 7.43978 169.848 8.57909 170.207 9.63014C170.566 10.6812 171.215 11.5967 172.07 12.261C172.925 12.9253 173.948 13.3085 175.011 13.3621C175.716 13.3978 176.422 13.2873 177.086 13.0369C177.751 12.7865 178.362 12.4011 178.885 11.9027C179.408 11.4044 179.832 10.8028 180.133 10.1323C180.435 9.46183 180.607 8.73563 180.641 7.99514Z" fill="#FB5D64"/>
<path fill-rule="evenodd" clip-rule="evenodd" d="M174.375 2.47424C175.135 2.12005 175.971 1.98604 176.797 2.08616C177.623 2.18628 178.408 2.51687 179.071 3.04353C179.734 3.57019 180.25 4.27369 180.566 5.08084C180.883 5.888 180.987 6.76931 180.868 7.6331C180.75 8.4969 180.413 9.31162 179.893 9.99251C179.643 10.3204 179.693 10.7993 180.006 11.0622C180.318 11.3251 180.774 11.2724 181.025 10.9445C181.707 10.0514 182.148 8.98279 182.304 7.84981C182.459 6.71683 182.322 5.56087 181.907 4.50219C181.493 3.44351 180.816 2.52078 179.946 1.82999C179.077 1.13921 178.047 0.7056 176.963 0.57428C175.88 0.442961 174.783 0.618726 173.787 1.08329C172.79 1.54786 171.93 2.28425 171.297 3.21586C170.663 4.14748 170.279 5.24028 170.184 6.38059C170.089 7.52089 170.287 8.66704 170.757 9.69981C170.93 10.079 171.363 10.2395 171.724 10.0583C172.085 9.87706 172.238 9.42276 172.066 9.04356C171.707 8.25618 171.556 7.38234 171.628 6.51295C171.701 5.64357 171.994 4.81041 172.477 4.10013C172.96 3.38986 173.615 2.82843 174.375 2.47424Z" fill="#1B3C87"/>
<path fill-rule="evenodd" clip-rule="evenodd" d="M163.643 9.15476C172.302 9.59264 178.871 19.6824 178.323 31.6912C178.253 33.2335 178.063 34.7673 177.756 36.2773C174.944 31.8425 171.213 27.196 168.718 24.5925C163.076 24.3494 155.219 22.4967 149.063 20.5216C151.958 13.4995 157.492 8.84443 163.643 9.15476Z" fill="#FB5D64"/>
<path fill-rule="evenodd" clip-rule="evenodd" d="M158.12 21.3292C158.034 21.7395 158.28 22.1458 158.671 22.2368C162.548 23.1383 166.462 23.8091 169.713 23.9776C172.169 26.5794 175.748 31.0595 178.461 35.3374C178.623 35.5922 178.914 35.7205 179.201 35.6633C179.487 35.6061 179.713 35.3743 179.774 35.0751C180.578 31.1337 180.598 27.0604 179.832 23.1105C179.752 22.6987 179.369 22.4328 178.977 22.5166C178.585 22.6005 178.331 23.0023 178.411 23.4141C179.021 26.5606 179.106 29.7897 178.664 32.9579C175.987 28.9745 172.779 25.0293 170.538 22.6912C170.41 22.5571 170.238 22.4783 170.057 22.4705C166.872 22.3328 162.935 21.6695 158.985 20.7508C158.594 20.6599 158.207 20.9189 158.12 21.3292Z" fill="#1B3C87"/>
<path fill-rule="evenodd" clip-rule="evenodd" d="M178.502 20.7312C178.118 20.8519 177.9 21.276 178.015 21.6786C178.211 22.3645 178.38 23.0684 178.523 23.7907C178.604 24.2022 178.988 24.4666 179.38 24.3812C179.772 24.2958 180.024 23.893 179.943 23.4815C179.792 22.7174 179.612 21.9708 179.404 21.2417C179.289 20.8391 178.885 20.6106 178.502 20.7312Z" fill="#1B3C87"/>
<path fill-rule="evenodd" clip-rule="evenodd" d="M165.099 7.40672C158.547 7.07609 152.789 12.0296 149.819 19.2315C149.66 19.6172 149.829 20.0652 150.196 20.2322C150.564 20.3991 150.991 20.2218 151.15 19.8361C153.971 12.9936 159.281 8.63687 165.029 8.92691C170.915 9.22497 175.914 14.3161 178.013 21.6786C178.128 22.0813 178.532 22.31 178.915 22.1895C179.299 22.0691 179.517 21.645 179.402 21.2424C177.195 13.4993 171.806 7.74636 165.099 7.40673L165.099 7.40672Z" fill="#1B3C87"/>
<path fill-rule="evenodd" clip-rule="evenodd" d="M174.987 37.2523C175.571 37.7281 176.272 38.0207 177.008 38.0962C177.743 38.1717 178.485 38.0271 179.145 37.6789C179.806 37.3308 180.36 36.7935 180.742 36.129C181.124 35.4645 181.319 34.7001 181.305 33.9241C181.291 33.1481 181.067 32.3922 180.661 31.7438C180.254 31.0954 179.682 30.581 179.008 30.2601C178.335 29.9391 177.589 29.8248 176.857 29.9302C176.124 30.0356 175.435 30.3565 174.869 30.8558" fill="white"/>
<path fill-rule="evenodd" clip-rule="evenodd" d="M177.923 29.9006C178.52 29.8147 179.128 29.9079 179.677 30.1695C180.226 30.431 180.692 30.8502 181.024 31.3786C181.355 31.907 181.537 32.5229 181.549 33.1553C181.56 33.7877 181.401 34.4106 181.09 34.9521C180.778 35.4936 180.327 35.9315 179.789 36.2152C179.25 36.4988 178.646 36.6167 178.046 36.5552C177.447 36.4937 176.876 36.2552 176.4 35.8675C176.084 35.6098 175.628 35.6701 175.383 36.0021C175.137 36.3341 175.195 36.8121 175.511 37.0698C176.203 37.6337 177.033 37.9804 177.905 38.0699C178.777 38.1594 179.656 37.9879 180.439 37.5754C181.222 37.1629 181.878 36.5261 182.331 35.7387C182.784 34.9513 183.015 34.0454 182.998 33.1258C182.981 32.2062 182.717 31.3104 182.235 30.5421C181.753 29.7737 181.074 29.1641 180.276 28.7838C179.479 28.4034 178.595 28.2679 177.726 28.3928C176.858 28.5177 176.042 28.898 175.371 29.4897C175.064 29.7601 175.025 30.2401 175.282 30.5618C175.54 30.8836 175.997 30.9253 176.303 30.6549C176.765 30.248 177.326 29.9865 177.923 29.9006Z" fill="#1B3C87"/>
</svg>
