<svg width="24" height="24" viewBox="0 0 24 24" fill="none" xmlns="http://www.w3.org/2000/svg">
<path d="M10.7513 17.0521L10.7524 17.053C11.0943 17.3367 11.5237 17.4934 11.9676 17.4966C12.3915 17.5219 12.812 17.4063 13.1636 17.1675L13.1806 17.156L13.1965 17.1432L21.7483 10.2505C21.9567 10.0901 22.13 9.88867 22.2576 9.65869C22.3864 9.42668 22.4659 9.17058 22.4912 8.90644C22.5165 8.64229 22.4871 8.37575 22.4047 8.12351C22.3236 7.8753 22.193 7.64618 22.0208 7.45003C21.8634 7.25638 21.6698 7.09514 21.4507 6.97533C21.228 6.85349 20.9833 6.77691 20.7309 6.75002C20.4784 6.72313 20.2232 6.74646 19.9798 6.81867C19.7366 6.8908 19.5101 7.01026 19.3133 7.17019C19.3131 7.17036 19.3129 7.17053 19.3126 7.1707L11.9901 13.0797L4.66144 6.94674L4.66144 6.94674L4.66038 6.94586C4.26719 6.61865 3.76015 6.46114 3.25081 6.50816C2.74148 6.55518 2.27182 6.80284 1.94507 7.19644C1.61834 7.59002 1.46123 8.09731 1.50814 8.60672C1.55504 9.11601 1.80204 9.58595 2.19505 9.91314C2.19515 9.91322 2.19524 9.9133 2.19534 9.91338L10.7513 17.0521Z" fill="black" stroke="black"/>
</svg>
