<svg  viewBox="0 0 16 16" fill="none" xmlns="http://www.w3.org/2000/svg">
<path fill-rule="evenodd" clip-rule="evenodd" d="M3.78912 4.55118L1.63203 2.56896L2.45907 1.90674L15.034 13.4623L14.1876 14.129L11.7694 11.9067C10.658 12.4008 9.43946 12.6576 8.20486 12.6578C5.04178 12.6578 2.18339 10.9823 0.553484 8.21341L0.427734 8.00007L0.553484 7.79118C1.31132 6.47375 2.42566 5.3579 3.78912 4.55118ZM9.56393 9.85785L6.34764 6.90229C6.12524 7.23238 6.00486 7.61188 5.99941 8.00007C5.9975 8.28543 6.05701 8.56832 6.17452 8.83246C6.29203 9.09661 6.46523 9.33679 6.68413 9.53919C6.90304 9.74159 7.16335 9.90222 7.45006 10.0118C7.73678 10.1214 8.04426 10.1779 8.35479 10.1779C8.78217 10.1753 9.20052 10.0646 9.56393 9.85785ZM5.04764 8.27518C4.98177 7.55887 5.19385 6.84425 5.64634 6.25785L4.49041 5.20007C3.25793 5.88372 2.23839 6.84817 1.53046 8.00007C3.0056 10.3512 5.4819 11.7467 8.20486 11.7467C9.1791 11.7467 10.1432 11.5653 11.0391 11.2134L10.2652 10.5023C9.62709 10.9181 8.84943 11.113 8.06993 11.0525C7.29043 10.9919 6.55938 10.6799 6.00623 10.1716C5.45308 9.66327 5.1135 8.99149 5.04764 8.27518ZM15.8606 7.79112C14.2307 5.02224 11.3723 3.34668 8.20922 3.34668C7.348 3.34854 6.49257 3.47605 5.67488 3.72446L6.45356 4.44446C7.0271 4.30825 7.61684 4.23808 8.20922 4.23557C10.9322 4.23557 13.4085 5.63112 14.8836 7.98223C14.3425 8.8545 13.6251 9.62383 12.7701 10.2489L13.4568 10.88C14.4464 10.1464 15.2683 9.2401 15.8751 8.21335L16.0009 8.00001L15.8606 7.79112ZM11.4597 9.06673C11.5986 8.72564 11.6691 8.36424 11.6677 8.00006C11.6677 7.19144 11.3181 6.41595 10.6959 5.84417C10.0737 5.27239 9.22979 4.95117 8.34985 4.95117C7.95842 4.95159 7.57023 5.01631 7.20359 5.14228L7.98227 5.88006C8.10064 5.86266 8.2203 5.85374 8.34017 5.85339C8.96236 5.8522 9.55979 6.07728 10.002 6.47948C10.4442 6.88168 10.6953 7.42833 10.7004 8.00006C10.7 8.11021 10.6903 8.22017 10.6714 8.32895L11.4597 9.06673Z" fill="#777777"/>
</svg>
