<svg viewBox="0 0 16 16" fill="none" xmlns="http://www.w3.org/2000/svg">
<path fill-rule="evenodd" clip-rule="evenodd" d="M7.91034 3.34668C10.817 3.34668 13.4437 5.02224 14.9414 7.79112L15.057 8.00001L14.9414 8.21335C13.4481 11.0045 10.817 12.6578 7.91034 12.6578C5.00367 12.6578 2.37701 10.9822 0.879227 8.21335L0.763672 8.00001L0.888116 7.79112C2.37256 5.02224 5.00367 3.34668 7.91034 3.34668ZM1.77701 8.00001C3.11034 10.3511 5.40812 11.7467 7.91034 11.7467C10.4081 11.7467 12.6837 10.3511 14.0392 8.00001C12.6837 5.65335 10.4126 4.25335 7.91034 4.25335C5.40812 4.25335 3.11034 5.6489 1.77701 8.00001ZM6.35019 5.48998C6.84892 5.15172 7.43672 4.96883 8.03933 4.96444C8.44047 4.96151 8.83823 5.03777 9.20984 5.18884C9.58145 5.33992 9.91959 5.56284 10.2049 5.84484C10.4902 6.12683 10.717 6.46236 10.8724 6.83218C11.0278 7.202 11.1087 7.59885 11.1104 7.99999C11.1131 8.60262 10.937 9.1925 10.6046 9.69514C10.2722 10.1978 9.79823 10.5906 9.24265 10.8241C8.68707 11.0575 8.07478 11.1211 7.48309 11.0068C6.89141 10.8924 6.34688 10.6053 5.91828 10.1817C5.48969 9.75801 5.19624 9.21687 5.07502 8.62656C4.9538 8.03624 5.01023 7.42325 5.23719 6.86499C5.46414 6.30673 5.85145 5.82825 6.35019 5.48998ZM6.84681 9.79947C7.19879 10.0389 7.61367 10.1689 8.03933 10.1733C8.32581 10.1757 8.60991 10.1211 8.87516 10.0129C9.1404 9.90459 9.3815 9.74473 9.5845 9.54257C9.78749 9.3404 9.94833 9.09995 10.0577 8.83515C10.167 8.57035 10.2227 8.28648 10.2216 7.99999C10.2189 7.57431 10.0905 7.15891 9.85256 6.80595C9.6146 6.45299 9.27764 6.17822 8.88402 6.01614C8.49039 5.85406 8.05765 5.8119 7.64015 5.89495C7.22264 5.97801 6.83899 6.18258 6.53737 6.48298C6.23575 6.78337 6.02961 7.16618 5.94485 7.58335C5.86009 8.00051 5.90048 8.43342 6.06095 8.8277C6.22143 9.22198 6.49482 9.56006 6.84681 9.79947Z" fill="#777777"/>
</svg>
