<svg viewBox="0 0 25 25" fill="none" xmlns="http://www.w3.org/2000/svg">
<path fill-rule="evenodd" clip-rule="evenodd" d="M22.3958 0H2.60415C1.16592 0 0 1.16592 0 2.60415V22.3958C0 23.8341 1.16592 25 2.60415 25H13.5417V15.6251H10.9376C10.6499 15.6251 10.4167 15.3919 10.4167 15.1043V11.9793C10.4167 11.6916 10.6499 11.4584 10.9376 11.4584H13.5417V8.85429C13.5417 5.69018 16.1068 3.12515 19.2709 3.12515H21.3542C21.6419 3.12515 21.8751 3.35835 21.8751 3.64595V6.77095C21.8751 7.05859 21.6419 7.29179 21.3543 7.29179H19.2709C18.408 7.29179 17.7084 7.99136 17.7084 8.85429V11.4584H21.3542C21.41 11.4585 21.4655 11.4675 21.5184 11.4852C21.7913 11.5761 21.9389 11.871 21.848 12.1439L20.8063 15.2689C20.7355 15.4815 20.5366 15.625 20.3126 15.6251H17.7084V25H22.3958C23.8341 25 25 23.8341 25 22.3958V2.60415C25 1.16592 23.8341 0 22.3958 0Z" fill="white"/>
</svg>
