<svg viewBox="0 0 25 25" fill="none" xmlns="http://www.w3.org/2000/svg">
<path fill-rule="evenodd" clip-rule="evenodd" d="M2 0C0.895431 0 0 0.89543 0 2V23C0 24.1046 0.89543 25 2 25H23C24.1046 25 25 24.1046 25 23V2C25 0.895431 24.1046 0 23 0H2ZM4 12.7157C4 7.90255 7.80375 4 12.5 4C17.1941 4 21 7.90255 21 12.7157C21 16.5613 18.5669 19.8297 15.1662 20.9739C14.7305 21.0611 14.5818 20.7884 14.5818 20.56C14.5818 20.4665 14.5829 20.3018 14.5845 20.0812C14.5876 19.6333 14.5924 18.9547 14.5924 18.1734C14.5924 17.3566 14.3162 16.8222 14.0187 16.5606C15.9099 16.3463 17.8968 15.6093 17.8968 12.2611C17.8968 11.3099 17.5674 10.5323 17.0255 9.92256C17.1105 9.70231 17.3974 8.8161 16.9405 7.61577C16.9405 7.61577 16.2287 7.38221 14.6137 8.50937C13.9337 8.31572 13.2112 8.21963 12.4887 8.2152C11.7662 8.21963 11.0437 8.31572 10.3637 8.50937C8.73804 7.38221 8.02617 7.61577 8.02617 7.61577C7.56929 8.8161 7.85617 9.70231 7.95179 9.92256C7.40637 10.5323 7.077 11.3099 7.077 12.2611C7.077 15.6005 9.06104 16.3499 10.9488 16.568C10.7058 16.786 10.4869 17.1696 10.4104 17.7336C9.9245 17.9561 8.69271 18.3411 7.93479 17.0085C7.93479 17.0085 7.48642 16.1711 6.63287 16.1105C6.63287 16.1105 5.80342 16.0994 6.57337 16.6397C6.57337 16.6397 7.13225 16.9087 7.519 17.9147C7.519 17.9147 8.01767 19.6095 10.3821 19.084C10.3841 19.4875 10.3871 19.8361 10.3894 20.1017C10.3913 20.3144 10.3927 20.4739 10.3927 20.5659C10.3927 20.7972 10.2369 21.067 9.81187 20.985C6.43525 19.8334 4 16.5672 4 12.7157Z" fill="white"/>
</svg>
