<svg viewBox="0 0 25 25" fill="none" xmlns="http://www.w3.org/2000/svg">
<path d="M23.0211 0H1.78934C0.801069 0 0 0.80719 0 1.80302V23.197C0 24.1928 0.801069 25 1.78934 25H23.0211C24.0094 25 24.8104 24.1928 24.8104 23.197V1.80302C24.8104 0.80719 24.0094 0 23.0211 0V0ZM8.8004 18.8965H5.77917V9.73759H8.8004V18.8965ZM7.28988 8.48694H7.27019C6.25636 8.48694 5.60067 7.7837 5.60067 6.90479C5.60067 6.00605 6.27643 5.32227 7.30994 5.32227C8.34346 5.32227 8.97947 6.00605 8.99916 6.90479C8.99916 7.7837 8.34346 8.48694 7.28988 8.48694ZM19.6943 18.8965H16.6735V13.9967C16.6735 12.7653 16.236 11.9255 15.1429 11.9255C14.3083 11.9255 13.8112 12.492 13.5928 13.0388C13.5129 13.2345 13.4934 13.508 13.4934 13.7817V18.8965H10.4724C10.4724 18.8965 10.5119 10.5968 10.4724 9.73759H13.4934V11.0344C13.8949 10.4103 14.6133 9.52263 16.2162 9.52263C18.2039 9.52263 19.6943 10.8316 19.6943 13.6448V18.8965Z" fill="white"/>
</svg>
