<svg width="26" height="10" viewBox="0 0 26 10" fill="none" xmlns="http://www.w3.org/2000/svg">
<rect width="26" height="10" rx="5" fill="#ED4F75"/>
<path d="M10.398 3.36365H9.63272V5.65058H9.60076L8.03116 3.36365H7.35645V7.00001H8.12527V4.7113H8.1519L9.73393 7.00001H10.398V3.36365Z" fill="#FAFAFA"/>
<path d="M11.0332 7.00001H13.4906V6.36613H11.802V5.49788H13.3574V4.864H11.802V3.99753H13.4835V3.36365H11.0332V7.00001Z" fill="#FAFAFA"/>
<path d="M14.9133 7.00001H15.6626L16.3533 4.62253H16.3817L17.0741 7.00001H17.8234L18.8639 3.36365H18.0241L17.4221 5.89561H17.3902L16.7279 3.36365H16.0088L15.3447 5.89028H15.3145L14.7126 3.36365H13.8728L14.9133 7.00001Z" fill="#FAFAFA"/>
</svg>
