<svg width="13" height="13" viewBox="0 0 13 13" fill="none" xmlns="http://www.w3.org/2000/svg">
<path d="M0.263224 11.466L3.01073 8.71834C2.34295 7.78958 1.97581 6.67973 1.97581 5.51148C1.97581 4.03992 2.54877 2.65599 3.59088 1.61489C4.63075 0.574243 6.01574 0 7.48836 0C8.96052 0 10.3451 0.572895 11.3858 1.61489C12.4266 2.65509 13 4.03947 13 5.51148C13 6.98348 12.427 8.36741 11.3858 9.40896C10.3451 10.4496 8.96097 11.0238 7.48836 11.0238C6.32042 11.0238 5.21135 10.6585 4.28158 9.98904L1.53407 12.7367C1.35791 12.9124 1.12873 13 0.898647 13C0.668115 13 0.438482 12.9124 0.263224 12.7367C-0.0877419 12.3853 -0.0877419 11.8169 0.263224 11.466ZM10.1145 8.13781C10.8165 7.43595 11.2025 6.5027 11.2025 5.51103C11.2025 4.51936 10.8165 3.587 10.1145 2.88514C9.41305 2.18329 8.48059 1.79687 7.48836 1.79687C6.49612 1.79687 5.56321 2.18329 4.86173 2.88514C4.1598 3.587 3.77333 4.5198 3.77333 5.51148C3.77333 6.50315 4.15935 7.43595 4.86173 8.13826C5.56366 8.84011 6.49567 9.22563 7.48836 9.22563C8.48104 9.22563 9.41395 8.83921 10.1145 8.13781Z" fill="white"/>
</svg>
