<svg width="195" height="35"  fill="none" xmlns="http://www.w3.org/2000/svg">
<path d="M25.9282 9.9416L31.8325 7.03859L33.6482 7.95416C34.5491 8.40843 34.561 9.67558 33.6688 10.1463L18.1546 18.3319C17.8028 18.5175 17.3825 18.5265 17.0229 18.3561L10.5815 15.3042L6.9173 17.1623L17.4415 22.1485L25.9282 17.6707L31.8325 14.7677L33.6482 15.6833C34.5491 16.1376 34.561 17.4047 33.6688 17.8754L18.1546 26.061C17.8028 26.2466 17.3825 26.2556 17.0229 26.0853L10.6582 23.0697L6.9173 24.9667L17.4415 29.9529L25.9282 25.4752L31.8325 22.5722L33.6482 23.4877C34.5491 23.942 34.561 25.2092 33.6688 25.6799L18.1546 33.8655C17.8028 34.0511 17.3825 34.0601 17.0229 33.8897L0.710561 26.1611C-0.222699 25.7189 -0.240583 24.4129 0.680227 23.946L6.39321 21.049L0.710561 18.3566C-0.222699 17.9145 -0.240583 16.6085 0.680227 16.1416L6.31643 13.2835L0.710561 10.6275C-0.222699 10.1853 -0.240583 8.87935 0.680227 8.41242L17.0006 0.136536C17.3587 -0.0450583 17.7834 -0.0455353 18.1419 0.135251L25.5287 3.85995L21.221 5.97795L17.4655 4.08426L6.9173 9.43313L17.4415 14.4194L25.9282 9.9416Z" fill="#F6F6F6"/>

<g>
<path d="M56.0481 25.7466C60.2554 25.7466 62.2495 23.6087 62.2495 21.1145C62.2495 15.3913 53.1555 17.5514 53.1555 14.2333C53.1555 13.053 54.1197 12.1177 56.4863 12.1177C57.823 12.1177 59.3351 12.5186 60.7156 13.3425L61.614 11.0933C60.2773 10.2025 58.349 9.71262 56.5082 9.71262C52.3009 9.71262 50.3287 11.8505 50.3287 14.3669C50.3287 20.1569 59.4446 17.9523 59.4446 21.315C59.4446 22.473 58.4366 23.3415 56.0481 23.3415C54.1635 23.3415 52.2132 22.6288 50.9861 21.6267L50 23.8759C51.271 24.9894 53.6595 25.7466 56.0481 25.7466Z" fill="#FAFAFA"/>
<path d="M71.0785 22.8961C70.6622 23.2301 70.1143 23.386 69.5446 23.386C68.4928 23.386 67.923 22.7625 67.923 21.6045V15.948H71.0566V13.7211H67.923V11.0042H65.1838V13.7211H63.2555V15.948H65.1838V21.6713C65.1838 24.299 66.652 25.6797 69.2159 25.6797C70.202 25.6797 71.1881 25.4125 71.8455 24.878L71.0785 22.8961Z" fill="#FAFAFA"/>
<path d="M78.5691 13.4984C76.6846 13.4984 74.8657 13.9883 73.6167 14.9682L74.6904 16.9947C75.567 16.2598 76.9256 15.8144 78.2404 15.8144C80.1907 15.8144 81.1549 16.772 81.1549 18.3977V18.5758H78.1308C74.5809 18.5758 73.2661 20.1347 73.2661 22.1166C73.2661 24.1877 74.9534 25.6797 77.6268 25.6797C79.3799 25.6797 80.6509 25.1007 81.3083 24.0764V25.5239H83.894V18.5536C83.894 15.1241 81.9437 13.4984 78.5691 13.4984ZM78.1966 23.6532C76.7941 23.6532 75.9614 23.0074 75.9614 22.0053C75.9614 21.1368 76.4654 20.4242 78.328 20.4242H81.1549V21.8049C80.6947 23.0297 79.5333 23.6532 78.1966 23.6532Z" fill="#FAFAFA"/>
<path d="M92.8851 25.6797C95.1641 25.6797 96.9829 24.6776 97.8814 22.8961L95.7777 21.649C95.0765 22.7847 94.0246 23.2969 92.8632 23.2969C90.8472 23.2969 89.3133 21.894 89.3133 19.5779C89.3133 17.2842 90.8472 15.859 92.8632 15.859C94.0246 15.859 95.0765 16.3712 95.7777 17.5069L97.8814 16.2598C96.9829 14.456 95.1641 13.4984 92.8851 13.4984C89.1818 13.4984 86.5522 16.0148 86.5522 19.5779C86.5522 23.141 89.1818 25.6797 92.8851 25.6797Z" fill="#FAFAFA"/>
<path d="M108.973 25.5239H112.304L106.957 18.6204L111.844 13.632H108.557L102.881 18.9767V9H100.142V25.5239H102.881V22.3839L104.919 20.4242L108.973 25.5239Z" fill="#FAFAFA"/>
<path d="M114.073 25.5239H116.813V9H114.073V25.5239Z" fill="#FAFAFA"/>
<path d="M128.735 13.632L125.031 22.4284L121.35 13.632H118.501L123.607 25.5684L123.41 26.0361C122.884 27.2163 122.314 27.684 121.35 27.684C120.605 27.684 119.86 27.3722 119.334 26.86L118.238 28.9088C118.983 29.5992 120.21 30 121.372 30C123.322 30 124.812 29.176 125.886 26.4814L131.364 13.632H128.735Z" fill="#FAFAFA"/>
<path d="M146.495 25.7466C149.015 25.7466 151.163 24.8335 152.587 23.141L150.746 21.3595C149.629 22.6066 148.248 23.2078 146.649 23.2078C143.471 23.2078 141.17 20.9364 141.17 17.7296C141.17 14.5228 143.471 12.2513 146.649 12.2513C148.248 12.2513 149.629 12.8526 150.746 14.0774L152.587 12.3181C151.163 10.6257 149.015 9.71262 146.517 9.71262C141.806 9.71262 138.3 13.0753 138.3 17.7296C138.3 22.3839 141.806 25.7466 146.495 25.7466Z" fill="#FAFAFA"/>
<path d="M159.885 25.6797C163.523 25.6797 166.13 23.141 166.13 19.5779C166.13 16.0148 163.523 13.4984 159.885 13.4984C156.291 13.4984 153.662 16.0148 153.662 19.5779C153.662 23.141 156.291 25.6797 159.885 25.6797ZM159.885 23.2969C157.913 23.2969 156.423 21.8494 156.423 19.5779C156.423 17.3065 157.913 15.859 159.885 15.859C161.879 15.859 163.369 17.3065 163.369 19.5779C163.369 21.8494 161.879 23.2969 159.885 23.2969Z" fill="#FAFAFA"/>
<path d="M177.471 9V15.1018C176.551 14.0106 175.214 13.4984 173.702 13.4984C170.305 13.4984 167.785 15.8812 167.785 19.5779C167.785 23.2747 170.305 25.6797 173.702 25.6797C175.302 25.6797 176.66 25.123 177.581 23.9873V25.5239H180.21V9H177.471ZM174.031 23.2969C172.058 23.2969 170.546 21.8494 170.546 19.5779C170.546 17.3065 172.058 15.859 174.031 15.859C176.003 15.859 177.515 17.3065 177.515 19.5779C177.515 21.8494 176.003 23.2969 174.031 23.2969Z" fill="#FAFAFA"/>
<path d="M194.794 19.6448C194.794 15.9258 192.296 13.4984 188.877 13.4984C185.393 13.4984 182.829 16.0371 182.829 19.5779C182.829 23.1188 185.371 25.6797 189.294 25.6797C191.31 25.6797 192.953 25.0117 194.005 23.7423L192.537 22.0276C191.704 22.8961 190.674 23.3192 189.36 23.3192C187.322 23.3192 185.897 22.2057 185.569 20.4687H194.75C194.772 20.2015 194.794 19.8674 194.794 19.6448ZM188.877 15.7253C190.674 15.7253 191.967 16.9056 192.186 18.6204H185.547C185.81 16.8834 187.102 15.7253 188.877 15.7253Z" fill="#FAFAFA"/>
</g>
</svg>
