<svg width="14" height="14" viewBox="0 0 14 14" fill="none" xmlns="http://www.w3.org/2000/svg">
<path d="M0.0201015 5.39372C0.0683355 5.24521 0.196659 5.13699 0.351151 5.11456L4.69122 4.48388L6.6322 0.55113C6.70127 0.411131 6.84387 0.32251 6.99998 0.32251C7.15611 0.32251 7.29868 0.411131 7.36778 0.55113L9.30885 4.48388L13.6488 5.11456C13.8033 5.13699 13.9317 5.24521 13.9799 5.39369C14.0282 5.54219 13.9879 5.70519 13.8761 5.81415L10.7357 8.87538L11.477 13.1979C11.5034 13.3518 11.4401 13.5073 11.3138 13.5991C11.2424 13.651 11.1577 13.6774 11.0727 13.6774C11.0074 13.6774 10.9419 13.6619 10.8819 13.6303L7 11.5894L3.11827 13.6303C2.98005 13.7029 2.81263 13.6908 2.68633 13.5991C2.56003 13.5073 2.49673 13.3518 2.52311 13.1979L3.26459 8.87538L0.123871 5.81413C0.0120907 5.70519 -0.0281878 5.54219 0.0201015 5.39372Z" fill="#FFD74B"/>
</svg>
