<svg width="1450" height="811" viewBox="0 0 1450 811" fill="none" xmlns="http://www.w3.org/2000/svg">
<path d="M278.104 708.649L142.549 751.04C139.61 751.959 136.779 749.352 137.452 746.347L168.518 607.758C169.192 604.754 172.865 603.605 175.131 605.69L279.619 701.889C281.885 703.974 281.043 707.73 278.104 708.649Z" stroke="#46DBC9" stroke-opacity="0.25" stroke-width="2"/>
<path d="M873.16 77.7825L900.693 101.311C903.034 103.311 902.332 107.095 899.429 108.123L865.286 120.203C862.384 121.23 859.457 118.73 860.019 115.702L866.628 80.0935C867.19 77.066 870.819 75.7821 873.16 77.7825Z" stroke="#DB468E" stroke-opacity="0.25" stroke-width="2"/>
<path d="M1364.55 76.1897L1374.36 111.053C1375.19 114.018 1372.5 116.773 1369.52 116.013L1334.42 107.075C1331.44 106.315 1330.39 102.61 1332.54 100.405L1357.83 74.4798C1359.98 72.2756 1363.71 73.2255 1364.55 76.1897Z" stroke="#1B3C87" stroke-opacity="0.25" stroke-width="2"/>
<path d="M1338.85 351.726L1302.64 352.253C1299.56 352.298 1297.59 348.993 1299.09 346.304L1316.74 314.679C1318.24 311.99 1322.09 311.934 1323.67 314.578L1342.23 345.676C1343.81 348.32 1341.93 351.681 1338.85 351.726Z" stroke="#46DBC9" stroke-opacity="0.25" stroke-width="2"/>
<rect x="58.4105" y="68.6044" width="69" height="69" rx="3" transform="rotate(-49.1507 58.4105 68.6044)" stroke="#FF5A5A" stroke-opacity="0.25" stroke-width="2"/>
<rect x="500.411" y="709.604" width="69" height="69" rx="3" transform="rotate(-49.1507 500.411 709.604)" stroke="#FF5A5A" stroke-opacity="0.25" stroke-width="2"/>
<rect x="1119.41" y="750.604" width="69" height="69" rx="3" transform="rotate(-49.1507 1119.41 750.604)" stroke="#4BBEFF" stroke-opacity="0.25" stroke-width="2"/>
<circle cx="630" cy="540" r="14" stroke="#FF5A5A" stroke-opacity="0.25" stroke-width="2"/>
<circle cx="712.5" cy="588.5" r="39.5" stroke="#FF5A5A" stroke-opacity="0.25" stroke-width="2"/>
</svg>
