<svg width="5465" height="947" viewBox="0 0 5465 947" fill="none" xmlns="http://www.w3.org/2000/svg">
<path fill-rule="evenodd" clip-rule="evenodd" d="M213.162 567.549L18.9203 666.046C-6.69173 679.034 -6.19431 715.36 19.764 727.658L473.487 942.627C483.489 947.366 495.179 947.116 504.963 941.953L936.487 714.274C961.303 701.181 960.971 665.935 935.913 653.3L885.409 627.834L721.185 708.58L485.129 833.127L192.402 694.437L296.952 641.421L213.162 567.549Z" fill="#F6F6F6"/>
<path fill-rule="evenodd" clip-rule="evenodd" d="M213.162 350.471L18.9203 448.969C-6.69173 461.956 -6.19431 498.282 19.764 510.581L473.487 725.55C483.489 730.288 495.179 730.038 504.963 724.876L936.487 497.196C961.303 484.103 960.971 448.858 935.913 436.223L885.409 410.756L721.185 491.502L485.129 616.05L192.402 477.36L296.952 424.344L213.162 350.471Z" fill="#F6F6F6"/>
<path fill-rule="evenodd" clip-rule="evenodd" d="M885.41 195.776L721.185 276.522L485.129 401.07L192.403 262.379L485.797 113.602L590.255 166.275L710.071 107.363L504.612 3.76195C494.64 -1.26655 482.828 -1.25328 472.867 3.79772L18.9205 233.989C-6.69149 246.976 -6.19406 283.302 19.7643 295.601L473.488 510.569C483.49 515.308 495.179 515.058 504.964 509.895L936.488 282.216C961.303 269.123 960.971 233.878 935.914 221.242L885.41 195.776Z" fill="#F6F6F6"/>
<path d="M1605 716.132C1722.02 716.132 1777.49 656.668 1777.49 587.294C1777.49 428.104 1524.54 488.187 1524.54 395.894C1524.54 363.066 1551.36 337.05 1617.19 337.05C1654.37 337.05 1696.43 348.2 1734.82 371.118L1759.81 308.557C1722.63 283.78 1669 270.153 1617.8 270.153C1500.77 270.153 1445.92 329.617 1445.92 399.611C1445.92 560.659 1699.47 499.337 1699.47 592.868C1699.47 625.078 1671.44 649.235 1605 649.235C1552.58 649.235 1498.33 629.414 1464.2 601.54L1436.77 664.101C1472.13 695.072 1538.56 716.132 1605 716.132Z" fill="#FAFAFA"/>
<path d="M2023.07 636.847C2011.49 646.138 1996.25 650.474 1980.4 650.474C1951.14 650.474 1935.3 633.13 1935.3 600.921V443.589H2022.46V381.648H1935.3V306.079H1859.11V381.648H1805.47V443.589H1859.11V602.779C1859.11 675.87 1899.94 714.274 1971.26 714.274C1998.69 714.274 2026.11 706.841 2044.4 691.975L2023.07 636.847Z" fill="#FAFAFA"/>
<path d="M2231.41 375.454C2179 375.454 2128.41 389.081 2093.66 416.335L2123.53 472.702C2147.91 452.261 2185.7 439.873 2222.27 439.873C2276.52 439.873 2303.34 466.508 2303.34 511.725V516.68H2219.22C2120.48 516.68 2083.91 560.039 2083.91 615.167C2083.91 672.773 2130.84 714.274 2205.2 714.274C2253.97 714.274 2289.32 698.169 2307.6 669.676V709.938H2379.52V516.061C2379.52 420.671 2325.28 375.454 2231.41 375.454ZM2221.05 657.907C2182.04 657.907 2158.88 639.944 2158.88 612.07C2158.88 587.913 2172.9 568.092 2224.71 568.092H2303.34V606.495C2290.54 640.563 2258.23 657.907 2221.05 657.907Z" fill="#FAFAFA"/>
<path d="M2629.61 714.274C2693 714.274 2743.59 686.4 2768.58 636.847L2710.06 602.16C2690.56 633.75 2661.3 647.996 2629 647.996C2572.93 647.996 2530.26 608.973 2530.26 544.554C2530.26 480.754 2572.93 441.112 2629 441.112C2661.3 441.112 2690.56 455.358 2710.06 486.948L2768.58 452.261C2743.59 402.089 2693 375.454 2629.61 375.454C2526.6 375.454 2453.46 445.448 2453.46 544.554C2453.46 643.66 2526.6 714.274 2629.61 714.274Z" fill="#FAFAFA"/>
<path d="M3077.09 709.938H3169.74L3021.02 517.919L3156.94 379.17H3065.51L2907.65 527.83V250.332H2831.46V709.938H2907.65V622.6L2964.34 568.092L3077.09 709.938Z" fill="#FAFAFA"/>
<path d="M3218.95 709.938H3295.14V250.332H3218.95V709.938Z" fill="#FAFAFA"/>
<path d="M3626.75 379.17L3523.75 623.839L3421.35 379.17H3342.11L3484.13 711.176L3478.64 724.184C3464.02 757.013 3448.17 770.021 3421.35 770.021C3400.63 770.021 3379.9 761.349 3365.27 747.103L3334.8 804.089C3355.52 823.291 3389.65 834.44 3421.96 834.44C3476.21 834.44 3517.65 811.522 3547.52 736.572L3699.9 379.17H3626.75Z" fill="#FAFAFA"/>
<path d="M4120.76 716.132C4190.85 716.132 4250.58 690.736 4290.2 643.66L4239 594.107C4207.92 628.794 4169.52 645.519 4125.02 645.519C4036.65 645.519 3972.65 582.338 3972.65 493.143C3972.65 403.947 4036.65 340.767 4125.02 340.767C4169.52 340.767 4207.92 357.491 4239 391.559L4290.2 342.625C4250.58 295.549 4190.85 270.153 4121.37 270.153C3990.32 270.153 3892.8 363.685 3892.8 493.143C3892.8 622.6 3990.32 716.132 4120.76 716.132Z" fill="#FAFAFA"/>
<path d="M4493.19 714.274C4594.37 714.274 4666.9 643.66 4666.9 544.554C4666.9 445.448 4594.37 375.454 4493.19 375.454C4393.23 375.454 4320.09 445.448 4320.09 544.554C4320.09 643.66 4393.23 714.274 4493.19 714.274ZM4493.19 647.996C4438.33 647.996 4396.88 607.734 4396.88 544.554C4396.88 481.374 4438.33 441.112 4493.19 441.112C4548.65 441.112 4590.1 481.374 4590.1 544.554C4590.1 607.734 4548.65 647.996 4493.19 647.996Z" fill="#FAFAFA"/>
<path d="M4982.34 250.332V420.052C4956.74 389.7 4919.56 375.454 4877.5 375.454C4783.03 375.454 4712.94 441.731 4712.94 544.554C4712.94 647.377 4783.03 714.274 4877.5 714.274C4922 714.274 4959.79 698.788 4985.39 667.198V709.938H5058.53V250.332H4982.34ZM4886.65 647.996C4831.79 647.996 4789.73 607.734 4789.73 544.554C4789.73 481.374 4831.79 441.112 4886.65 441.112C4941.5 441.112 4983.56 481.374 4983.56 544.554C4983.56 607.734 4941.5 647.996 4886.65 647.996Z" fill="#FAFAFA"/>
<path d="M5464.17 546.412C5464.17 442.97 5394.69 375.454 5299.6 375.454C5202.69 375.454 5131.38 446.067 5131.38 544.554C5131.38 643.041 5202.08 714.274 5311.18 714.274C5367.26 714.274 5412.97 695.691 5442.23 660.384L5401.39 612.69C5378.23 636.847 5349.58 648.616 5313.01 648.616C5256.33 648.616 5216.71 617.645 5207.57 569.331H5462.95C5463.56 561.898 5464.17 552.606 5464.17 546.412ZM5299.6 437.395C5349.58 437.395 5385.54 470.224 5391.64 517.919H5206.96C5214.27 469.605 5250.23 437.395 5299.6 437.395Z" fill="#FAFAFA"/>
</svg>
